<?xml version="1.0" encoding="utf-8"?>
<!-- Generator: Adobe Illustrator 21.1.0, SVG Export Plug-In . SVG Version: 6.00 Build 0)  -->
<!DOCTYPE svg PUBLIC "-//W3C//DTD SVG 1.1//EN" "http://www.w3.org/Graphics/SVG/1.1/DTD/svg11.dtd">
<svg version="1.1" id="Layer_1" xmlns="http://www.w3.org/2000/svg" xmlns:xlink="http://www.w3.org/1999/xlink" x="0px" y="0px"
	 viewBox="0 0 390 414" enable-background="new 0 0 390 414" xml:space="preserve">
<title>Artboard 1</title>
<g>
	<g>
		
			<path fill="none" stroke="#FFFFFF" stroke-width="3.5614" stroke-linecap="round" stroke-linejoin="round" stroke-miterlimit="10" d="
			M124.2,225.7c-14.9,0.5-26.7,13-26.7,28.1V280c0,1.7,1.4,3.1,3.1,3.1l0,0c1.6,0,2.9-1.2,3.1-2.8l2.6-27.5c0.2-0.9,0.8-1.6,1.7-1.6
			s1.7,0.8,1.7,1.7v81.2c0,2.5,2,4.3,4.3,4.3h0.9c2.3,0,4.2-1.7,4.3-4l3.6-42.5c0.2-0.9,0.9-1.7,1.9-1.7s1.9,0.8,1.9,1.7l4.3,42.7
			c0.3,2.3,2.5,4.2,4.8,3.9s3.9-2.3,3.9-4.7v-81c0-0.9,0.8-1.7,1.7-1.7s1.7,0.6,1.7,1.6l2.6,27.5c0.2,1.4,1.2,2.6,2.6,2.9
			c2,0.3,3.6-1.2,3.6-3.1v-26.9C152.4,237.7,139.7,225.2,124.2,225.7z"/>
		
			<path fill="none" stroke="#FFFFFF" stroke-width="3.5614" stroke-linecap="round" stroke-linejoin="round" stroke-miterlimit="10" d="
			M107.1,251.3c-0.5,0.3-0.8,0.8-0.8,1.4l-0.3,1.9v-1.7C106,252.2,106.5,251.6,107.1,251.3z"/>
		
			<circle fill="none" stroke="#FFFFFF" stroke-width="3.5614" stroke-linecap="round" stroke-linejoin="round" stroke-miterlimit="10" cx="124.9" cy="208.8" r="12.9"/>
	</g>
	<g>
		
			<path fill="none" stroke="#FFFFFF" stroke-width="3.5614" stroke-linecap="round" stroke-linejoin="round" stroke-miterlimit="10" d="
			M196.2,225.7c-14.9,0.5-26.7,13-26.7,28.1V280c0,1.7,1.4,3.1,3.1,3.1l0,0c1.6,0,2.9-1.2,3.1-2.8l2.6-27.5c0.2-0.9,0.8-1.6,1.7-1.6
			c0.9,0,1.7,0.8,1.7,1.7v81.2c0,2.5,2,4.3,4.3,4.3h0.9c2.3,0,4.2-1.7,4.3-4l3.6-42.5c0.2-0.9,0.9-1.7,1.9-1.7s1.9,0.8,1.9,1.7
			l4.3,42.7c0.3,2.3,2.5,4.2,4.8,3.9s3.9-2.3,3.9-4.7v-81c0-0.9,0.8-1.7,1.7-1.7s1.7,0.6,1.7,1.6l2.6,27.5c0.2,1.4,1.2,2.6,2.6,2.9
			c2,0.3,3.6-1.2,3.6-3.1v-26.9C224.4,237.7,211.7,225.2,196.2,225.7z"/>
		
			<path fill="none" stroke="#FFFFFF" stroke-width="3.5614" stroke-linecap="round" stroke-linejoin="round" stroke-miterlimit="10" d="
			M179.1,251.3c-0.5,0.3-0.8,0.8-0.8,1.4l-0.3,1.9v-1.7C178,252.2,178.5,251.6,179.1,251.3z"/>
		
			<circle fill="none" stroke="#FFFFFF" stroke-width="3.5614" stroke-linecap="round" stroke-linejoin="round" stroke-miterlimit="10" cx="196.9" cy="208.8" r="12.9"/>
	</g>
	<g>
		
			<path fill="none" stroke="#FFFFFF" stroke-width="3.5614" stroke-linecap="round" stroke-linejoin="round" stroke-miterlimit="10" d="
			M267.2,225.7c-14.9,0.5-26.7,13-26.7,28.1V280c0,1.7,1.4,3.1,3.1,3.1l0,0c1.6,0,2.9-1.2,3.1-2.8l2.6-27.5c0.2-0.9,0.8-1.6,1.7-1.6
			c0.9,0,1.7,0.8,1.7,1.7v81.2c0,2.5,2,4.3,4.3,4.3h0.9c2.3,0,4.2-1.7,4.3-4l3.6-42.5c0.2-0.9,0.9-1.7,1.9-1.7s1.9,0.8,1.9,1.7
			l4.3,42.7c0.3,2.3,2.5,4.2,4.8,3.9c2.3-0.3,3.9-2.3,3.9-4.7v-81c0-0.9,0.8-1.7,1.7-1.7s1.7,0.6,1.7,1.6l2.6,27.5
			c0.2,1.4,1.2,2.6,2.6,2.9c2,0.3,3.6-1.2,3.6-3.1v-26.9C295.4,237.7,282.7,225.2,267.2,225.7z"/>
		
			<path fill="none" stroke="#FFFFFF" stroke-width="3.5614" stroke-linecap="round" stroke-linejoin="round" stroke-miterlimit="10" d="
			M250.1,251.3c-0.5,0.3-0.8,0.8-0.8,1.4l-0.3,1.9v-1.7C249,252.2,249.5,251.6,250.1,251.3z"/>
		
			<circle fill="none" stroke="#FFFFFF" stroke-width="3.5614" stroke-linecap="round" stroke-linejoin="round" stroke-miterlimit="10" cx="267.9" cy="208.8" r="12.9"/>
	</g>
	
		<line fill="none" stroke="#FF0055" stroke-width="2.5238" stroke-miterlimit="10" stroke-dasharray="2.3522" x1="125.5" y1="189.5" x2="125.5" y2="157.5"/>
	
		<line fill="none" stroke="#FF0055" stroke-width="2.5238" stroke-miterlimit="10" stroke-dasharray="2.3522" x1="197.5" y1="190" x2="197.5" y2="158"/>
	
		<line fill="none" stroke="#FF0055" stroke-width="2.5238" stroke-miterlimit="10" stroke-dasharray="2.3522" x1="267.5" y1="190" x2="267.5" y2="158"/>
</g>
<g>
	<g>
		<path fill="none" stroke="#FF0055" stroke-width="2.5238" stroke-miterlimit="10" d="M113.5,148.5h1.2c0.2,0.4,0.3,0.7,0.5,1.1"/>
		<path fill="none" stroke="#FF0055" stroke-width="2.5238" stroke-miterlimit="10" stroke-dasharray="2.3046,2.3046" d="
			M116.5,151.5c2.1,2.5,4.9,3.6,6.8,4.1"/>
		<path fill="none" stroke="#FF0055" stroke-width="2.5238" stroke-miterlimit="10" d="M124.4,155.8c0.8,0.2,1.3,0.2,1.1,0.2h1
			c0,0,0.1,0,0.2,0"/>
		<path fill="none" stroke="#FF0055" stroke-width="2.5238" stroke-miterlimit="10" stroke-dasharray="2.5199,2.5199" d="
			M129.1,155.6c2.1-0.6,5.1-1.9,7.1-4.9"/>
		<path fill="none" stroke="#FF0055" stroke-width="2.5238" stroke-miterlimit="10" d="M136.9,149.6c0.2-0.3,0.3-0.7,0.5-1.1h1.2"/>
		
			<line fill="none" stroke="#FF0055" stroke-width="2.5238" stroke-miterlimit="10" stroke-dasharray="2.4718,2.4718" x1="141" y1="148.5" x2="184.3" y2="148.5"/>
		<path fill="none" stroke="#FF0055" stroke-width="2.5238" stroke-miterlimit="10" d="M185.5,148.5h1.2c0.2,0.4,0.3,0.7,0.5,1.1"/>
		<path fill="none" stroke="#FF0055" stroke-width="2.5238" stroke-miterlimit="10" stroke-dasharray="2.3046,2.3046" d="
			M188.5,151.5c2.1,2.5,4.9,3.6,6.8,4.1"/>
		<path fill="none" stroke="#FF0055" stroke-width="2.5238" stroke-miterlimit="10" d="M196.4,155.8c0.8,0.2,1.3,0.2,1.1,0.2h1
			c0,0,0.1,0,0.2,0"/>
		<path fill="none" stroke="#FF0055" stroke-width="2.5238" stroke-miterlimit="10" stroke-dasharray="2.5199,2.5199" d="
			M201.1,155.6c2.1-0.6,5.1-1.9,7.1-4.9"/>
		<path fill="none" stroke="#FF0055" stroke-width="2.5238" stroke-miterlimit="10" d="M208.9,149.6c0.2-0.3,0.3-0.7,0.5-1.1h1.2"/>
		
			<line fill="none" stroke="#FF0055" stroke-width="2.5238" stroke-miterlimit="10" stroke-dasharray="2.3666,2.3666" x1="212.9" y1="148.5" x2="254.3" y2="148.5"/>
		<path fill="none" stroke="#FF0055" stroke-width="2.5238" stroke-miterlimit="10" d="M255.5,148.5h1.2c0.2,0.4,0.3,0.7,0.5,1.1"/>
		<path fill="none" stroke="#FF0055" stroke-width="2.5238" stroke-miterlimit="10" stroke-dasharray="2.3046,2.3046" d="
			M258.5,151.5c2.1,2.5,4.9,3.6,6.8,4.1"/>
		<path fill="none" stroke="#FF0055" stroke-width="2.5238" stroke-miterlimit="10" d="M266.4,155.8c0.8,0.2,1.3,0.2,1.1,0.2h1
			c0,0,0.1,0,0.2,0"/>
		<path fill="none" stroke="#FF0055" stroke-width="2.5238" stroke-miterlimit="10" stroke-dasharray="2.5199,2.5199" d="
			M271.1,155.6c2.1-0.6,5.1-1.9,7.1-4.9"/>
		<path fill="none" stroke="#FF0055" stroke-width="2.5238" stroke-miterlimit="10" d="M278.9,149.6c0.2-0.3,0.3-0.7,0.5-1.1h1.2"/>
		<path fill="none" stroke="#FF0055" stroke-width="2.5238" stroke-miterlimit="10" stroke-dasharray="2.3409,2.3409" d="
			M282.9,148.5H295c6.6,0,12-5.4,12-12v-47c0-6.6-5.4-12-12-12H96c-6.6,0-12,5.4-12,12v47c0,6.6,5.4,12,12,12h16.4"/>
	</g>
</g>
<g>
	<circle fill="#FF0055" cx="167.5" cy="112.2" r="10"/>
	<circle fill="#FF0055" cx="197.5" cy="112.2" r="10"/>
	<circle fill="#FF0055" cx="227.5" cy="112.2" r="10"/>
</g>
</svg>
