<svg id="Layer_1" data-name="Layer 1" xmlns="http://www.w3.org/2000/svg" viewBox="0 0 390.04 414.04"><defs><style>.cls-1,.cls-2{fill:none;}.cls-1{stroke:#fff;stroke-linecap:round;stroke-linejoin:round;stroke-width:3.56px;}.cls-2{stroke:#f05;stroke-miterlimit:10;stroke-width:2.52px;stroke-dasharray:2.35;}.cls-3{fill:#f05;}</style></defs><title>Artboard 1</title><path class="cls-1" d="M130.89,188.73a24.55,24.55,0,0,1,22.83-40.22,24.83,24.83,0,0,1,2.49.57"/><path class="cls-1" d="M114.7,228.22a27.05,27.05,0,0,0,12.91,52h9.47"/><path class="cls-1" d="M154.13,322.61a31,31,0,0,1-40.91-45.82"/><path class="cls-1" d="M130,235.5a27.06,27.06,0,0,1-2.58-53.5"/><path class="cls-1" d="M145.68,148.14c.35-7.84,4.3-16.74,11.07-21.8a27.06,27.06,0,0,1,42.44,15.23"/><path class="cls-1" d="M146.53,327.5a27.05,27.05,0,0,0,52.67-9.73V284.31"/><path class="cls-1" d="M147.68,170.87a27.05,27.05,0,0,0,28.09,28.67h7.29"/><line class="cls-1" x1="199.32" y1="141.57" x2="199.32" y2="218.04"/><path class="cls-1" d="M157.6,299.58A30.54,30.54,0,0,1,188.14,269"/><path class="cls-1" d="M123.14,254.07a28.28,28.28,0,0,1,28.28-28.28"/><path class="cls-1" d="M184.65,225.79a28.28,28.28,0,0,1-28.28,28.28"/><path class="cls-1" d="M267.8,188.73A24.55,24.55,0,0,0,245,148.51a24.83,24.83,0,0,0-2.49.57"/><path class="cls-1" d="M284,228.22a27.05,27.05,0,0,1-12.91,52h-9.47"/><path class="cls-1" d="M244.56,322.61a31,31,0,0,0,40.91-45.82"/><path class="cls-1" d="M268.67,235.5a27.06,27.06,0,0,0,2.58-53.5"/><path class="cls-1" d="M253,148.14c-.35-7.84-4.3-16.74-11.07-21.8a27.06,27.06,0,0,0-42.44,15.23"/><path class="cls-1" d="M252.16,327.5a27.05,27.05,0,0,1-52.67-9.73"/><path class="cls-1" d="M251,170.87a27.05,27.05,0,0,1-28.09,28.67h-7.29"/><path class="cls-1" d="M241.09,299.58A30.54,30.54,0,0,0,210.55,269"/><path class="cls-1" d="M275.55,254.07a28.28,28.28,0,0,0-28.28-28.28"/><path class="cls-1" d="M214,225.79a28.28,28.28,0,0,0,28.28,28.28"/><path class="cls-2" d="M174.43,85.61v92.6a7.12,7.12,0,0,0,7.12,7.12h0a7.12,7.12,0,0,1,7.12,7.12v14.25a7.12,7.12,0,0,1-7.12,7.12h-7.12a7.12,7.12,0,0,0-7.12,7.12v10.68a7.12,7.12,0,0,1-7.12,7.12h-7.12a7.12,7.12,0,0,0-7.12,7.12v49.86a7.12,7.12,0,0,1-7.12,7.12H60.47"/><path class="cls-2" d="M313.73,210.25H213.61a7.12,7.12,0,0,1-7.12-7.12V192.45a7.12,7.12,0,0,1,7.12-7.12h0a7.12,7.12,0,0,0,7.12-7.12V85.61"/><path class="cls-2" d="M199.36,245.87v26.71a5.34,5.34,0,0,0,5.34,5.34h0a5.34,5.34,0,0,1,5.34,5.34v21.37a5.34,5.34,0,0,0,5.34,5.34h98.34"/><circle class="cls-3" cx="199.36" cy="242.87" r="10.68"/><circle class="cls-3" cx="327.13" cy="310.07" r="10.68"/><circle class="cls-3" cx="59.13" cy="303.07" r="10.68"/><circle class="cls-3" cx="327.13" cy="210.07" r="10.68"/><circle class="cls-3" cx="174.21" cy="82.83" r="10.68"/><circle class="cls-3" cx="221.21" cy="82.83" r="10.68"/></svg>