<?xml version="1.0" encoding="utf-8"?>
<!-- Generator: Adobe Illustrator 21.1.0, SVG Export Plug-In . SVG Version: 6.00 Build 0)  -->
<!DOCTYPE svg PUBLIC "-//W3C//DTD SVG 1.1//EN" "http://www.w3.org/Graphics/SVG/1.1/DTD/svg11.dtd">
<svg version="1.1" id="Layer_1" xmlns="http://www.w3.org/2000/svg" xmlns:xlink="http://www.w3.org/1999/xlink" x="0px" y="0px"
	 viewBox="0 0 390 414" enable-background="new 0 0 390 414" xml:space="preserve">
<path fill="none" stroke="#FFFFFF" stroke-width="3.5614" stroke-linecap="round" stroke-linejoin="round" stroke-miterlimit="10" d="
	M281.5,172c-31,6.8-61.2,8-87.2,8c-26,0-56.2-1.2-87.2-8c-7.3,0-13.2,8.6-11.4,15.7c3.5,13.7,16.2,46.4,31.9,49.6l29.1,4.5
	c16.5,0,20.4-19,37.7-19.5c17.3,0.5,21.1,19.5,37.7,19.5l29.1-4.5c15.8-3.2,28.5-35.9,31.9-49.6C294.7,180.5,288.9,172,281.5,172z
	 M172.2,204.4c-2.4,7.6-14.2,12.5-26.2,11.1c-11.9-1.5-19.6-8.7-17.2-16.2c2.4-7.5,13.7-6.6,25.6-5.2
	C166.5,195.5,174.6,196.8,172.2,204.4z M242.5,215.5c-12,1.5-23.8-3.5-26.2-11.1c-2.4-7.6,5.7-9,17.8-10.3c12-1.4,23.2-2.3,25.6,5.2
	C262.1,206.8,254.4,214,242.5,215.5z"/>
<path fill="none" stroke="#FF0055" stroke-width="2.4544" stroke-miterlimit="10" stroke-dasharray="2.2875" d="M98.3,84.9h201.3
	c9.2,0,16.7,7.1,16.7,15.8v29c0,8.7-7.5,15.8-16.7,15.8H88.9c-9.2,0-16.7,7.1-16.7,15.8v29c0,8.7,7.5,15.8,16.7,15.8"/>
<path fill="none" stroke="#FF0055" stroke-width="2.4544" stroke-miterlimit="10" stroke-dasharray="2.2875" d="M291.3,328.9H88.9
	c-9.2,0-16.7-7.1-16.7-15.8v-29c0-8.7,7.5-15.8,16.7-15.8h210.7c9.2,0,16.7-7.1,16.7-15.8v-29c0-8.7-7.5-15.8-16.7-15.8"/>
<circle fill="#FF0055" cx="81" cy="85" r="10"/>
<circle fill="#FF0055" cx="309" cy="329" r="10"/>
</svg>
