<svg id="Layer_1" data-name="Layer 1" xmlns="http://www.w3.org/2000/svg" viewBox="0 0 490 138"><defs><style>.cls-1{fill:#03e8fc;}.cls-2{fill:#f9edcf;}.cls-3{fill:#fff;}.cls-4{fill:#343151;}.cls-5{fill:#f5e873;}.cls-6{fill:#f05;}</style></defs><title>BoussolePro_logo</title><polygon class="cls-1" points="29.3 30.18 69.37 52.4 109.43 30.18 87.21 70.25 109.43 110.32 69.37 88.1 29.3 110.32 51.52 70.25 29.3 30.18"/><path class="cls-2" d="M31,34.89a1.71,1.71,0,0,1-1.5-.89L27.8,31a1.71,1.71,0,0,1,2.33-2.32l3,1.66a1.71,1.71,0,0,1-.49,3.17A1.72,1.72,0,0,1,31,34.89Z"/><path class="cls-2" d="M59.56,48.67a1.65,1.65,0,0,1-.83-.21l-6.82-3.78a1.71,1.71,0,0,1,1.66-3l6.82,3.78a1.71,1.71,0,0,1,.66,2.32A1.68,1.68,0,0,1,59.56,48.67ZM45.92,41.11a1.79,1.79,0,0,1-.83-.21l-6.81-3.78a1.71,1.71,0,1,1,1.66-3l6.81,3.78a1.71,1.71,0,0,1-.83,3.2Z"/><path class="cls-2" d="M69.37,54.11a1.71,1.71,0,0,1-.83-.21l-3-1.66a1.71,1.71,0,0,1,1.66-3l2.17,1.2,2.16-1.2a1.71,1.71,0,0,1,1.66,3l-3,1.66A1.76,1.76,0,0,1,69.37,54.11Z"/><path class="cls-2" d="M79.18,48.67a1.69,1.69,0,0,1-1.5-.88,1.71,1.71,0,0,1,.66-2.32l6.82-3.78a1.71,1.71,0,1,1,1.66,3L80,48.46A1.72,1.72,0,0,1,79.18,48.67Zm13.63-7.56a1.71,1.71,0,0,1-.83-3.2l6.82-3.78a1.71,1.71,0,1,1,1.65,3L93.64,40.9A1.79,1.79,0,0,1,92.81,41.11Z"/><path class="cls-2" d="M107.77,34.89a1.69,1.69,0,0,1-.83-.22,1.72,1.72,0,0,1-.84-1.15,1.74,1.74,0,0,1-1.16-.85,1.72,1.72,0,0,1,.67-2.32l3-1.66A1.71,1.71,0,0,1,110.93,31l-1.66,3A1.71,1.71,0,0,1,107.77,34.89Z"/><path class="cls-2" d="M92.65,62.15a1.79,1.79,0,0,1-.83-.21,1.72,1.72,0,0,1-.66-2.33l3.78-6.82a1.71,1.71,0,0,1,3,1.66l-3.78,6.82A1.72,1.72,0,0,1,92.65,62.15Zm7.56-13.63A1.71,1.71,0,0,1,98.72,46l3.78-6.82a1.71,1.71,0,1,1,3,1.66l-3.78,6.82A1.72,1.72,0,0,1,100.21,48.52Z"/><path class="cls-2" d="M88.88,75a1.71,1.71,0,0,1-1.5-.88l-1.66-3a1.69,1.69,0,0,1,0-1.66l1.66-3a1.71,1.71,0,1,1,3,1.66l-1.2,2.16,1.2,2.16A1.71,1.71,0,0,1,88.88,75Z"/><path class="cls-2" d="M104,102.22a1.7,1.7,0,0,1-1.49-.88l-3.78-6.82a1.71,1.71,0,1,1,3-1.66l3.78,6.82a1.7,1.7,0,0,1-.67,2.32A1.66,1.66,0,0,1,104,102.22ZM96.43,88.58a1.68,1.68,0,0,1-1.49-.88l-3.78-6.81a1.71,1.71,0,1,1,3-1.66L97.93,86a1.71,1.71,0,0,1-.67,2.33A1.65,1.65,0,0,1,96.43,88.58Z"/><path class="cls-2" d="M109.43,112a1.66,1.66,0,0,1-.83-.22l-3-1.66a1.72,1.72,0,0,1-.67-2.32,1.74,1.74,0,0,1,1.16-.85,1.71,1.71,0,0,1,3.17-.48l1.66,3a1.71,1.71,0,0,1-.29,2A1.74,1.74,0,0,1,109.43,112Z"/><path class="cls-2" d="M99.62,106.59a1.69,1.69,0,0,1-.83-.22L92,102.59a1.71,1.71,0,1,1,1.66-3l6.81,3.78a1.71,1.71,0,0,1-.83,3.21ZM86,99a1.66,1.66,0,0,1-.83-.22L78.34,95A1.71,1.71,0,0,1,80,92l6.82,3.78A1.71,1.71,0,0,1,86,99Z"/><path class="cls-2" d="M72.36,91.47a1.64,1.64,0,0,1-.83-.22l-2.16-1.2-2.17,1.2a1.71,1.71,0,0,1-1.66-3l3-1.66a1.75,1.75,0,0,1,1.66,0l3,1.66a1.71,1.71,0,0,1-.83,3.21Z"/><path class="cls-2" d="M39.11,106.59a1.71,1.71,0,0,1-.83-3.21L45.1,99.6a1.71,1.71,0,1,1,1.65,3l-6.81,3.78A1.69,1.69,0,0,1,39.11,106.59ZM52.74,99a1.71,1.71,0,0,1-.83-3.21L58.73,92a1.71,1.71,0,0,1,1.66,3l-6.82,3.78A1.66,1.66,0,0,1,52.74,99Z"/><path class="cls-2" d="M29.3,112a1.75,1.75,0,0,1-1.21-.5,1.71,1.71,0,0,1-.29-2l1.66-3a1.71,1.71,0,0,1,2.33-.67,1.69,1.69,0,0,1,.84,1.15,1.71,1.71,0,0,1,.49,3.17l-3,1.66A1.66,1.66,0,0,1,29.3,112Z"/><path class="cls-2" d="M34.74,102.22a1.76,1.76,0,0,1-.83-.21,1.72,1.72,0,0,1-.67-2.33L37,92.86a1.71,1.71,0,0,1,3,1.66l-3.78,6.82A1.73,1.73,0,0,1,34.74,102.22ZM42.3,88.59a1.66,1.66,0,0,1-.83-.22,1.7,1.7,0,0,1-.67-2.32l3.78-6.82a1.71,1.71,0,1,1,3,1.66L43.8,87.71A1.73,1.73,0,0,1,42.3,88.59Z"/><path class="cls-2" d="M49.86,75a1.76,1.76,0,0,1-.83-.21,1.71,1.71,0,0,1-.67-2.33l1.2-2.16-1.2-2.16a1.71,1.71,0,1,1,3-1.66l1.66,3a1.69,1.69,0,0,1,0,1.66l-1.66,3A1.7,1.7,0,0,1,49.86,75Z"/><path class="cls-2" d="M46.08,62.15a1.71,1.71,0,0,1-1.5-.88L40.8,54.46a1.73,1.73,0,0,1,.67-2.33,1.71,1.71,0,0,1,2.33.67l3.78,6.81a1.72,1.72,0,0,1-.67,2.33A1.76,1.76,0,0,1,46.08,62.15ZM38.52,48.52a1.72,1.72,0,0,1-1.5-.88l-3.78-6.82a1.71,1.71,0,0,1,3-1.66L40,46a1.73,1.73,0,0,1-.67,2.33A1.76,1.76,0,0,1,38.52,48.52Z"/><polygon class="cls-3" points="69.37 13.59 81.99 57.63 126.03 70.25 81.99 82.87 69.37 126.91 56.74 82.87 12.7 70.25 56.74 57.63 69.37 13.59"/><path class="cls-2" d="M69.37,128.62a1.7,1.7,0,0,1-1.65-1.24L55.36,84.25,12.23,71.89a1.7,1.7,0,0,1,0-3.28L55.36,56.25,67.72,13.12a1.71,1.71,0,0,1,3.29,0L83.37,56.25,126.5,68.61a1.7,1.7,0,0,1,0,3.28L83.37,84.25,71,127.38A1.7,1.7,0,0,1,69.37,128.62Z"/><path class="cls-4" d="M18.91,70.25l38.31,11a1.7,1.7,0,0,1,1.17,1.17l11,38.3,11-38.3a1.7,1.7,0,0,1,1.17-1.17l38.31-11-38.31-11a1.7,1.7,0,0,1-1.17-1.17l-11-38.3-11,38.3a1.7,1.7,0,0,1-1.17,1.17Z"/><path class="cls-5" d="M95,72H43.71a1.71,1.71,0,0,1,0-3.42H95A1.71,1.71,0,1,1,95,72Z"/><path class="cls-5" d="M69.37,97.61a1.7,1.7,0,0,1-1.71-1.71V44.6a1.71,1.71,0,1,1,3.42,0V95.9A1.71,1.71,0,0,1,69.37,97.61Z"/><circle class="cls-6" cx="69.79" cy="69.82" r="6.84"/><path class="cls-2" d="M69.79,78.37a8.55,8.55,0,1,1,8.55-8.55A8.56,8.56,0,0,1,69.79,78.37Zm0-13.68a5.13,5.13,0,1,0,5.13,5.13A5.13,5.13,0,0,0,69.79,64.69Z"/><path class="cls-2" d="M173.28,78.5a6.22,6.22,0,0,1-.78,3.2,6.31,6.31,0,0,1-2.13,2.2,10.05,10.05,0,0,1-3.16,1.26,17.48,17.48,0,0,1-3.82.4H149.85V58h16a5.37,5.37,0,0,1,2.6.62,6.59,6.59,0,0,1,2,1.61,7.51,7.51,0,0,1,1.26,2.25,7.84,7.84,0,0,1,.44,2.57,7.48,7.48,0,0,1-1,3.71,6.26,6.26,0,0,1-3,2.66,6.71,6.71,0,0,1,5.12,7Zm-15.87-14v4.23h5.16a2.54,2.54,0,0,0,1.42-.42,2,2,0,0,0,.64-1.71,2,2,0,0,0-.55-1.61,1.88,1.88,0,0,0-1.28-.49ZM165.6,77a2.55,2.55,0,0,0-.55-1.68,1.67,1.67,0,0,0-1.39-.68h-6.25V79.2h6a2.24,2.24,0,0,0,1.57-.58A2.16,2.16,0,0,0,165.6,77Z"/><path class="cls-2" d="M196.78,85.8a13.15,13.15,0,0,1-5.7-1.21,13.9,13.9,0,0,1-4.38-3.16A14.14,14.14,0,0,1,183.87,77a13.78,13.78,0,0,1,0-10.43,14,14,0,0,1,2.93-4.44A14.48,14.48,0,0,1,191.29,59a13.81,13.81,0,0,1,5.65-1.14,13.29,13.29,0,0,1,5.7,1.2A14.07,14.07,0,0,1,207,62.25a14.22,14.22,0,0,1,2.81,4.5,14,14,0,0,1,1,5.16,13.54,13.54,0,0,1-1,5.22,14.15,14.15,0,0,1-2.91,4.42,14.34,14.34,0,0,1-4.45,3.08A13.5,13.5,0,0,1,196.78,85.8Zm-6.24-14a9.37,9.37,0,0,0,.38,2.7,7.09,7.09,0,0,0,1.17,2.31,5.9,5.9,0,0,0,2,1.63,6.63,6.63,0,0,0,5.64,0,5.91,5.91,0,0,0,2-1.67,7.2,7.2,0,0,0,1.12-2.35,9.72,9.72,0,0,0,.37-2.67,9.33,9.33,0,0,0-.39-2.7,6.64,6.64,0,0,0-1.18-2.29,6,6,0,0,0-2-1.59,6.69,6.69,0,0,0-5.58,0,5.82,5.82,0,0,0-2,1.65,6.76,6.76,0,0,0-1.14,2.33A9.48,9.48,0,0,0,190.54,71.83Z"/><path class="cls-2" d="M233.82,79.09a4.14,4.14,0,0,0,2.25-.59A4.51,4.51,0,0,0,237.58,77a6.91,6.91,0,0,0,.86-2.19,12.19,12.19,0,0,0,.27-2.6V58h7.56V72.18a18.54,18.54,0,0,1-.74,5.37,11.73,11.73,0,0,1-2.28,4.33,10.88,10.88,0,0,1-3.9,2.87,13.47,13.47,0,0,1-5.53,1,13.07,13.07,0,0,1-5.64-1.11,10.74,10.74,0,0,1-3.86-3,11.81,11.81,0,0,1-2.21-4.32,18.86,18.86,0,0,1-.7-5.22V58H229V72.18a12.45,12.45,0,0,0,.27,2.62A6.94,6.94,0,0,0,230.1,77a4.31,4.31,0,0,0,1.49,1.51A4.13,4.13,0,0,0,233.82,79.09Z"/><path class="cls-2" d="M275.05,67a21.3,21.3,0,0,0-4.75-2.11,8.52,8.52,0,0,0-2.54-.41,3.63,3.63,0,0,0-1.61.31,1.09,1.09,0,0,0-.6,1,1.18,1.18,0,0,0,.35.89,3.26,3.26,0,0,0,1,.64,13.08,13.08,0,0,0,1.6.57c.64.18,1.36.4,2.16.65a29.18,29.18,0,0,1,3.43,1.28,11.06,11.06,0,0,1,2.62,1.65,6.53,6.53,0,0,1,1.67,2.31,8.55,8.55,0,0,1,.58,3.3,8.8,8.8,0,0,1-.91,4.17A7.47,7.47,0,0,1,275.65,84a10,10,0,0,1-3.37,1.46,16.81,16.81,0,0,1-3.78.44,20.82,20.82,0,0,1-3.11-.23,25,25,0,0,1-3.16-.66,26.08,26.08,0,0,1-3-1,17.81,17.81,0,0,1-2.7-1.32l3.26-6.63a22.54,22.54,0,0,0,2.83,1.51,20.2,20.2,0,0,0,2.81,1.05,11.27,11.27,0,0,0,3.2.47,3.28,3.28,0,0,0,1.73-.33,1,1,0,0,0,.48-.88,1.24,1.24,0,0,0-.48-1,4.19,4.19,0,0,0-1.34-.72c-.57-.21-1.22-.41-2-.62s-1.52-.45-2.35-.74a20,20,0,0,1-3.14-1.34,8.5,8.5,0,0,1-2.17-1.63,5.74,5.74,0,0,1-1.26-2.07,8.16,8.16,0,0,1-.41-2.68,9.19,9.19,0,0,1,.84-4,8.17,8.17,0,0,1,2.27-2.91,10.13,10.13,0,0,1,3.27-1.77,12.53,12.53,0,0,1,3.9-.6,15.13,15.13,0,0,1,2.95.29,23.91,23.91,0,0,1,2.77.74,26.63,26.63,0,0,1,2.5,1q1.17.52,2.1,1Z"/><path class="cls-2" d="M306.74,67a21.92,21.92,0,0,0-2.41-1.24,21.45,21.45,0,0,0-2.34-.87,8.58,8.58,0,0,0-2.54-.41,3.6,3.6,0,0,0-1.61.31,1.09,1.09,0,0,0-.6,1,1.21,1.21,0,0,0,.34.89,3.38,3.38,0,0,0,1,.64,13.28,13.28,0,0,0,1.61.57c.64.18,1.35.4,2.15.65a29.37,29.37,0,0,1,3.44,1.28,11.06,11.06,0,0,1,2.62,1.65,6.38,6.38,0,0,1,1.66,2.31,8.36,8.36,0,0,1,.59,3.3,8.69,8.69,0,0,1-.92,4.17,7.44,7.44,0,0,1-2.4,2.69A10.08,10.08,0,0,1,304,85.47a16.68,16.68,0,0,1-3.78.44,20.69,20.69,0,0,1-3.1-.23,25,25,0,0,1-3.16-.66,26.25,26.25,0,0,1-3-1,17.24,17.24,0,0,1-2.69-1.32l3.26-6.63a21.87,21.87,0,0,0,2.83,1.51,19.28,19.28,0,0,0,2.81,1.05,11.22,11.22,0,0,0,3.2.47,3.28,3.28,0,0,0,1.73-.33,1,1,0,0,0,.48-.88,1.24,1.24,0,0,0-.48-1,4.19,4.19,0,0,0-1.34-.72c-.57-.21-1.22-.41-2-.62s-1.52-.45-2.35-.74a20,20,0,0,1-3.14-1.34,8.5,8.5,0,0,1-2.17-1.63,5.74,5.74,0,0,1-1.26-2.07,8.16,8.16,0,0,1-.41-2.68,9.33,9.33,0,0,1,.83-4,8.4,8.4,0,0,1,2.27-2.91,10.29,10.29,0,0,1,3.28-1.77,12.53,12.53,0,0,1,3.9-.6,15.13,15.13,0,0,1,2.95.29,24.46,24.46,0,0,1,2.77.74,26.63,26.63,0,0,1,2.5,1q1.17.52,2.1,1Z"/><path class="cls-2" d="M334.16,85.8a13.15,13.15,0,0,1-5.7-1.21,13.9,13.9,0,0,1-4.38-3.16A14.34,14.34,0,0,1,321.24,77a13.89,13.89,0,0,1-1-5.19,13.5,13.5,0,0,1,1-5.24,14,14,0,0,1,2.93-4.44A14.48,14.48,0,0,1,328.67,59a13.81,13.81,0,0,1,5.65-1.14,13.29,13.29,0,0,1,5.7,1.2,14.19,14.19,0,0,1,4.38,3.18,14.4,14.4,0,0,1,2.81,4.5,14,14,0,0,1,1,5.16,13.37,13.37,0,0,1-1.05,5.22,14.12,14.12,0,0,1-2.9,4.42,14.34,14.34,0,0,1-4.45,3.08A13.5,13.5,0,0,1,334.16,85.8Zm-6.24-14a9.37,9.37,0,0,0,.38,2.7,7.09,7.09,0,0,0,1.17,2.31,5.9,5.9,0,0,0,2,1.63,6.63,6.63,0,0,0,5.64,0,5.91,5.91,0,0,0,2-1.67,7.2,7.2,0,0,0,1.12-2.35,9.72,9.72,0,0,0,.37-2.67,9.33,9.33,0,0,0-.39-2.7A6.64,6.64,0,0,0,339,66.77a6,6,0,0,0-2-1.59,6.69,6.69,0,0,0-5.58,0,5.73,5.73,0,0,0-2,1.65,7,7,0,0,0-1.15,2.33A9.85,9.85,0,0,0,327.92,71.83Z"/><path class="cls-2" d="M359.18,85.56V58h7.56V79h12.49v6.59Z"/><path class="cls-2" d="M409.25,79v6.59H389.62V58H408.9v6.59H397.19V68.5h10v6.13h-10V79Z"/><path class="cls-6" d="M437.31,57.93a4.22,4.22,0,0,1-2.22-.57,3.86,3.86,0,0,1-1.47-1.53v6.26h-2.75V47h2.4v1.84a4.28,4.28,0,0,1,1.54-1.48,4.19,4.19,0,0,1,2.17-.55,4.62,4.62,0,0,1,2,.44,5,5,0,0,1,1.59,1.19,5.4,5.4,0,0,1,1.05,1.77,6.14,6.14,0,0,1,.38,2.14,6.85,6.85,0,0,1-.35,2.2,5.82,5.82,0,0,1-1,1.79,4.75,4.75,0,0,1-1.49,1.19A4.27,4.27,0,0,1,437.31,57.93Zm-.92-2.34a2.46,2.46,0,0,0,1.14-.27,2.83,2.83,0,0,0,.89-.72,3.18,3.18,0,0,0,.57-1,3.71,3.71,0,0,0,.21-1.24,3.48,3.48,0,0,0-.23-1.26,3.12,3.12,0,0,0-.62-1,2.91,2.91,0,0,0-1-.68,2.71,2.71,0,0,0-1.18-.25,2.59,2.59,0,0,0-.8.14,2.85,2.85,0,0,0-.76.38,3,3,0,0,0-.62.57,2.19,2.19,0,0,0-.42.72v2.52A3.53,3.53,0,0,0,434.75,55,2.53,2.53,0,0,0,436.39,55.59Z"/><path class="cls-6" d="M450.28,49.35a5.37,5.37,0,0,0-2.24.48,2.81,2.81,0,0,0-1.41,1.39v6.5h-2.75V47h2.52v2.3a5,5,0,0,1,.68-1,5.52,5.52,0,0,1,.84-.77,3.74,3.74,0,0,1,.91-.5,2.49,2.49,0,0,1,.9-.18h.33l.22,0Z"/><path class="cls-6" d="M456.25,57.93a6,6,0,0,1-2.36-.45,5.36,5.36,0,0,1-2.89-3,6,6,0,0,1,0-4.25,5.36,5.36,0,0,1,2.89-3,6,6,0,0,1,2.36-.45,5.83,5.83,0,0,1,2.35.45,5.36,5.36,0,0,1,2.89,3,6,6,0,0,1,0,4.25,5.41,5.41,0,0,1-1.11,1.77,5.25,5.25,0,0,1-1.77,1.23A5.88,5.88,0,0,1,456.25,57.93Zm-2.81-5.56a3.62,3.62,0,0,0,.22,1.3,3.06,3.06,0,0,0,.59,1,2.75,2.75,0,0,0,.89.67,2.64,2.64,0,0,0,1.11.24,2.57,2.57,0,0,0,1.11-.24,2.65,2.65,0,0,0,.89-.67,2.87,2.87,0,0,0,.6-1,4,4,0,0,0,.21-1.31,3.9,3.9,0,0,0-.21-1.3,3,3,0,0,0-.6-1,2.65,2.65,0,0,0-.89-.67,2.57,2.57,0,0,0-1.11-.24,2.5,2.5,0,0,0-1.11.25,2.78,2.78,0,0,0-.89.68,3.11,3.11,0,0,0-.59,1A3.66,3.66,0,0,0,453.44,52.37Z"/></svg>