<svg id="Layer_1" data-name="Layer 1" xmlns="http://www.w3.org/2000/svg" xmlns:xlink="http://www.w3.org/1999/xlink" viewBox="0 0 116.48 116.48"><defs><style>.cls-1{fill:#fff;}.cls-2{fill:#3dadad;}.cls-3{fill:#f9edcf;}.cls-4{mask:url(#mask);}.cls-5{fill:#d17838;}.cls-6{fill:#2d936c;}</style><mask id="mask" x="-0.03" y="-1.4" width="113.23" height="118.63" maskUnits="userSpaceOnUse"><circle class="cls-1" cx="58.33" cy="58.22" r="52.84"/></mask></defs><title>collective</title><circle class="cls-2" cx="58.33" cy="58.22" r="55.34"/><path class="cls-3" d="M58.33,5.38A52.85,52.85,0,1,1,5.48,58.22,52.84,52.84,0,0,1,58.33,5.38m0-5a57.85,57.85,0,1,0,57.84,57.84A57.91,57.91,0,0,0,58.33.38Z"/><g class="cls-4"><path class="cls-5" d="M34.3,52.87a8.55,8.55,0,1,1,5.54-16.18l.29-1.54a7,7,0,0,1,8.57-8.74l.09,0a5.73,5.73,0,0,1,4,5.54l9,.49V31.29h0a5,5,0,0,1,2-4.11L64,27a7,7,0,0,1,10.15,4.6,7,7,0,0,1-.75,5l-.18-.1A8.55,8.55,0,1,1,82.4,51l1.3-.63a8.55,8.55,0,1,1,0,17.1l-3.53-3.75a8.55,8.55,0,1,1-5.53,16.18l-.3,1.54a7,7,0,0,1-8.57,8.74l-.09,0a5.73,5.73,0,0,1-4-5.54l-9,.69a5,5,0,0,1-2,4.11,2.09,2.09,0,0,1-.28.17,7,7,0,0,1-9.4-9.6l.18.1a8.55,8.55,0,0,1-9.16-14.45l-1.3.64a8.56,8.56,0,0,1,0-17.11"/><rect class="cls-3" x="52.75" y="29.98" width="7.42" height="4"/><rect class="cls-3" x="52.75" y="83.25" width="9.17" height="4"/><rect class="cls-3" x="13.03" y="69" width="15.19" height="3" transform="translate(-43.81 35.24) rotate(-45)"/><rect class="cls-3" x="38.93" y="13.98" width="3" height="14.76" transform="translate(-3.26 34.84) rotate(-45)"/><rect class="cls-3" x="76.99" y="86.01" width="3" height="14.76" transform="translate(-43.05 82.86) rotate(-45)"/><rect class="cls-3" x="86.25" y="40.81" width="11.18" height="3"/><rect class="cls-3" x="45.21" y="90.37" width="3" height="8.84"/><rect class="cls-3" x="69.16" y="22.28" width="8.9" height="3" transform="translate(4.75 59.01) rotate(-45)"/><rect class="cls-3" x="14.41" y="40.51" width="14.57" height="3"/><rect class="cls-3" x="85.5" y="73.03" width="14.12" height="3"/><path class="cls-3" d="M30.77,67.76a10.06,10.06,0,0,1,0-20.11v3a7.06,7.06,0,0,0,0,14.11Z"/><circle class="cls-6" cx="46.71" cy="106.25" r="5.42"/><path class="cls-3" d="M46.71,113.17a6.92,6.92,0,1,1,6.91-6.92A6.93,6.93,0,0,1,46.71,113.17Zm0-10.83a3.92,3.92,0,1,0,3.91,3.91A3.92,3.92,0,0,0,46.71,102.34Z"/><circle class="cls-6" cx="81.27" cy="16.11" r="5.42"/><path class="cls-3" d="M81.27,23a6.92,6.92,0,1,1,6.92-6.92A6.92,6.92,0,0,1,81.27,23Zm0-10.83a3.92,3.92,0,1,0,3.92,3.91A3.91,3.91,0,0,0,81.27,12.2Z"/><circle class="cls-6" cx="103.62" cy="42.31" r="8.08"/><path class="cls-3" d="M103.62,51.88a9.58,9.58,0,1,1,9.58-9.57A9.59,9.59,0,0,1,103.62,51.88Zm0-16.15a6.58,6.58,0,1,0,6.58,6.58A6.59,6.59,0,0,0,103.62,35.73Z"/><circle class="cls-6" cx="9.55" cy="81.58" r="8.08"/><path class="cls-3" d="M9.55,91.16a9.58,9.58,0,1,1,9.57-9.58A9.59,9.59,0,0,1,9.55,91.16ZM9.55,75a6.58,6.58,0,1,0,6.57,6.57A6.58,6.58,0,0,0,9.55,75Z"/><path class="cls-3" d="M52.75,61.66a1.51,1.51,0,0,1-1.5-1.5V32a4.22,4.22,0,0,0-2.89-4.1,5.55,5.55,0,0,0-6.14,2.27,5.48,5.48,0,0,0-.65,4.57,1.56,1.56,0,0,1,0,.71L41.31,37a1.5,1.5,0,0,1-2,1.13,7.07,7.07,0,0,0-9,4.39,7.06,7.06,0,0,0,4.39,9,1.5,1.5,0,0,1-1,2.84,10.05,10.05,0,0,1,4.69-19.46A8.48,8.48,0,0,1,49.11,25l.12,0a7.24,7.24,0,0,1,5,7V60.16A1.5,1.5,0,0,1,52.75,61.66Z"/><path class="cls-3" d="M47.09,91.92h-.46a8.45,8.45,0,0,1-7.79-6.61,8.78,8.78,0,0,1-.18-2.6,10.13,10.13,0,0,1-4.21,0,10.05,10.05,0,0,1-3.18-18.3,1.5,1.5,0,1,1,1.61,2.53,7.05,7.05,0,0,0,2.23,12.84,6.94,6.94,0,0,0,4.68-.57,1.49,1.49,0,0,1,2-.49l.18.1a1.5,1.5,0,0,1,.07,2.55,5.59,5.59,0,0,0-.28,3.34,5.49,5.49,0,0,0,5,4.25,5.56,5.56,0,0,0,3-.65l.12-.08a3.52,3.52,0,0,0,1.39-2.89V73.1a4.58,4.58,0,0,0-4.57-4.58,1.5,1.5,0,1,1,0-3,7.58,7.58,0,0,1,7.57,7.58V85.29a6.5,6.5,0,0,1-2.65,5.33,3.39,3.39,0,0,1-.43.27A8.49,8.49,0,0,1,47.09,91.92Z"/><path class="cls-3" d="M44.74,53.45H44a1.5,1.5,0,0,1,0-3h.73a6.52,6.52,0,0,0,6.51-6.51,1.5,1.5,0,0,1,3,0A9.51,9.51,0,0,1,44.74,53.45Z"/><path class="cls-3" d="M83.7,69V66a7.05,7.05,0,1,0,0-14.1v-3a10.05,10.05,0,1,1,0,20.1Z"/><path class="cls-3" d="M67.65,91.93a8.61,8.61,0,0,1-2.29-.32l-.13,0a7.25,7.25,0,0,1-5-7V56.46a1.5,1.5,0,0,1,3,0V84.6a4.24,4.24,0,0,0,2.89,4.1,5.55,5.55,0,0,0,6.14-2.27,5.44,5.44,0,0,0,.65-4.57,1.46,1.46,0,0,1,0-.72l.29-1.53a1.52,1.52,0,0,1,.72-1,1.54,1.54,0,0,1,1.24-.12,7.05,7.05,0,0,0,8.62-9.77,7,7,0,0,0-4-3.57,1.5,1.5,0,1,1,1-2.84A10.05,10.05,0,0,1,76,81.75,8.59,8.59,0,0,1,74.78,88,8.5,8.5,0,0,1,67.65,91.93Z"/><path class="cls-3" d="M82.4,52.49a1.49,1.49,0,0,1-.8-2.76,7.06,7.06,0,0,0-6.91-12.28,1.49,1.49,0,0,1-.88.65A1.52,1.52,0,0,1,72.67,38l-.17-.1a1.5,1.5,0,0,1-.08-2.56,5.48,5.48,0,0,0-4.73-7.59,5.62,5.62,0,0,0-3,.66l-.14.09a3.5,3.5,0,0,0-1.38,2.88V43.52a4.58,4.58,0,0,0,4.57,4.57,1.5,1.5,0,0,1,0,3,7.58,7.58,0,0,1-7.57-7.57V31.33A6.5,6.5,0,0,1,62.87,26a4.78,4.78,0,0,1,.43-.27,8.47,8.47,0,0,1,12.51,8.19A10.13,10.13,0,0,1,80,34a10.05,10.05,0,0,1,3.18,18.3A1.46,1.46,0,0,1,82.4,52.49Z"/><path class="cls-3" d="M61.72,74.18a1.5,1.5,0,0,1-1.5-1.5,9.53,9.53,0,0,1,9.51-9.52h.73a1.5,1.5,0,1,1,0,3h-.73a6.53,6.53,0,0,0-6.51,6.52A1.5,1.5,0,0,1,61.72,74.18Z"/><circle class="cls-6" cx="13.11" cy="42.01" r="5.42"/><path class="cls-3" d="M13.11,48.93A6.92,6.92,0,1,1,20,42,6.93,6.93,0,0,1,13.11,48.93Zm0-10.84A3.92,3.92,0,1,0,17,42,3.93,3.93,0,0,0,13.11,38.09Z"/><circle class="cls-6" cx="103.62" cy="74.53" r="5.42"/><path class="cls-3" d="M103.62,81.44a6.92,6.92,0,1,1,6.91-6.91A6.93,6.93,0,0,1,103.62,81.44Zm0-10.83a3.92,3.92,0,1,0,3.91,3.92A3.93,3.93,0,0,0,103.62,70.61Z"/><circle class="cls-6" cx="29.77" cy="10.7" r="10.6"/><path class="cls-3" d="M29.77,22.8a12.1,12.1,0,1,1,12.1-12.1A12.11,12.11,0,0,1,29.77,22.8Zm0-21.2a9.1,9.1,0,1,0,9.1,9.1A9.11,9.11,0,0,0,29.77,1.6Z"/><circle class="cls-6" cx="90.23" cy="105.13" r="10.6"/><path class="cls-3" d="M90.23,117.23a12.1,12.1,0,1,1,12.1-12.1A12.12,12.12,0,0,1,90.23,117.23Zm0-21.2a9.1,9.1,0,1,0,9.1,9.1A9.11,9.11,0,0,0,90.23,96Z"/></g></svg>