<svg id="Layer_1" data-name="Layer 1" xmlns="http://www.w3.org/2000/svg" xmlns:xlink="http://www.w3.org/1999/xlink" viewBox="0 0 116.48 116.48"><defs><style>.cls-1{fill:#fff;}.cls-2{fill:#3dadad;}.cls-3{fill:#f9edcf;}.cls-4{fill:#2d936c;}.cls-5{fill:#343151;}.cls-6{mask:url(#mask);}.cls-7{fill:#d17838;}</style><mask id="mask" x="27.3" y="33.35" width="55.81" height="55.28" maskUnits="userSpaceOnUse"><circle class="cls-1" cx="57.59" cy="58.87" r="25.52"/></mask></defs><title>force</title><circle class="cls-2" cx="58.25" cy="58.25" r="55.34"/><path class="cls-3" d="M58.25,5.4A52.85,52.85,0,1,1,5.41,58.25,52.85,52.85,0,0,1,58.25,5.4m0-5a57.85,57.85,0,1,0,57.84,57.85A57.91,57.91,0,0,0,58.25.4Z"/><circle class="cls-4" cx="57.69" cy="58.87" r="36.47"/><path class="cls-5" d="M57.69,96.84a38,38,0,1,1,38-38A38,38,0,0,1,57.69,96.84Zm0-72.93a35,35,0,1,0,35,35A35,35,0,0,0,57.69,23.91Z"/><circle class="cls-5" cx="57.59" cy="58.87" r="25.52"/><g class="cls-6"><polygon class="cls-7" points="71.96 66.22 62.76 75.42 53.63 75.28 42.4 86.51 29.43 73.54 41.55 61.41 46.24 52.05 51.87 47.36 58.81 48.59 71.96 66.22"/><path class="cls-3" d="M42.4,88.63,27.3,73.54l13-13L45,51.1l6.4-5.34,8.22,1.46L73.94,66.37,63.37,76.93l-9.13-.14ZM31.55,73.54,42.4,84.39,53,73.77l9.14.14L70,66.08,58,50l-5.68-1-4.85,4-4.65,9.3Z"/><path class="cls-7" d="M67.78,68.38a2.66,2.66,0,0,0,2.7-.68l3-3a3.48,3.48,0,0,0,.18-5A6.41,6.41,0,0,0,73,59.3a3.54,3.54,0,0,0-4.61.49l-2.86,2.86a2.7,2.7,0,0,0-.6,2.92A4.63,4.63,0,0,0,67.78,68.38Z"/><path class="cls-3" d="M68.58,70a4.2,4.2,0,0,1-1.26-.2,6,6,0,0,1-3.75-3.68,4.19,4.19,0,0,1,.93-4.54l2.86-2.86a5.06,5.06,0,0,1,6.58-.63,9,9,0,0,1,.69.59A4.54,4.54,0,0,1,76.07,62a5.32,5.32,0,0,1-1.58,3.82l-2.95,3A4.2,4.2,0,0,1,68.58,70Zm2.5-9.86a2.29,2.29,0,0,0-1.6.7l-2.86,2.86a1.21,1.21,0,0,0-.27,1.3A3.13,3.13,0,0,0,68.24,67h0a1.2,1.2,0,0,0,1.18-.32l3-3a2.33,2.33,0,0,0,.7-1.65,1.61,1.61,0,0,0-.49-1.16q-.22-.21-.45-.39A1.8,1.8,0,0,0,71.08,60.15Z"/><path class="cls-7" d="M62.78,63.41a2.53,2.53,0,0,0,2.61-.6L72,56.25A3.39,3.39,0,0,0,72,51.4l-.57-.48a3.41,3.41,0,0,0-4.49.37l-6.48,6.47A2.58,2.58,0,0,0,60,60.6,4.81,4.81,0,0,0,62.78,63.41Z"/><path class="cls-3" d="M63.6,65.05a4,4,0,0,1-1.31-.22h0a6.25,6.25,0,0,1-3.71-3.64,4.08,4.08,0,0,1,.83-4.49l6.48-6.47a4.92,4.92,0,0,1,6.46-.5,8.85,8.85,0,0,1,.69.58,4.67,4.67,0,0,1,1.46,3.36A5,5,0,0,1,73,57.31l-6.56,6.56A4.05,4.05,0,0,1,63.6,65.05Zm5.84-13.3a2,2,0,0,0-1.43.6l-6.47,6.47a1.08,1.08,0,0,0-.2,1.19,3.29,3.29,0,0,0,1.93,2h0a1,1,0,0,0,1.06-.24l6.57-6.56a2.05,2.05,0,0,0,.6-1.48A1.65,1.65,0,0,0,71,52.5a5.58,5.58,0,0,0-.46-.39A1.71,1.71,0,0,0,69.44,51.75Z"/><path class="cls-7" d="M57.79,58.42a2.52,2.52,0,0,0,2.62-.59L67,51.27a3.38,3.38,0,0,0,0-4.85,6.44,6.44,0,0,0-.57-.49A3.43,3.43,0,0,0,62,46.3l-6.47,6.47A2.58,2.58,0,0,0,55,55.61,4.83,4.83,0,0,0,57.79,58.42Z"/><path class="cls-3" d="M58.61,60.06a4,4,0,0,1-1.31-.22h0a6.25,6.25,0,0,1-3.71-3.64,4.07,4.07,0,0,1,.84-4.49l6.47-6.47a4.93,4.93,0,0,1,6.46-.5,7.56,7.56,0,0,1,.69.58,4.65,4.65,0,0,1,1.47,3.36A5.09,5.09,0,0,1,68,52.33l-6.56,6.56A4,4,0,0,1,58.61,60.06Zm5.84-13.3a2,2,0,0,0-1.43.6l-6.47,6.47a1.09,1.09,0,0,0-.2,1.2,3.37,3.37,0,0,0,1.93,2h0a1.05,1.05,0,0,0,1.07-.24l6.56-6.56a2.1,2.1,0,0,0,.61-1.48A1.69,1.69,0,0,0,66,47.51c-.15-.14-.31-.27-.46-.39A1.8,1.8,0,0,0,64.45,46.76Z"/><path class="cls-7" d="M52.82,53.42a2.66,2.66,0,0,0,2.7-.68l4.18-4.18a3.48,3.48,0,0,0,.18-5c-.19-.17-.38-.33-.58-.48a3.54,3.54,0,0,0-4.61.49L50.6,47.69a2.71,2.71,0,0,0-.6,2.92A4.63,4.63,0,0,0,52.82,53.42Z"/><path class="cls-3" d="M53.62,55.05a4.2,4.2,0,0,1-1.26-.2h0a6,6,0,0,1-3.75-3.68,4.18,4.18,0,0,1,.93-4.54l4.09-4.09a5.06,5.06,0,0,1,6.58-.63c.23.18.47.38.69.59a4.54,4.54,0,0,1,1.44,3.3,5.32,5.32,0,0,1-1.58,3.82l-4.18,4.19A4.23,4.23,0,0,1,53.62,55.05Zm-.34-3a1.2,1.2,0,0,0,1.18-.32l4.18-4.18a2.33,2.33,0,0,0,.7-1.65,1.61,1.61,0,0,0-.49-1.16,5.58,5.58,0,0,0-.46-.39,2.05,2.05,0,0,0-2.64.36l-4.09,4.09a1.21,1.21,0,0,0-.27,1.3,3.13,3.13,0,0,0,1.89,2Z"/><path class="cls-7" d="M42.26,63.88l-1.59-6.26,3.69-7.69,6.51-3,12.3,8.28S59,60.79,54.33,58.59l-3.85-2.86v-3"/><path class="cls-3" d="M40.8,64.25l-1.72-6.79,4.16-8.67L51,45.24l14.31,9.63-.94,1.26c-.2.27-5,6.51-10.69,3.82l-.25-.16L49,56.48l0-3.78h3V55l3.12,2.31c2.29,1,4.52-.58,5.8-1.79L50.73,48.66l-5.26,2.41-3.21,6.71,1.45,5.73Z"/></g><circle class="cls-3" cx="34.38" cy="34.12" r="11.25"/></svg>