<svg id="Layer_1" data-name="Layer 1" xmlns="http://www.w3.org/2000/svg" viewBox="0 0 120.66 124.18"><defs><style>.cls-1{fill:#d17838;}.cls-2{fill:#f9edcf;}.cls-3{fill:#2d936c;}.cls-4{fill:#5fad41;}</style></defs><title>Icon_cards</title><rect class="cls-1" x="10.65" y="38.08" width="52.3" height="76.64" rx="9.41"/><path class="cls-2" d="M53.54,117.22H20.05a11.92,11.92,0,0,1-11.9-11.91V47.49a11.92,11.92,0,0,1,11.9-11.91H53.54a11.92,11.92,0,0,1,11.9,11.91v57.82A11.92,11.92,0,0,1,53.54,117.22ZM20.05,40.58a6.91,6.91,0,0,0-6.9,6.91v57.82a6.91,6.91,0,0,0,6.9,6.91H53.54a6.92,6.92,0,0,0,6.9-6.91V47.49a6.92,6.92,0,0,0-6.9-6.91Z"/><rect class="cls-3" x="33.95" y="23.67" width="52.3" height="76.64" rx="9.41"/><path class="cls-2" d="M76.84,102.81H43.35A11.92,11.92,0,0,1,31.45,90.9V33.08a11.92,11.92,0,0,1,11.9-11.91H76.84a11.92,11.92,0,0,1,11.9,11.91V90.9A11.92,11.92,0,0,1,76.84,102.81ZM43.35,26.17a6.91,6.91,0,0,0-6.9,6.91V90.9a6.91,6.91,0,0,0,6.9,6.91H76.84a6.92,6.92,0,0,0,6.9-6.91V33.08a6.92,6.92,0,0,0-6.9-6.91Z"/><rect class="cls-4" x="57.25" y="9.26" width="52.3" height="76.64" rx="9.41"/><path class="cls-2" d="M100.14,88.4H66.65a11.92,11.92,0,0,1-11.9-11.9V18.67A11.92,11.92,0,0,1,66.65,6.76h33.49A11.92,11.92,0,0,1,112,18.67V76.5A11.92,11.92,0,0,1,100.14,88.4ZM66.65,11.76a6.91,6.91,0,0,0-6.9,6.91V76.5a6.91,6.91,0,0,0,6.9,6.9h33.49a6.91,6.91,0,0,0,6.9-6.9V18.67a6.92,6.92,0,0,0-6.9-6.91Z"/></svg>