<svg id="Layer_1" data-name="Layer 1" xmlns="http://www.w3.org/2000/svg" viewBox="0 0 120.66 124.18"><defs><style>.cls-1{fill:#bf4f24;}.cls-2{fill:#f9edcf;}</style></defs><title>Icon_Question</title><rect class="cls-1" x="3.81" y="26.61" width="112.75" height="70.76" rx="10.67"/><path class="cls-2" d="M105.89,99.87H14.48A13.19,13.19,0,0,1,1.31,86.7V37.28A13.19,13.19,0,0,1,14.48,24.11h91.41a13.19,13.19,0,0,1,13.17,13.17V86.7A13.19,13.19,0,0,1,105.89,99.87ZM14.48,29.11a8.17,8.17,0,0,0-8.17,8.17V86.7a8.18,8.18,0,0,0,8.17,8.17h91.41a8.19,8.19,0,0,0,8.17-8.17V37.28a8.18,8.18,0,0,0-8.17-8.17Z"/><path class="cls-2" d="M27.58,66.22c0-2.88,2-5.43,4.05-7.51C33.28,57.11,35,55.4,35,53a4.76,4.76,0,0,0-5-5,6.89,6.89,0,0,0-5.44,2.82,2.9,2.9,0,0,1-2.34,1.28,2.45,2.45,0,0,1-2.4-2.5,4.18,4.18,0,0,1,1-2.56,11.7,11.7,0,0,1,9.7-4.48c6.66,0,10.55,4.53,10.55,9.91,0,4.27-2.5,6.66-4.63,8.58-2.62,2.4-3.63,3.73-4.21,5.65-.43,1.12-.91,2.13-2.4,2.13S27.58,67.77,27.58,66.22Zm-1.23,9.7a3.76,3.76,0,1,1,3.73,3.78A3.79,3.79,0,0,1,26.35,75.92Z"/><path class="cls-2" d="M30.08,80.7a4.82,4.82,0,0,1-4.73-4.78,4.76,4.76,0,1,1,9.51,0A4.85,4.85,0,0,1,30.08,80.7Zm0-7.57a2.8,2.8,0,0,0-2.73,2.79,2.76,2.76,0,1,0,5.51,0A2.78,2.78,0,0,0,30.08,73.13Zm-.21-3.3c-2,0-3.29-1.45-3.29-3.61,0-3.34,2.31-6.14,4.33-8.21C32.53,56.44,34,55,34,53a3.77,3.77,0,0,0-4-4,5.86,5.86,0,0,0-4.67,2.46,3.92,3.92,0,0,1-3.11,1.64,3.46,3.46,0,0,1-3.4-3.5,5.19,5.19,0,0,1,1.22-3.18,12.8,12.8,0,0,1,10.49-4.86c6.8,0,11.55,4.49,11.55,10.91,0,4.85-3,7.54-5,9.32-2.48,2.29-3.4,3.5-3.92,5.2C32.83,68,32.14,69.83,29.87,69.83ZM30,47a5.78,5.78,0,0,1,6,6c0,2.88-2,4.79-3.72,6.48s-3.74,4.17-3.74,6.79c0,1.07.43,1.61,1.29,1.61s1-.28,1.46-1.49c.61-2,1.71-3.49,4.47-6,2.28-2,4.31-4.18,4.31-7.84,0-5.24-3.93-8.91-9.55-8.91a10.68,10.68,0,0,0-8.89,4.07,3.29,3.29,0,0,0-.82,2,1.46,1.46,0,0,0,1.4,1.5,2,2,0,0,0,1.58-.92A7.93,7.93,0,0,1,30,47Z"/><rect class="cls-2" x="56" y="42.47" width="44.63" height="7.43" rx="3.71"/><rect class="cls-2" x="56" y="57.69" width="44.63" height="7.43" rx="3.71"/><rect class="cls-2" x="56" y="72.91" width="44.63" height="7.43" rx="3.71"/></svg>