<svg id="Layer_1" data-name="Layer 1" xmlns="http://www.w3.org/2000/svg" xmlns:xlink="http://www.w3.org/1999/xlink" viewBox="0 0 120.66 124.18"><defs><style>.cls-1{fill:none;}.cls-2{fill:#f9edcf;}.cls-3{opacity:0.92;}.cls-4{clip-path:url(#clip-path);}.cls-5{fill:#343151;}.cls-6{fill:#353151;}.cls-7{fill:#363151;}.cls-8{fill:#373051;}.cls-9{fill:#383051;}.cls-10{fill:#393051;}.cls-11{fill:#3a2f51;}.cls-12{fill:#3b2f51;}.cls-13{fill:#3c2f51;}.cls-14{fill:#3d2f51;}.cls-15{fill:#3e2f51;}.cls-16{fill:#3f2e51;}.cls-17{fill:#402e51;}.cls-18{fill:#412e51;}.cls-19{fill:#422e51;}.cls-20{fill:#432d51;}.cls-21{fill:#442d51;}.cls-22{fill:#452d51;}.cls-23{fill:#462d51;}.cls-24{fill:#472d51;}.cls-25{fill:#482c51;}.cls-26{fill:#492c51;}.cls-27{fill:#4a2c51;}.cls-28{fill:#4b2b51;}.cls-29{fill:#4c2b51;}.cls-30{fill:#4d2b51;}.cls-31{fill:#4e2b52;}.cls-32{fill:#4f2a52;}.cls-33{fill:#502a52;}.cls-34{fill:#512a52;}.cls-35{fill:#522a52;}.cls-36{fill:#532952;}.cls-37{fill:#542952;}.cls-38{fill:#552952;}.cls-39{fill:#562952;}.cls-40{fill:#572952;}.cls-41{fill:#582852;}.cls-42{fill:#592852;}.cls-43{fill:#5a2852;}.cls-44{fill:#5b2852;}.cls-45{fill:#5c2752;}.cls-46{fill:#5d2752;}.cls-47{fill:#5e2752;}.cls-48{fill:#5f2752;}.cls-49{fill:#602652;}.cls-50{fill:#612652;}.cls-51{fill:#622652;}.cls-52{fill:#632652;}.cls-53{fill:#642552;}.cls-54{fill:#652552;}.cls-55{fill:#662552;}.cls-56{fill:#672552;}.cls-57{fill:#682452;}.cls-58{fill:#692452;}.cls-59{fill:#6a2452;}.cls-60{fill:#6b2452;}.cls-61{fill:#6c2452;}.cls-62{fill:#6d2352;}.cls-63{fill:#6e2352;}.cls-64{fill:#6f2352;}.cls-65{fill:#702352;}.cls-66{fill:#712252;}.cls-67{fill:#722252;}.cls-68{fill:#732252;}.cls-69{fill:#742252;}.cls-70{fill:#752152;}.cls-71{fill:#762152;}.cls-72{fill:#772152;}.cls-73{fill:#782152;}.cls-74{fill:#792052;}.cls-75{fill:#7a2052;}.cls-76{fill:#7b2052;}.cls-77{fill:#7c2052;}.cls-78{fill:#7d1f52;}.cls-79{fill:#7e1f52;}.cls-80{fill:#7f1f52;}.cls-81{fill:#801f52;}.cls-82{fill:#811e53;}.cls-83{fill:#821e53;}.cls-84{fill:#831e53;}.cls-85{fill:#841e53;}.cls-86{fill:#851d53;}.cls-87{fill:#861d53;}.cls-88{fill:#871d53;}.cls-89{fill:#881d53;}.cls-90{fill:#891d53;}.cls-91{fill:#8a1c53;}.cls-92{fill:#8b1c53;}.cls-93{fill:#8c1c53;}.cls-94{fill:#8d1c53;}.cls-95{fill:#8e1b53;}.cls-96{fill:#8f1b53;}.cls-97{fill:#901b53;}.cls-98{fill:#911b53;}.cls-99{fill:#921a53;}.cls-100{fill:#931a53;}.cls-101{fill:#941a53;}.cls-102{fill:#951a53;}.cls-103{fill:#961953;}.cls-104{fill:#971953;}.cls-105{fill:#981953;}.cls-106{fill:#991953;}.cls-107{fill:#9a1853;}.cls-108{fill:#9b1853;}.cls-109{fill:#9c1853;}.cls-110{fill:#9d1853;}.cls-111{fill:#9e1753;}.cls-112{fill:#9f1753;}.cls-113{fill:#a01753;}.cls-114{fill:#a11753;}.cls-115{fill:#a21653;}.cls-116{fill:#a31653;}.cls-117{fill:#a41653;}.cls-118{fill:#a51653;}.cls-119{fill:#a61553;}.cls-120{fill:#a71553;}.cls-121{fill:#a81553;}.cls-122{fill:#a91553;}.cls-123{fill:#aa1453;}.cls-124{fill:#ab1453;}.cls-125{fill:#ac1453;}.cls-126{fill:#ad1453;}.cls-127{fill:#af1353;}.cls-128{fill:#b01353;}.cls-129{fill:#b11353;}.cls-130{fill:#b21353;}.cls-131{fill:#b31253;}.cls-132{fill:#b41254;}.cls-133{fill:#b51254;}.cls-134{fill:#b61254;}.cls-135{fill:#b71154;}.cls-136{fill:#b81154;}.cls-137{fill:#b91154;}.cls-138{fill:#ba1154;}.cls-139{fill:#bb1054;}.cls-140{fill:#bc1054;}.cls-141{fill:#bd1054;}.cls-142{fill:#be1054;}.cls-143{fill:#bf0f54;}.cls-144{fill:#c00f54;}.cls-145{fill:#c10f54;}.cls-146{fill:#c20f54;}.cls-147{fill:#c30e54;}.cls-148{fill:#c40e54;}.cls-149{fill:#c50e54;}.cls-150{fill:#c60e54;}.cls-151{fill:#c70d54;}.cls-152{fill:#c80d54;}.cls-153{fill:#c90d54;}.cls-154{fill:#ca0d54;}.cls-155{fill:#cb0c54;}.cls-156{fill:#cc0c54;}.cls-157{fill:#cd0c54;}.cls-158{fill:#ce0c54;}.cls-159{fill:#cf0b54;}.cls-160{fill:#d00b54;}.cls-161{fill:#d10b54;}.cls-162{fill:#d20b54;}.cls-163{fill:#d30b54;}.cls-164{fill:#d50a54;}.cls-165{fill:#d60a54;}.cls-166{fill:#d70a54;}.cls-167{fill:#d80a54;}.cls-168{fill:#d90954;}.cls-169{fill:#da0954;}.cls-170{fill:#db0954;}.cls-171{fill:#dc0954;}.cls-172{fill:#dd0854;}.cls-173{fill:#de0854;}.cls-174{fill:#df0854;}.cls-175{fill:#e00854;}.cls-176{fill:#e10754;}.cls-177{fill:#e20754;}.cls-178{fill:#e30754;}.cls-179{fill:#e40754;}.cls-180{fill:#e50654;}.cls-181{fill:#e60655;}.cls-182{fill:#e70655;}.cls-183{fill:#e80655;}.cls-184{fill:#e90555;}.cls-185{fill:#ea0555;}.cls-186{fill:#eb0555;}.cls-187{fill:#ec0555;}.cls-188{fill:#ed0455;}.cls-189{fill:#ee0455;}.cls-190{fill:#ef0455;}.cls-191{fill:#f00455;}.cls-192{fill:#f10355;}.cls-193{fill:#f30355;}.cls-194{fill:#f40355;}.cls-195{fill:#f50355;}.cls-196{fill:#f60255;}.cls-197{fill:#f70255;}.cls-198{fill:#f80255;}.cls-199{fill:#f90255;}.cls-200{fill:#fa0155;}.cls-201{fill:#fb0155;}.cls-202{fill:#fc0155;}.cls-203{fill:#fd0155;}.cls-204{fill:#fe0055;}.cls-205{fill:#f05;}.cls-206{opacity:0.2;}</style><clipPath id="clip-path"><polygon class="cls-1" points="60.62 21.45 26.93 62.59 60.62 109.38 108.83 62.59 60.62 21.45"/></clipPath></defs><title>Artboard 11 copy 3</title><path class="cls-2" d="M117.32,64.49H3.91a2.5,2.5,0,0,1,0-5H117.32a2.5,2.5,0,1,1,0,5Z"/><path class="cls-2" d="M60.62,121.19a2.49,2.49,0,0,1-2.5-2.5V5.29a2.5,2.5,0,1,1,5,0v113.4A2.5,2.5,0,0,1,60.62,121.19Z"/><g class="cls-3"><g class="cls-4"><rect class="cls-5" x="26.93" y="21.45" width="81.91" height="87.93"/><circle class="cls-5" cx="71.84" cy="68.49" r="18.51"/><circle class="cls-6" cx="71.84" cy="68.49" r="18.42"/><circle class="cls-7" cx="71.84" cy="68.49" r="18.33"/><circle class="cls-8" cx="71.84" cy="68.49" r="18.23"/><circle class="cls-9" cx="71.84" cy="68.49" r="18.14"/><circle class="cls-9" cx="71.84" cy="68.49" r="18.05"/><circle class="cls-10" cx="71.84" cy="68.49" r="17.96"/><circle class="cls-11" cx="71.84" cy="68.49" r="17.87"/><circle class="cls-12" cx="71.84" cy="68.49" r="17.78"/><circle class="cls-13" cx="71.84" cy="68.49" r="17.69"/><circle class="cls-14" cx="71.84" cy="68.49" r="17.6"/><circle class="cls-15" cx="71.84" cy="68.49" r="17.51"/><circle class="cls-16" cx="71.84" cy="68.49" r="17.41"/><circle class="cls-17" cx="71.84" cy="68.49" r="17.32"/><circle class="cls-18" cx="71.84" cy="68.49" r="17.23"/><circle class="cls-19" cx="71.84" cy="68.49" r="17.14"/><circle class="cls-20" cx="71.84" cy="68.49" r="17.05"/><circle class="cls-21" cx="71.84" cy="68.49" r="16.96"/><circle class="cls-22" cx="71.84" cy="68.49" r="16.87"/><circle class="cls-23" cx="71.84" cy="68.49" r="16.78"/><circle class="cls-24" cx="71.84" cy="68.49" r="16.68"/><circle class="cls-25" cx="71.84" cy="68.49" r="16.59"/><circle class="cls-25" cx="71.84" cy="68.49" r="16.5"/><circle class="cls-26" cx="71.84" cy="68.49" r="16.41"/><circle class="cls-27" cx="71.84" cy="68.49" r="16.32"/><circle class="cls-28" cx="71.84" cy="68.49" r="16.23"/><circle class="cls-29" cx="71.84" cy="68.49" r="16.14"/><circle class="cls-30" cx="71.84" cy="68.49" r="16.05"/><circle class="cls-31" cx="71.84" cy="68.49" r="15.96"/><circle class="cls-32" cx="71.84" cy="68.49" r="15.86"/><circle class="cls-33" cx="71.84" cy="68.49" r="15.77"/><circle class="cls-34" cx="71.84" cy="68.49" r="15.68"/><circle class="cls-35" cx="71.84" cy="68.49" r="15.59"/><circle class="cls-36" cx="71.84" cy="68.49" r="15.5"/><circle class="cls-37" cx="71.84" cy="68.49" r="15.41"/><circle class="cls-38" cx="71.84" cy="68.49" r="15.32"/><circle class="cls-39" cx="71.84" cy="68.49" r="15.23"/><circle class="cls-40" cx="71.84" cy="68.49" r="15.13"/><circle class="cls-41" cx="71.84" cy="68.49" r="15.04"/><circle class="cls-42" cx="71.84" cy="68.49" r="14.95"/><circle class="cls-43" cx="71.84" cy="68.49" r="14.86"/><circle class="cls-44" cx="71.84" cy="68.49" r="14.77"/><circle class="cls-45" cx="71.84" cy="68.49" r="14.68"/><circle class="cls-46" cx="71.84" cy="68.49" r="14.59"/><circle class="cls-47" cx="71.84" cy="68.49" r="14.5"/><circle class="cls-48" cx="71.84" cy="68.49" r="14.41"/><circle class="cls-49" cx="71.84" cy="68.49" r="14.31"/><circle class="cls-50" cx="71.84" cy="68.49" r="14.22"/><circle class="cls-51" cx="71.84" cy="68.49" r="14.13"/><circle class="cls-52" cx="71.84" cy="68.49" r="14.04"/><circle class="cls-53" cx="71.84" cy="68.49" r="13.95"/><circle class="cls-54" cx="71.84" cy="68.49" r="13.86"/><circle class="cls-55" cx="71.84" cy="68.49" r="13.77"/><circle class="cls-56" cx="71.84" cy="68.49" r="13.68"/><circle class="cls-57" cx="71.84" cy="68.49" r="13.58"/><circle class="cls-58" cx="71.84" cy="68.49" r="13.49"/><circle class="cls-59" cx="71.84" cy="68.49" r="13.4"/><circle class="cls-60" cx="71.84" cy="68.49" r="13.31"/><circle class="cls-61" cx="71.84" cy="68.49" r="13.22"/><circle class="cls-62" cx="71.84" cy="68.49" r="13.13"/><circle class="cls-63" cx="71.84" cy="68.49" r="13.04"/><circle class="cls-64" cx="71.84" cy="68.49" r="12.95"/><circle class="cls-65" cx="71.84" cy="68.49" r="12.86"/><circle class="cls-66" cx="71.84" cy="68.49" r="12.76"/><circle class="cls-67" cx="71.84" cy="68.49" r="12.67"/><circle class="cls-68" cx="71.84" cy="68.49" r="12.58"/><circle class="cls-69" cx="71.84" cy="68.49" r="12.49"/><circle class="cls-70" cx="71.84" cy="68.49" r="12.4"/><circle class="cls-71" cx="71.84" cy="68.49" r="12.31"/><circle class="cls-72" cx="71.84" cy="68.49" r="12.22"/><circle class="cls-73" cx="71.84" cy="68.49" r="12.13"/><circle class="cls-74" cx="71.84" cy="68.49" r="12.03"/><circle class="cls-75" cx="71.84" cy="68.49" r="11.94"/><circle class="cls-76" cx="71.84" cy="68.49" r="11.85"/><circle class="cls-77" cx="71.84" cy="68.49" r="11.76"/><circle class="cls-78" cx="71.84" cy="68.49" r="11.67"/><circle class="cls-79" cx="71.84" cy="68.49" r="11.58"/><circle class="cls-80" cx="71.84" cy="68.49" r="11.49"/><circle class="cls-81" cx="71.84" cy="68.49" r="11.4"/><circle class="cls-82" cx="71.84" cy="68.49" r="11.31"/><circle class="cls-83" cx="71.84" cy="68.49" r="11.21"/><circle class="cls-84" cx="71.84" cy="68.49" r="11.12"/><circle class="cls-85" cx="71.84" cy="68.49" r="11.03"/><circle class="cls-86" cx="71.84" cy="68.49" r="10.94"/><circle class="cls-87" cx="71.84" cy="68.49" r="10.85"/><circle class="cls-88" cx="71.84" cy="68.49" r="10.76"/><circle class="cls-89" cx="71.84" cy="68.49" r="10.67"/><circle class="cls-90" cx="71.84" cy="68.49" r="10.58"/><circle class="cls-91" cx="71.84" cy="68.49" r="10.48"/><circle class="cls-92" cx="71.84" cy="68.49" r="10.39"/><circle class="cls-93" cx="71.84" cy="68.49" r="10.3"/><circle class="cls-94" cx="71.84" cy="68.49" r="10.21"/><circle class="cls-95" cx="71.84" cy="68.49" r="10.12"/><circle class="cls-96" cx="71.84" cy="68.49" r="10.03"/><circle class="cls-97" cx="71.84" cy="68.49" r="9.94"/><circle class="cls-98" cx="71.84" cy="68.49" r="9.85"/><circle class="cls-99" cx="71.84" cy="68.49" r="9.76"/><circle class="cls-100" cx="71.84" cy="68.49" r="9.66"/><circle class="cls-101" cx="71.84" cy="68.49" r="9.57"/><circle class="cls-102" cx="71.84" cy="68.49" r="9.48"/><circle class="cls-103" cx="71.84" cy="68.49" r="9.39"/><circle class="cls-104" cx="71.84" cy="68.49" r="9.3"/><circle class="cls-105" cx="71.84" cy="68.49" r="9.21"/><circle class="cls-106" cx="71.84" cy="68.49" r="9.12"/><circle class="cls-107" cx="71.84" cy="68.49" r="9.03"/><circle class="cls-108" cx="71.84" cy="68.49" r="8.94"/><circle class="cls-109" cx="71.84" cy="68.49" r="8.84"/><circle class="cls-110" cx="71.84" cy="68.49" r="8.75"/><circle class="cls-111" cx="71.84" cy="68.49" r="8.66"/><circle class="cls-112" cx="71.84" cy="68.49" r="8.57"/><circle class="cls-113" cx="71.84" cy="68.49" r="8.48"/><circle class="cls-114" cx="71.84" cy="68.49" r="8.39"/><circle class="cls-115" cx="71.84" cy="68.49" r="8.3"/><circle class="cls-116" cx="71.84" cy="68.49" r="8.21"/><circle class="cls-117" cx="71.84" cy="68.49" r="8.11"/><circle class="cls-118" cx="71.84" cy="68.49" r="8.02"/><circle class="cls-119" cx="71.84" cy="68.49" r="7.93"/><circle class="cls-120" cx="71.84" cy="68.49" r="7.84"/><circle class="cls-121" cx="71.84" cy="68.49" r="7.75"/><circle class="cls-122" cx="71.84" cy="68.49" r="7.66"/><circle class="cls-123" cx="71.84" cy="68.49" r="7.57"/><circle class="cls-124" cx="71.84" cy="68.49" r="7.48"/><circle class="cls-125" cx="71.84" cy="68.49" r="7.39"/><circle class="cls-126" cx="71.84" cy="68.49" r="7.29"/><circle class="cls-127" cx="71.84" cy="68.49" r="7.2"/><circle class="cls-128" cx="71.84" cy="68.49" r="7.11"/><circle class="cls-129" cx="71.84" cy="68.49" r="7.02"/><circle class="cls-130" cx="71.84" cy="68.49" r="6.93"/><circle class="cls-131" cx="71.84" cy="68.49" r="6.84"/><circle class="cls-132" cx="71.84" cy="68.49" r="6.75"/><circle class="cls-133" cx="71.84" cy="68.49" r="6.66"/><circle class="cls-134" cx="71.84" cy="68.49" r="6.56"/><circle class="cls-135" cx="71.84" cy="68.49" r="6.47"/><circle class="cls-136" cx="71.84" cy="68.49" r="6.38"/><circle class="cls-137" cx="71.84" cy="68.49" r="6.29"/><circle class="cls-138" cx="71.84" cy="68.49" r="6.2"/><circle class="cls-139" cx="71.84" cy="68.49" r="6.11"/><circle class="cls-140" cx="71.84" cy="68.49" r="6.02"/><circle class="cls-141" cx="71.84" cy="68.49" r="5.93"/><circle class="cls-142" cx="71.84" cy="68.49" r="5.84"/><circle class="cls-143" cx="71.84" cy="68.49" r="5.74"/><circle class="cls-144" cx="71.84" cy="68.49" r="5.65"/><circle class="cls-145" cx="71.84" cy="68.49" r="5.56"/><circle class="cls-146" cx="71.84" cy="68.49" r="5.47"/><circle class="cls-147" cx="71.84" cy="68.49" r="5.38"/><circle class="cls-148" cx="71.84" cy="68.49" r="5.29"/><circle class="cls-149" cx="71.84" cy="68.49" r="5.2"/><circle class="cls-150" cx="71.84" cy="68.49" r="5.11"/><circle class="cls-151" cx="71.84" cy="68.49" r="5.01"/><circle class="cls-152" cx="71.84" cy="68.49" r="4.92"/><circle class="cls-153" cx="71.84" cy="68.49" r="4.83"/><circle class="cls-154" cx="71.84" cy="68.49" r="4.74"/><circle class="cls-155" cx="71.84" cy="68.49" r="4.65"/><circle class="cls-156" cx="71.84" cy="68.49" r="4.56"/><circle class="cls-157" cx="71.84" cy="68.49" r="4.47"/><circle class="cls-158" cx="71.84" cy="68.49" r="4.38"/><circle class="cls-159" cx="71.84" cy="68.49" r="4.29"/><circle class="cls-160" cx="71.84" cy="68.49" r="4.19"/><circle class="cls-161" cx="71.84" cy="68.49" r="4.1"/><circle class="cls-162" cx="71.84" cy="68.49" r="4.01"/><circle class="cls-163" cx="71.84" cy="68.49" r="3.92"/><circle class="cls-164" cx="71.84" cy="68.49" r="3.83"/><circle class="cls-165" cx="71.84" cy="68.49" r="3.74"/><circle class="cls-166" cx="71.84" cy="68.49" r="3.65"/><circle class="cls-167" cx="71.84" cy="68.49" r="3.56"/><circle class="cls-168" cx="71.84" cy="68.49" r="3.46"/><circle class="cls-169" cx="71.84" cy="68.49" r="3.37"/><circle class="cls-170" cx="71.84" cy="68.49" r="3.28"/><circle class="cls-171" cx="71.84" cy="68.49" r="3.19"/><circle class="cls-172" cx="71.84" cy="68.49" r="3.1"/><circle class="cls-173" cx="71.84" cy="68.49" r="3.01"/><circle class="cls-174" cx="71.84" cy="68.49" r="2.92"/><circle class="cls-175" cx="71.84" cy="68.49" r="2.83"/><circle class="cls-176" cx="71.84" cy="68.49" r="2.74"/><circle class="cls-177" cx="71.84" cy="68.49" r="2.64"/><circle class="cls-178" cx="71.84" cy="68.49" r="2.55"/><circle class="cls-179" cx="71.84" cy="68.49" r="2.46"/><circle class="cls-180" cx="71.84" cy="68.49" r="2.37"/><circle class="cls-181" cx="71.84" cy="68.49" r="2.28"/><circle class="cls-182" cx="71.84" cy="68.49" r="2.19"/><circle class="cls-183" cx="71.84" cy="68.49" r="2.1"/><circle class="cls-184" cx="71.84" cy="68.49" r="2.01"/><circle class="cls-185" cx="71.84" cy="68.49" r="1.91"/><circle class="cls-186" cx="71.84" cy="68.49" r="1.82"/><circle class="cls-187" cx="71.84" cy="68.49" r="1.73"/><circle class="cls-188" cx="71.84" cy="68.49" r="1.64"/><circle class="cls-189" cx="71.84" cy="68.49" r="1.55"/><circle class="cls-190" cx="71.84" cy="68.49" r="1.46"/><circle class="cls-191" cx="71.84" cy="68.49" r="1.37"/><circle class="cls-192" cx="71.84" cy="68.49" r="1.28"/><circle class="cls-193" cx="71.84" cy="68.49" r="1.19"/><circle class="cls-194" cx="71.84" cy="68.49" r="1.09"/><circle class="cls-195" cx="71.84" cy="68.49" r="1"/><circle class="cls-196" cx="71.84" cy="68.49" r="0.91"/><circle class="cls-197" cx="71.84" cy="68.49" r="0.82"/><circle class="cls-198" cx="71.84" cy="68.49" r="0.73"/><circle class="cls-199" cx="71.84" cy="68.49" r="0.64"/><circle class="cls-200" cx="71.84" cy="68.49" r="0.55"/><circle class="cls-201" cx="71.84" cy="68.49" r="0.46"/><circle class="cls-202" cx="71.84" cy="68.49" r="0.36"/><circle class="cls-203" cx="71.84" cy="68.49" r="0.27"/><circle class="cls-204" cx="71.84" cy="68.49" r="0.18"/><circle class="cls-205" cx="71.84" cy="68.49" r="0.09"/></g></g><path class="cls-2" d="M60.28,113.19l-36.5-50.7L60.3,17.9l52.25,44.57Zm-30.2-50.5L61,105.57l44.17-42.86L60.93,25Z"/><g class="cls-206"><path class="cls-2" d="M117.32,59.49H63.12V5.29a2.5,2.5,0,1,0-5,0v54.2H3.91a2.5,2.5,0,0,0,0,5H58.12v54.2a2.5,2.5,0,0,0,5,0V64.49h54.2a2.5,2.5,0,1,0,0-5Z"/></g></svg>