<svg id="Layer_1" data-name="Layer 1" xmlns="http://www.w3.org/2000/svg" xmlns:xlink="http://www.w3.org/1999/xlink" viewBox="0 0 116.48 116.48"><defs><style>.cls-1{fill:#fff;}.cls-2{fill:#d17838;}.cls-3{fill:#f9edcf;}.cls-4{mask:url(#mask);}.cls-5{fill:#3dadad;}.cls-6{fill:#343151;}</style><mask id="mask" x="5.4" y="-0.83" width="105.69" height="111.95" maskUnits="userSpaceOnUse"><circle class="cls-1" cx="58.24" cy="58.28" r="52.84"/></mask></defs><title>learning</title><path class="cls-2" d="M58.24,113.62a55.35,55.35,0,1,1,55.35-55.34A55.41,55.41,0,0,1,58.24,113.62Z"/><path class="cls-3" d="M58.24,5.43A52.85,52.85,0,1,1,5.4,58.28,52.85,52.85,0,0,1,58.24,5.43m0-5a57.85,57.85,0,1,0,57.85,57.85A57.91,57.91,0,0,0,58.24.43Z"/><g class="cls-4"><path class="cls-5" d="M71.92-.83H44.28L16.86,19.41,30.61,49.86A44.43,44.43,0,0,1,58,60.29v.25l.15-.12.14.12v-.25A44.47,44.47,0,0,1,85.59,49.86L99.33,19.41Z"/></g><path class="cls-3" d="M70.32,18.73A11.77,11.77,0,0,0,60,24.12l-7,10.36A7.45,7.45,0,0,1,39.2,30.14a7.5,7.5,0,0,1,7.08-7.08h.34a5.89,5.89,0,0,1,4.51,2.15l1.81,2.16,2.74-3.47-1.23-1.47a10.21,10.21,0,0,0-7.91-3.7h-.46a11.84,11.84,0,0,0-11.2,11.21,11.77,11.77,0,0,0,21.66,6.92l7-10.36a7.44,7.44,0,1,1,6.24,11.43h0a5.94,5.94,0,0,1-4.44-2.09l-2-2.29-2.53,3.7,1.21,1.41a10.3,10.3,0,0,0,7.77,3.61A11.78,11.78,0,0,0,81.61,29.94,11.83,11.83,0,0,0,70.32,18.73Z"/><path class="cls-6" d="M58.24,67.28v33.36l-.57-.4a58.66,58.66,0,0,0-27.41-9.69l-8.35-.81V56.38l7.31.61"/><path class="cls-3" d="M58.24,102.14a1.5,1.5,0,0,1-.85-.27l-.57-.4A57,57,0,0,0,30.12,92l-8.35-.81a1.5,1.5,0,0,1-1.36-1.49V56.38a1.48,1.48,0,0,1,.49-1.1,1.5,1.5,0,0,1,1.14-.4l7.3.61-.25,3L23.41,58V88.38l7,.67a60.42,60.42,0,0,1,26.33,8.79V67.28h3v33.36a1.48,1.48,0,0,1-.8,1.32A1.46,1.46,0,0,1,58.24,102.14Z"/><path class="cls-5" d="M58.24,93.9l-.47-.4a42.74,42.74,0,0,0-22.42-9.69L28.52,83V49.64l6,.61A42.7,42.7,0,0,1,58.24,60.54h0Z"/><path class="cls-3" d="M58.24,95.4a1.51,1.51,0,0,1-1-.35l-.47-.4A41.17,41.17,0,0,0,35.17,85.3l-6.83-.81A1.5,1.5,0,0,1,27,83V49.64a1.52,1.52,0,0,1,.49-1.11,1.54,1.54,0,0,1,1.16-.38l6,.61A44,44,0,0,1,59.23,59.41a1.5,1.5,0,0,1,.51,1.13V93.9a1.5,1.5,0,0,1-.86,1.36A1.57,1.57,0,0,1,58.24,95.4ZM30,81.67l5.51.65a44.11,44.11,0,0,1,21.21,8.46V61.23a41,41,0,0,0-22.4-9.49L30,51.3Z"/><path class="cls-6" d="M58.24,67.28v33.36l.58-.4a58.62,58.62,0,0,1,27.41-9.69l8.34-.81V56.38l-7.3.61"/><path class="cls-3" d="M58.24,102.14a1.39,1.39,0,0,1-.69-.18,1.49,1.49,0,0,1-.81-1.32V67.28h3V97.84a60.46,60.46,0,0,1,26.34-8.79l7-.67V58l-5.69.47-.24-3,7.3-.61a1.5,1.5,0,0,1,1.14.4,1.48,1.48,0,0,1,.49,1.1V89.74a1.5,1.5,0,0,1-1.36,1.49L86.37,92a56.88,56.88,0,0,0-26.7,9.44l-.58.39A1.46,1.46,0,0,1,58.24,102.14Z"/><path class="cls-5" d="M58.24,93.9l.48-.4a42.74,42.74,0,0,1,22.42-9.69L88,83V49.64l-6,.61A42.76,42.76,0,0,0,58.24,60.54h0Z"/><path class="cls-3" d="M58.24,95.4a1.56,1.56,0,0,1-.63-.14,1.51,1.51,0,0,1-.87-1.36V60.54a1.51,1.51,0,0,1,.52-1.13A44,44,0,0,1,81.84,48.76l6-.61a1.54,1.54,0,0,1,1.16.38,1.52,1.52,0,0,1,.49,1.11V83a1.5,1.5,0,0,1-1.32,1.49l-6.83.81a41.17,41.17,0,0,0-21.64,9.35l-.47.4A1.52,1.52,0,0,1,58.24,95.4Zm1.5-34.17V90.78A44.14,44.14,0,0,1,81,82.32l5.51-.65V51.3l-4.33.44A41.06,41.06,0,0,0,59.74,61.23Z"/><path class="cls-3" d="M52.62,66.9a1.51,1.51,0,0,1-1-.37,28.33,28.33,0,0,0-15.84-6.86,1.5,1.5,0,1,1,.31-3,31.38,31.38,0,0,1,17.5,7.59,1.5,1.5,0,0,1-1,2.63Z"/><path class="cls-3" d="M52.62,75.29a1.51,1.51,0,0,1-1-.37,28.37,28.37,0,0,0-15.84-6.87,1.5,1.5,0,1,1,.31-3,31.27,31.27,0,0,1,17.5,7.59,1.5,1.5,0,0,1-1,2.63Z"/><path class="cls-3" d="M52.62,83.67a1.51,1.51,0,0,1-1-.37,28.33,28.33,0,0,0-15.84-6.86,1.5,1.5,0,1,1,.31-3A31.3,31.3,0,0,1,53.6,81a1.5,1.5,0,0,1-1,2.63Z"/><path class="cls-3" d="M63.87,66.9a1.49,1.49,0,0,1-1.13-.51,1.51,1.51,0,0,1,.14-2.12,31.44,31.44,0,0,1,17.51-7.59,1.5,1.5,0,1,1,.31,3,28.33,28.33,0,0,0-15.84,6.86A1.51,1.51,0,0,1,63.87,66.9Z"/><path class="cls-3" d="M63.87,75.29a1.5,1.5,0,0,1-1-2.63,31.37,31.37,0,0,1,17.51-7.59,1.5,1.5,0,1,1,.31,3,28.34,28.34,0,0,0-15.84,6.87A1.51,1.51,0,0,1,63.87,75.29Z"/><path class="cls-3" d="M63.87,83.67a1.49,1.49,0,0,1-1.13-.51A1.51,1.51,0,0,1,62.88,81a31.36,31.36,0,0,1,17.51-7.58,1.5,1.5,0,1,1,.31,3A28.33,28.33,0,0,0,64.86,83.3,1.51,1.51,0,0,1,63.87,83.67Z"/></svg>