<svg id="Layer_1" data-name="Layer 1" xmlns="http://www.w3.org/2000/svg" xmlns:xlink="http://www.w3.org/1999/xlink" viewBox="0 0 116.48 116.48"><defs><style>.cls-1{fill:#fff;}.cls-2{fill:#3dadad;}.cls-3{fill:#f9edcf;}.cls-4{mask:url(#mask);}.cls-5{fill:#d17838;}.cls-6{fill:#343151;}.cls-7{fill:#bf4f24;}</style><mask id="mask" x="5.39" y="5.28" width="105.69" height="116.32" maskUnits="userSpaceOnUse"><circle class="cls-1" cx="58.24" cy="58.13" r="52.84"/></mask></defs><title>talents</title><path class="cls-2" d="M58.24,113.47a55.35,55.35,0,1,1,55.34-55.34A55.4,55.4,0,0,1,58.24,113.47Z"/><path class="cls-3" d="M58.24,5.28A52.85,52.85,0,1,1,5.39,58.13,52.85,52.85,0,0,1,58.24,5.28m0-5a57.85,57.85,0,1,0,57.84,57.85A57.91,57.91,0,0,0,58.24.28Z"/><g class="cls-4"><polygon class="cls-5" points="92.81 119.56 23.66 119.56 17.54 77.45 98.94 77.45 92.81 119.56"/><path class="cls-3" d="M92.81,121.6H23.67a2,2,0,0,1-2-1.75L15.52,77.74a2,2,0,0,1,2-2.33h81.4a2,2,0,0,1,1.54.7,2.05,2.05,0,0,1,.48,1.63l-6.13,42.11A2,2,0,0,1,92.81,121.6Zm-67.38-4.08H91.05l5.53-38H19.9Z"/><path class="cls-5" d="M80.22,25.07h-44a17.91,17.91,0,0,0-17,12.35l-2.17,6.64H99.42l-2.16-6.64A17.92,17.92,0,0,0,80.22,25.07Z"/><path class="cls-3" d="M99.42,45.56H17.05a1.49,1.49,0,0,1-1.21-.62,1.51,1.51,0,0,1-.21-1.35L17.79,37A19.38,19.38,0,0,1,36.25,23.57h44A19.37,19.37,0,0,1,98.68,37l2.17,6.63a1.5,1.5,0,0,1-1.43,2Zm-80.3-3H97.36l-1.53-4.67A16.38,16.38,0,0,0,80.22,26.57h-44A16.4,16.4,0,0,0,20.64,37.89Z"/><polygon class="cls-6" points="93.22 60.53 23.25 60.53 17.05 44.06 99.42 44.06 93.22 60.53"/><path class="cls-3" d="M93.22,62h-70a1.5,1.5,0,0,1-1.4-1l-6.2-16.48a1.49,1.49,0,0,1,1.4-2H99.42a1.49,1.49,0,0,1,1.41,2l-6.2,16.48A1.51,1.51,0,0,1,93.22,62ZM24.29,59h67.9l5.07-13.47h-78Z"/><polygon class="cls-6" points="93.22 60.53 23.25 60.53 17.05 77 99.42 77 93.22 60.53"/><path class="cls-3" d="M99.42,78.5H17.05a1.49,1.49,0,0,1-1.4-2L21.85,60a1.5,1.5,0,0,1,1.4-1h70a1.51,1.51,0,0,1,1.41,1l6.2,16.48a1.49,1.49,0,0,1-1.41,2Zm-80.2-3h78L92.19,62H24.29Z"/><path class="cls-3" d="M48.86,79.31H67.62a0,0,0,0,1,0,0V85a9.38,9.38,0,0,1-9.38,9.38h0A9.38,9.38,0,0,1,48.86,85V79.31A0,0,0,0,1,48.86,79.31Z"/><polyline class="cls-2" points="81.6 51.12 58.24 77 34.87 51.12"/><path class="cls-3" d="M58.24,78.5A1.49,1.49,0,0,1,57.13,78L33.76,52.12l2.23-2L58.24,74.77,80.49,50.11l2.23,2L59.35,78A1.51,1.51,0,0,1,58.24,78.5Z"/><polygon class="cls-2" points="81.69 51 34.78 51 43.31 39.88 73.17 39.88 81.69 51"/><path class="cls-3" d="M81.69,52.5H34.79a1.5,1.5,0,0,1-1.19-2.42L42.12,39a1.49,1.49,0,0,1,1.19-.59H73.17a1.49,1.49,0,0,1,1.19.59l8.52,11.11a1.5,1.5,0,0,1-1.19,2.42Zm-43.86-3H78.65l-6.22-8.12H44.05Z"/><path class="cls-3" d="M51.06,52.5a1.52,1.52,0,0,1-1.19-.59L42.7,42.55a1.5,1.5,0,0,1,2.38-1.83l7.17,9.36A1.51,1.51,0,0,1,52,52.19,1.59,1.59,0,0,1,51.06,52.5Z"/><path class="cls-3" d="M65.42,52.5a1.54,1.54,0,0,1-1.2-.59l-7.17-9.36a1.5,1.5,0,0,1,2.38-1.83l7.18,9.36a1.51,1.51,0,0,1-.28,2.11A1.56,1.56,0,0,1,65.42,52.5Z"/><path class="cls-3" d="M51.06,52.5a1.54,1.54,0,0,1-.91-.31,1.51,1.51,0,0,1-.28-2.11l7.18-9.36a1.5,1.5,0,0,1,2.38,1.83l-7.18,9.36A1.51,1.51,0,0,1,51.06,52.5Z"/><path class="cls-3" d="M65.41,52.5a1.56,1.56,0,0,1-.91-.31,1.51,1.51,0,0,1-.28-2.11l7.18-9.36a1.5,1.5,0,0,1,2.38,1.83l-7.17,9.36A1.54,1.54,0,0,1,65.41,52.5Z"/><rect class="cls-3" x="53.15" y="50.51" width="3" height="26.98" transform="translate(-15.05 16.84) rotate(-15.42)"/><rect class="cls-3" x="48.34" y="62.5" width="26.98" height="3" transform="translate(-16.31 106.58) rotate(-74.58)"/><rect class="cls-7" x="55.64" y="79.75" width="5.19" height="8.58" rx="2.59"/></g></svg>