<svg id="Layer_1" data-name="Layer 1" xmlns="http://www.w3.org/2000/svg" xmlns:xlink="http://www.w3.org/1999/xlink" viewBox="0 0 116.48 116.48"><defs><style>.cls-1{fill:#fff;}.cls-2{fill:#2d936c;}.cls-3{mask:url(#mask);}.cls-4{fill:#3dadad;}.cls-5{fill:#f9edcf;}.cls-6{fill:#d17838;}.cls-7{fill:#343151;}</style><mask id="mask" x="3.78" y="5.53" width="109.84" height="105.69" maskUnits="userSpaceOnUse"><circle class="cls-1" cx="58.28" cy="58.37" r="52.84"/></mask></defs><title>values</title><path class="cls-2" d="M58.28,113.72a55.35,55.35,0,1,1,55.35-55.35A55.4,55.4,0,0,1,58.28,113.72Z"/><g class="cls-3"><polyline class="cls-4" points="38.85 33.67 38.85 25.37 76.26 25.37 76.26 33.67"/><polygon class="cls-5" points="78.26 33.67 74.26 33.67 74.26 27.37 40.85 27.37 40.85 33.67 36.85 33.67 36.85 23.37 78.26 23.37 78.26 33.67"/><rect class="cls-4" x="17.19" y="50.89" width="18.06" height="4"/><rect class="cls-4" x="10.63" y="31.68" width="15.6" height="4"/><rect class="cls-4" x="74.73" y="12.28" width="16.34" height="3.52"/><rect class="cls-4" x="24.47" y="12.28" width="35.57" height="4"/><rect class="cls-4" x="3.78" y="68.24" width="19.79" height="4.91"/><rect class="cls-4" x="77.12" y="46.39" width="36.51" height="4"/><rect class="cls-4" x="53.87" y="66.07" width="42.71" height="4"/><polyline class="cls-4" points="33.37 97.91 33.37 33.29 81.74 33.29 81.74 97.91"/><polygon class="cls-5" points="83.74 97.91 79.74 97.91 79.74 35.29 35.37 35.29 35.37 97.91 31.37 97.91 31.37 31.29 83.74 31.29 83.74 97.91"/><polyline class="cls-4" points="61.91 96.68 61.91 79.97 71.8 79.97 71.8 96.68"/><polygon class="cls-5" points="73.8 96.68 69.8 96.68 69.8 81.97 63.91 81.97 63.91 96.68 59.91 96.68 59.91 77.97 73.8 77.97 73.8 96.68"/><circle class="cls-5" cx="57.55" cy="56.46" r="17.67"/><path class="cls-6" d="M68.88,49.41a6.07,6.07,0,0,0-6.13-2.8c-2.26.39-5,2-5.21,4.5-.31-2.93-4-4.76-6.61-4.59a6.3,6.3,0,0,0-5.68,5.78c-.26,3.17,1.53,5.56,3.46,7.88a55.66,55.66,0,0,0,8.83,7.89,54.21,54.21,0,0,0,9.69-9C69.4,56.36,71,52.75,68.88,49.41Z"/><rect class="cls-4" x="42.56" y="79.97" width="9.89" height="9.89"/><path class="cls-5" d="M54.44,91.86H40.56V78H54.44Zm-9.88-4h5.88V82H44.56Z"/></g><path class="cls-7" d="M93.33,97.9H23.23a52.77,52.77,0,0,0,70.1,0Z"/><path class="cls-5" d="M58.28.53a57.85,57.85,0,1,0,57.85,57.84A57.91,57.91,0,0,0,58.28.53ZM25.63,99.91H90.94a52.8,52.8,0,0,1-65.31,0Zm69.85-4H21.09a52.85,52.85,0,1,1,74.39,0Z"/></svg>