<svg id="soundcloud" xmlns="http://www.w3.org/2000/svg" viewBox="0 0 200 200"><title>logo-soundcloud</title><path d="M59.18,144.88H51V79a32.9,32.9,0,0,1,8.16-4.62Zm24.49,0h8.17V69.58a44.8,44.8,0,0,0-5.07,7l-3.1-1.51Zm-16.33,0h8.17V72.65a22.91,22.91,0,0,0-8.17-.08Zm-32.65,0h8.16V87.57A38.52,38.52,0,0,0,37.2,100.1l-2.51-1.48ZM10.2,102a25.06,25.06,0,0,0,0,37Zm154.12-5.48c-1.66-23.16-19.62-41.46-41.77-41.46A39.58,39.58,0,0,0,100,62.24v82.64h74.2c13.12,0,23.77-11.37,23.77-25.35C198,101.3,180.27,88.73,164.32,96.54Zm-137.8-.22a17.93,17.93,0,0,0-8.16,1v46.44a21.28,21.28,0,0,0,8.16,1.13Z" style="fill:#f7740e"/></svg>