<svg id="spotify" xmlns="http://www.w3.org/2000/svg" viewBox="0 0 200 200"><title>logo-spotify</title><path d="M157.22,89.21C126.56,71,76,69.33,46.74,78.22a8.9,8.9,0,0,1-5.16-17C75.17,51,131,53,166.3,73.91a8.9,8.9,0,0,1-9.08,15.3Zm-1,27a7.42,7.42,0,0,1-10.2,2.44c-25.56-15.7-64.52-20.26-94.76-11.08A7.42,7.42,0,1,1,47,93.34c34.54-10.47,77.47-5.4,106.83,12.64A7.42,7.42,0,0,1,156.22,116.17Zm-11.64,25.89a5.92,5.92,0,0,1-8.15,2C114.1,130.39,86,127.31,52.89,134.87a5.93,5.93,0,0,1-2.64-11.56c36.22-8.28,67.3-4.71,92.36,10.61A5.91,5.91,0,0,1,144.58,142.06ZM101,4.91A95.09,95.09,0,1,0,196.06,100,95.09,95.09,0,0,0,101,4.91Z" style="fill:#17d85f"/></svg>