<svg id="apple" xmlns="http://www.w3.org/2000/svg" xmlns:xlink="http://www.w3.org/1999/xlink" viewBox="0 0 200 200"><defs><linearGradient id="Dégradé_sans_nom_11" x1="409.95" y1="1.97" x2="408.28" y2="201.26" gradientTransform="matrix(1, 0, 0, -1, -309.21, 202.8)" gradientUnits="userSpaceOnUse"><stop offset="0" stop-color="#822cbe"/><stop offset="1" stop-color="#d772fb"/></linearGradient></defs><title>logo-apple-podcast</title><rect x="1.5" y="1.55" width="196.79" height="196.79" rx="43.78" ry="43.78" style="fill:url(#Dégradé_sans_nom_11)"/><path d="M96.13,176.13c-5.87-2.1-7.13-4.95-9.54-21.67C83.79,135,83.18,123,84.8,119.18c2.16-5.05,8-7.92,16.16-8s14,2.86,16.16,8c1.62,3.8,1,15.84-1.79,35.28-1.9,13.57-3,17-5.57,19.31a13.49,13.49,0,0,1-13.58,2.37ZM71.05,156.19c-20.26-10-33.25-26.84-38-49.29-1.18-5.79-1.37-19.61-.26-24.93,2.95-14.26,8.6-25.42,18-35.29C64.3,32.43,81.68,24.9,101,24.9a67.4,67.4,0,0,1,49.66,21.22c10,10.43,15.68,21.47,18.56,36,1,4.84,1,18,.07,23.48A69.77,69.77,0,0,1,142.75,149c-5,3.76-17.19,10.34-19.15,10.34-.72,0-.79-.75-.46-3.78.59-4.85,1.18-5.86,3.93-7,4.4-1.84,11.88-7.17,16.47-11.77a62.63,62.63,0,0,0,16.46-29c1.71-6.75,1.51-21.77-.39-28.73-6-22.1-24-39.29-46.11-43.88a77.48,77.48,0,0,0-24.6,0C66.53,39.8,48,57.84,42.39,80.54c-1.51,6.16-1.51,21.18,0,27.35a62.86,62.86,0,0,0,26.17,37,56.88,56.88,0,0,0,6.76,3.87c2.75,1.18,3.34,2.16,3.87,7,.33,3,.26,3.81-.46,3.81a53.12,53.12,0,0,1-7.35-3.15Zm.27-26.69C64.5,124.06,58.46,114.4,56,104.93c-1.51-5.72-1.51-16.59.06-22.3,4.14-15.4,15.48-27.34,31.23-32.95,5.38-1.9,17.31-2.33,23.94-.87,22.83,5.09,39,28,35.88,50.62a46.24,46.24,0,0,1-10,23.62c-2.76,3.52-9.45,9.43-10.63,9.43-.19,0-.39-2.23-.39-4.94v-5l3.41-4.07c12.86-15.4,11.94-36.92-2.1-51a35.59,35.59,0,0,0-19.87-10.22c-5.25-1-6.37-1-11.88-.06A35.93,35.93,0,0,0,75.06,67.5c-14.11,14-15,35.59-2.17,51l3.39,4.07v5c0,2.76-.22,5-.49,5a24.22,24.22,0,0,1-4.2-3Zm22.76-26.78c-5.84-2.71-9-7.84-9-14.52,0-6,3.34-11.23,9.11-14.3C97.82,72,104.31,72,108,73.92a17.79,17.79,0,0,1,8.52,10.32c3.81,12.94-9.9,24.27-22.3,18.48Z" style="fill:#fff"/></svg>