<svg id="Layer_1" data-name="Layer 1" xmlns="http://www.w3.org/2000/svg" xmlns:xlink="http://www.w3.org/1999/xlink" viewBox="0 0 116.48 116.48"><defs><style>.cls-1{fill:#fff;}.cls-2,.cls-6{fill:#3dadad;}.cls-3{fill:#f9edcf;}.cls-4{mask:url(#mask);}.cls-5{fill:#d17838;}.cls-10,.cls-6,.cls-7,.cls-8,.cls-9{stroke:#f9edcf;}.cls-6,.cls-7{stroke-miterlimit:10;stroke-width:4px;}.cls-10,.cls-7,.cls-8{fill:none;}.cls-10,.cls-8,.cls-9{stroke-linejoin:round;stroke-width:3px;}.cls-9{fill:#2d936c;}.cls-10{stroke-linecap:round;}</style><mask id="mask" x="-0.03" y="-1.4" width="113.23" height="118.63" maskUnits="userSpaceOnUse"><circle class="cls-1" cx="58.33" cy="58.22" r="52.84"/></mask></defs><title>collective</title><circle class="cls-2" cx="58.33" cy="58.22" r="55.34"/><path class="cls-3" d="M58.33,5.38A52.85,52.85,0,1,1,5.48,58.22,52.84,52.84,0,0,1,58.33,5.38m0-5a57.85,57.85,0,1,0,57.84,57.84A57.91,57.91,0,0,0,58.33.38Z"/><g class="cls-4"><path class="cls-5" d="M34.3,52.87a8.55,8.55,0,1,1,5.54-16.18l.29-1.54a7,7,0,0,1,8.57-8.74l.09,0a5.73,5.73,0,0,1,4,5.54l9,.49V31.29h0a5,5,0,0,1,2-4.11L64,27a7,7,0,0,1,10.15,4.6,7,7,0,0,1-.75,5l-.18-.1A8.55,8.55,0,1,1,82.4,51l1.3-.63a8.55,8.55,0,1,1,0,17.1l-3.53-3.75a8.55,8.55,0,1,1-5.53,16.18l-.3,1.54a7,7,0,0,1-8.57,8.74l-.09,0a5.73,5.73,0,0,1-4-5.54l-9,.69a5,5,0,0,1-2,4.11,2.09,2.09,0,0,1-.28.17,7,7,0,0,1-9.4-9.6l.18.1a8.55,8.55,0,0,1-9.16-14.45l-1.3.64a8.56,8.56,0,0,1,0-17.11"/><line class="cls-6" x1="52.75" y1="31.98" x2="60.17" y2="31.98"/><line class="cls-7" x1="52.75" y1="85.25" x2="61.92" y2="85.25"/><line class="cls-8" x1="15.26" y1="75.87" x2="26" y2="65.13"/><line class="cls-8" x1="35.21" y1="16.14" x2="45.64" y2="26.58"/><line class="cls-8" x1="73.27" y1="88.17" x2="83.7" y2="98.61"/><line class="cls-8" x1="86.25" y1="42.31" x2="97.43" y2="42.31"/><line class="cls-8" x1="46.71" y1="90.37" x2="46.71" y2="99.22"/><line class="cls-8" x1="70.46" y1="26.92" x2="76.76" y2="20.63"/><line class="cls-8" x1="28.98" y1="42.01" x2="14.41" y2="42.01"/><line class="cls-8" x1="85.5" y1="74.53" x2="99.61" y2="74.53"/><path class="cls-8" d="M30.77,66.26a8.56,8.56,0,0,1,0-17.11"/><circle class="cls-9" cx="46.71" cy="106.25" r="5.42"/><circle class="cls-9" cx="81.27" cy="16.11" r="5.42"/><circle class="cls-9" cx="103.62" cy="42.31" r="8.08"/><circle class="cls-9" cx="9.55" cy="81.58" r="8.08"/><path class="cls-10" d="M34.3,52.91a8.55,8.55,0,1,1,5.54-16.18l.29-1.54a7,7,0,0,1,8.57-8.74l.09,0a5.73,5.73,0,0,1,4,5.54V60.16"/><path class="cls-10" d="M32.07,65.62a8.55,8.55,0,0,0,9.16,14.45l-.18-.1a7,7,0,0,0,9.4,9.6,2.09,2.09,0,0,0,.28-.17,5,5,0,0,0,2-4.11V73.1A6.08,6.08,0,0,0,46.68,67h0"/><path class="cls-10" d="M44,52h.73a8,8,0,0,0,8-8h0"/><path class="cls-8" d="M83.7,50.36a8.55,8.55,0,1,1,0,17.1"/><path class="cls-10" d="M80.17,63.71a8.55,8.55,0,1,1-5.53,16.18l-.3,1.54a7,7,0,0,1-8.57,8.74l-.09,0a5.73,5.73,0,0,1-4-5.54V56.46"/><path class="cls-10" d="M82.4,51a8.55,8.55,0,1,0-9.16-14.44l.18.1A7,7,0,0,0,67.76,26.2,7.07,7.07,0,0,0,64,27l-.28.18a5,5,0,0,0-2,4.11V43.52a6.07,6.07,0,0,0,6.07,6.07h0"/><path class="cls-10" d="M70.46,64.66h-.73a8,8,0,0,0-8,8h0"/><circle class="cls-9" cx="13.11" cy="42.01" r="5.42"/><circle class="cls-9" cx="103.62" cy="74.53" r="5.42"/><circle class="cls-9" cx="29.77" cy="10.7" r="10.6"/><circle class="cls-9" cx="90.23" cy="105.13" r="10.6"/></g></svg>