<svg id="Layer_1" data-name="Layer 1" xmlns="http://www.w3.org/2000/svg" viewBox="0 0 116.48 116.48"><defs><style>.cls-1{fill:#bf4f24;}.cls-2{fill:#f9edcf;}.cls-3{fill:#d17838;}.cls-4{fill:#3dadad;}.cls-5{fill:none;stroke:#f9edcf;stroke-miterlimit:10;stroke-width:3px;}</style></defs><title>content</title><path class="cls-1" d="M58.34,113.58a55.35,55.35,0,1,1,55.35-55.34A55.41,55.41,0,0,1,58.34,113.58Z"/><path class="cls-2" d="M58.34,5.39A52.85,52.85,0,1,1,5.5,58.24,52.85,52.85,0,0,1,58.34,5.39m0-5a57.85,57.85,0,1,0,57.85,57.85A57.91,57.91,0,0,0,58.34.39Z"/><path class="cls-1" d="M58.34,102.26a44,44,0,1,1,44-44A44.07,44.07,0,0,1,58.34,102.26Z"/><path class="cls-3" d="M58.34,16.72A41.52,41.52,0,1,1,16.82,58.24,41.52,41.52,0,0,1,58.34,16.72m0-5a46.52,46.52,0,1,0,46.53,46.52A46.57,46.57,0,0,0,58.34,11.72Z"/><path class="cls-1" d="M58.34,91A32.79,32.79,0,1,1,91.13,58.24,32.82,32.82,0,0,1,58.34,91Z"/><path class="cls-3" d="M58.34,28A30.29,30.29,0,1,1,28.06,58.24,30.29,30.29,0,0,1,58.34,28m0-5A35.29,35.29,0,1,0,93.63,58.24,35.33,35.33,0,0,0,58.34,23Z"/><circle class="cls-3" cx="58.34" cy="58.24" r="21.1"/><path class="cls-3" d="M58.34,39.64a18.6,18.6,0,1,1-18.59,18.6,18.6,18.6,0,0,1,18.59-18.6m0-5a23.6,23.6,0,1,0,23.6,23.6,23.62,23.62,0,0,0-23.6-23.6Z"/><rect class="cls-4" x="44.53" y="19.22" width="27.63" height="78.03" transform="translate(-24.09 58.31) rotate(-45)"/><path class="cls-2" d="M40.52,23,93.58,76.06,76.16,93.48l-53-53.06L40.52,23m0-4.24L38.4,20.88,21,38.3l-2.13,2.12L21,42.54,74,95.6l2.12,2.12,2.13-2.12L95.7,78.18l2.12-2.12L95.7,73.94l-53-53.06-2.13-2.12Z"/><line class="cls-5" x1="89.39" y1="71.86" x2="83.76" y2="77.49"/><line class="cls-5" x1="83.01" y1="65.48" x2="77.38" y2="71.11"/><line class="cls-5" x1="76.62" y1="59.1" x2="71" y2="64.73"/><line class="cls-5" x1="70.24" y1="52.72" x2="64.62" y2="58.35"/><line class="cls-5" x1="63.86" y1="46.34" x2="58.24" y2="51.97"/><line class="cls-5" x1="57.48" y1="39.96" x2="51.85" y2="45.59"/><line class="cls-5" x1="51.1" y1="33.58" x2="45.47" y2="39.2"/><line class="cls-5" x1="44.72" y1="27.2" x2="39.09" y2="32.82"/><circle class="cls-2" cx="76.26" cy="85.18" r="2.78"/><path class="cls-3" d="M27.49,90.59a1.5,1.5,0,0,1-1.37-2.1l5.77-13.08A1.39,1.39,0,0,1,32.2,75L76.92,30.24a1.5,1.5,0,0,1,2.12,0l7.31,7.3a1.5,1.5,0,0,1,0,2.12L41.63,84.38a1.55,1.55,0,0,1-.46.31L28.09,90.47A1.57,1.57,0,0,1,27.49,90.59Z"/><path class="cls-2" d="M78,31.3l7.3,7.3L40.56,83.32,27.49,89.09,33.26,76,78,31.3m0-3a3,3,0,0,0-2.12.88L31.14,73.9a3,3,0,0,0-.62.91L24.74,87.88a3,3,0,0,0,4,4l13.08-5.77a3,3,0,0,0,.91-.63L87.41,40.72a3,3,0,0,0,0-4.24l-7.31-7.3A3,3,0,0,0,78,28.3Z"/><line class="cls-5" x1="33.26" y1="76.02" x2="40.84" y2="83.6"/><rect class="cls-3" x="78.1" y="25.97" width="11.69" height="13.33" transform="translate(1.51 68.92) rotate(-45)"/><path class="cls-2" d="M83.37,25.91l7.3,7.3-6.14,6.15-7.31-7.3,6.15-6.15m0-4.25-2.12,2.13L75.1,29.93,73,32.06l2.12,2.12,7.31,7.3,2.12,2.12,2.12-2.12,6.15-6.15,2.12-2.12L92.8,31.09l-7.31-7.3-2.12-2.13Z"/></svg>