<svg id="Layer_1" data-name="Layer 1" xmlns="http://www.w3.org/2000/svg" xmlns:xlink="http://www.w3.org/1999/xlink" viewBox="0 0 116.48 116.48"><defs><style>.cls-1{fill:#fff;}.cls-2{fill:#3dadad;}.cls-3{fill:#f9edcf;}.cls-4{fill:#2d936c;stroke:#343151;}.cls-4,.cls-7{stroke-miterlimit:10;stroke-width:3px;}.cls-5{fill:#343151;}.cls-6{mask:url(#mask);}.cls-7{fill:#d17838;stroke:#f9edcf;}</style><mask id="mask" x="27.3" y="33.35" width="55.81" height="55.28" maskUnits="userSpaceOnUse"><circle class="cls-1" cx="57.59" cy="58.87" r="25.52"/></mask></defs><title>force</title><circle class="cls-2" cx="58.25" cy="58.25" r="55.34"/><path class="cls-3" d="M58.25,5.4A52.85,52.85,0,1,1,5.41,58.25,52.85,52.85,0,0,1,58.25,5.4m0-5a57.85,57.85,0,1,0,57.84,57.85A57.91,57.91,0,0,0,58.25.4Z"/><circle class="cls-4" cx="57.69" cy="58.87" r="36.47"/><circle class="cls-5" cx="57.59" cy="58.87" r="25.52"/><g class="cls-6"><polygon class="cls-7" points="71.96 66.22 62.76 75.42 53.63 75.28 42.4 86.51 29.43 73.54 41.55 61.41 46.24 52.05 51.87 47.36 58.81 48.59 71.96 66.22"/><path class="cls-7" d="M67.78,68.38a2.66,2.66,0,0,0,2.7-.68l3-3a3.48,3.48,0,0,0,.18-5A6.41,6.41,0,0,0,73,59.3a3.54,3.54,0,0,0-4.61.49l-2.86,2.86a2.7,2.7,0,0,0-.6,2.92A4.63,4.63,0,0,0,67.78,68.38Z"/><path class="cls-7" d="M62.78,63.41a2.53,2.53,0,0,0,2.61-.6L72,56.25A3.39,3.39,0,0,0,72,51.4l-.57-.48a3.41,3.41,0,0,0-4.49.37l-6.48,6.47A2.58,2.58,0,0,0,60,60.6,4.81,4.81,0,0,0,62.78,63.41Z"/><path class="cls-7" d="M57.79,58.42a2.52,2.52,0,0,0,2.62-.59L67,51.27a3.38,3.38,0,0,0,0-4.85,6.44,6.44,0,0,0-.57-.49A3.43,3.43,0,0,0,62,46.3l-6.47,6.47A2.58,2.58,0,0,0,55,55.61,4.83,4.83,0,0,0,57.79,58.42Z"/><path class="cls-7" d="M52.82,53.42a2.66,2.66,0,0,0,2.7-.68l4.18-4.18a3.48,3.48,0,0,0,.18-5c-.19-.17-.38-.33-.58-.48a3.54,3.54,0,0,0-4.61.49L50.6,47.69a2.71,2.71,0,0,0-.6,2.92A4.63,4.63,0,0,0,52.82,53.42Z"/><path class="cls-7" d="M42.26,63.88l-1.59-6.26,3.69-7.69,6.51-3,12.3,8.28S59,60.79,54.33,58.59l-3.85-2.86v-3"/></g><circle class="cls-3" cx="34.38" cy="34.12" r="11.25"/></svg>