<svg id="Layer_1" data-name="Layer 1" xmlns="http://www.w3.org/2000/svg" xmlns:xlink="http://www.w3.org/1999/xlink" viewBox="0 0 116.48 116.48"><defs><style>.cls-1{fill:#fff;}.cls-2{fill:#d17838;}.cls-3{fill:#f9edcf;}.cls-4{mask:url(#mask);}.cls-5,.cls-7{fill:#3dadad;}.cls-6{fill:#343151;}.cls-6,.cls-7,.cls-8{stroke:#f9edcf;stroke-linejoin:round;stroke-width:3px;}.cls-8{fill:none;stroke-linecap:round;}</style><mask id="mask" x="5.4" y="-0.83" width="105.69" height="111.95" maskUnits="userSpaceOnUse"><circle class="cls-1" cx="58.24" cy="58.28" r="52.84"/></mask></defs><title>learning</title><path class="cls-2" d="M58.24,113.62a55.35,55.35,0,1,1,55.35-55.34A55.41,55.41,0,0,1,58.24,113.62Z"/><path class="cls-3" d="M58.24,5.43A52.85,52.85,0,1,1,5.4,58.28,52.85,52.85,0,0,1,58.24,5.43m0-5a57.85,57.85,0,1,0,57.85,57.85A57.91,57.91,0,0,0,58.24.43Z"/><g class="cls-4"><path class="cls-5" d="M71.92-.83H44.28L16.86,19.41,30.61,49.86A44.43,44.43,0,0,1,58,60.29v.25l.15-.12.14.12v-.25A44.47,44.47,0,0,1,85.59,49.86L99.33,19.41Z"/></g><path class="cls-3" d="M70.32,18.73A11.77,11.77,0,0,0,60,24.12l-7,10.36A7.45,7.45,0,0,1,39.2,30.14a7.5,7.5,0,0,1,7.08-7.08h.34a5.89,5.89,0,0,1,4.51,2.15l1.81,2.16,2.74-3.47-1.23-1.47a10.21,10.21,0,0,0-7.91-3.7h-.46a11.84,11.84,0,0,0-11.2,11.21,11.77,11.77,0,0,0,21.66,6.92l7-10.36a7.44,7.44,0,1,1,6.24,11.43h0a5.94,5.94,0,0,1-4.44-2.09l-2-2.29-2.53,3.7,1.21,1.41a10.3,10.3,0,0,0,7.77,3.61A11.78,11.78,0,0,0,81.61,29.94,11.83,11.83,0,0,0,70.32,18.73Z"/><path class="cls-6" d="M58.24,67.28v33.36l-.57-.4a58.66,58.66,0,0,0-27.41-9.69l-8.35-.81V56.38l7.31.61"/><path class="cls-7" d="M58.24,93.9l-.47-.4a42.74,42.74,0,0,0-22.42-9.69L28.52,83V49.64l6,.61A42.7,42.7,0,0,1,58.24,60.54h0Z"/><path class="cls-6" d="M58.24,67.28v33.36l.58-.4a58.62,58.62,0,0,1,27.41-9.69l8.34-.81V56.38l-7.3.61"/><path class="cls-7" d="M58.24,93.9l.48-.4a42.74,42.74,0,0,1,22.42-9.69L88,83V49.64l-6,.61A42.76,42.76,0,0,0,58.24,60.54h0Z"/><path class="cls-8" d="M36,58.18A30,30,0,0,1,52.62,65.4"/><path class="cls-8" d="M36,66.56a30,30,0,0,1,16.67,7.23"/><path class="cls-8" d="M36,75a30,30,0,0,1,16.67,7.22"/><path class="cls-8" d="M80.54,58.18A30,30,0,0,0,63.87,65.4"/><path class="cls-8" d="M80.54,66.56a30,30,0,0,0-16.67,7.23"/><path class="cls-8" d="M80.54,75a30,30,0,0,0-16.67,7.22"/></svg>