<svg id="Layer_1" data-name="Layer 1" xmlns="http://www.w3.org/2000/svg" xmlns:xlink="http://www.w3.org/1999/xlink" viewBox="0 0 116.48 116.48"><defs><style>.cls-1{fill:#fff;}.cls-2,.cls-8{fill:#3dadad;}.cls-3{fill:#f9edcf;}.cls-4{mask:url(#mask);}.cls-5,.cls-6{fill:#d17838;}.cls-10,.cls-5,.cls-6,.cls-7,.cls-8,.cls-9{stroke:#f9edcf;stroke-linejoin:round;}.cls-5{stroke-width:4.08px;}.cls-10,.cls-6,.cls-7,.cls-8,.cls-9{stroke-width:3px;}.cls-7{fill:#343151;}.cls-10,.cls-9{fill:none;}.cls-9{stroke-linecap:round;}.cls-11{fill:#bf4f24;}</style><mask id="mask" x="5.39" y="5.28" width="105.69" height="116.32" maskUnits="userSpaceOnUse"><circle class="cls-1" cx="58.24" cy="58.13" r="52.84"/></mask></defs><title>talents</title><path class="cls-2" d="M58.24,113.47a55.35,55.35,0,1,1,55.34-55.34A55.4,55.4,0,0,1,58.24,113.47Z"/><path class="cls-3" d="M58.24,5.28A52.85,52.85,0,1,1,5.39,58.13,52.85,52.85,0,0,1,58.24,5.28m0-5a57.85,57.85,0,1,0,57.84,57.85A57.91,57.91,0,0,0,58.24.28Z"/><g class="cls-4"><polygon class="cls-5" points="92.81 119.56 23.66 119.56 17.54 77.45 98.94 77.45 92.81 119.56"/><path class="cls-6" d="M80.22,25.07h-44a17.91,17.91,0,0,0-17,12.35l-2.17,6.64H99.42l-2.16-6.64A17.92,17.92,0,0,0,80.22,25.07Z"/><polygon class="cls-7" points="93.22 60.53 23.25 60.53 17.05 44.06 99.42 44.06 93.22 60.53"/><polygon class="cls-7" points="93.22 60.53 23.25 60.53 17.05 77 99.42 77 93.22 60.53"/><path class="cls-3" d="M48.86,79.31H67.62a0,0,0,0,1,0,0V85a9.38,9.38,0,0,1-9.38,9.38h0A9.38,9.38,0,0,1,48.86,85V79.31a0,0,0,0,1,0,0Z"/><polyline class="cls-8" points="81.6 51.12 58.24 77 34.87 51.12"/><polygon class="cls-8" points="81.69 51 34.78 51 43.31 39.88 73.17 39.88 81.69 51"/><line class="cls-9" x1="43.89" y1="41.64" x2="51.06" y2="51"/><line class="cls-9" x1="58.24" y1="41.64" x2="65.41" y2="51"/><line class="cls-9" x1="51.06" y1="51" x2="58.24" y2="41.64"/><line class="cls-9" x1="65.41" y1="51" x2="72.59" y2="41.64"/><line class="cls-10" x1="51.06" y1="51" x2="58.24" y2="77"/><line class="cls-10" x1="65.41" y1="51" x2="58.24" y2="77"/><rect class="cls-11" x="55.64" y="79.75" width="5.19" height="8.58" rx="2.59"/></g></svg>