<svg id="Layer_1" data-name="Layer 1" xmlns="http://www.w3.org/2000/svg" xmlns:xlink="http://www.w3.org/1999/xlink" viewBox="0 0 116.48 116.48"><defs><style>.cls-1{fill:#fff;}.cls-2{fill:#2d936c;}.cls-3{fill:#f9edcf;}.cls-4{mask:url(#mask);}.cls-5{fill:#3dadad;}.cls-5,.cls-7{stroke:#f9edcf;}.cls-5,.cls-6,.cls-7{stroke-miterlimit:10;stroke-width:4px;}.cls-6{fill:none;stroke:#3dadad;}.cls-7{fill:#343151;}.cls-8{fill:#d17838;}</style><mask id="mask" x="-6.84" y="5.53" width="145.45" height="110.45" maskUnits="userSpaceOnUse"><circle class="cls-1" cx="58.28" cy="58.37" r="52.84"/></mask></defs><title>values</title><path class="cls-2" d="M58.28,113.72a55.35,55.35,0,1,1,55.35-55.35A55.4,55.4,0,0,1,58.28,113.72Z"/><path class="cls-3" d="M58.28,5.53A52.85,52.85,0,1,1,5.44,58.37,52.85,52.85,0,0,1,58.28,5.53m0-5a57.85,57.85,0,1,0,57.85,57.84A57.91,57.91,0,0,0,58.28.53Z"/><g class="cls-4"><polyline class="cls-5" points="38.85 33.67 38.85 25.37 76.26 25.37 76.26 33.67"/><line class="cls-6" x1="35.26" y1="52.89" x2="17.19" y2="52.89"/><line class="cls-6" x1="10.62" y1="33.68" x2="26.23" y2="33.68"/><line class="cls-6" x1="74.73" y1="14.28" x2="138.61" y2="14.28"/><line class="cls-6" x1="-0.8" y1="14.28" x2="60.03" y2="14.28"/><line class="cls-6" x1="-6.84" y1="70.24" x2="23.57" y2="70.24"/><line class="cls-6" x1="77.12" y1="48.39" x2="119.83" y2="48.39"/><line class="cls-6" x1="53.87" y1="68.07" x2="96.58" y2="68.07"/><polyline class="cls-5" points="33.37 97.91 33.37 33.29 81.74 33.29 81.74 97.91"/><polyline class="cls-5" points="61.91 96.68 61.91 79.97 71.8 79.97 71.8 96.68"/><polyline class="cls-7" points="8.19 115.98 8.19 97.91 106.92 97.91 106.92 115.98"/><circle class="cls-3" cx="57.55" cy="56.46" r="17.67"/><path class="cls-8" d="M68.88,49.41a6.07,6.07,0,0,0-6.13-2.8c-2.26.39-5,2-5.21,4.5-.31-2.93-4-4.76-6.61-4.59a6.3,6.3,0,0,0-5.68,5.78c-.26,3.17,1.53,5.56,3.46,7.88a55.66,55.66,0,0,0,8.83,7.89,54.21,54.21,0,0,0,9.69-9C69.4,56.36,71,52.75,68.88,49.41Z"/><rect class="cls-5" x="42.56" y="79.97" width="9.89" height="9.89"/></g></svg>