<svg xmlns="http://www.w3.org/2000/svg" viewBox="0 0 500 500"><title>talent</title><g id="Calque_1" data-name="Calque 1"><rect width="500" height="500" style="fill:#343151"/></g><g id="TALENT"><path d="M445.89,198l-133-21.33-69-123.84L174.81,187H42l96.89,106.32L119.17,436.16l126.3-80.65,118.81,86.34-12-156.8ZM243.83,318.53l-91,62.12L167,279.88l-69-69L201.7,199.32l42.13-84.66,46,84.53,99.88,11.54-65.3,59.16,19.19,110.89Z" style="fill:#f5e873"/><polygon points="243.96 152.06 222.6 211.16 150.36 222.76 197.16 261.21 181.55 329.38 243.96 299.8 309.63 329.38 293.19 266.54 339.17 220.62 267 212.73 243.96 152.06" style="fill:#f05"/></g></svg>