<svg xmlns="http://www.w3.org/2000/svg" viewBox="0 0 500 500"><title>objectifs</title><g id="Calque_1" data-name="Calque 1"><rect width="500" height="500" style="fill:#343151"/></g><g id="TARGET"><polygon points="209.31 248.37 234.44 215.55 266.43 226.98 274.42 261.27 242.43 280.69 209.31 248.37" style="fill:#f05"/><path d="M348.53,65,200.61,40.67,81.29,111.23l-43,138.5L79.38,374.05l162.37,84.74,173.7-79.3L450,188.55Zm28.73,292.61L237.47,406.9,108.25,338.11l-27-93.92,29.92-99.74,93.41-63L326.77,99.8l76.17,105.86Z" style="fill:#fff"/><path d="M311.14,132.53,201.36,120.68l-57.2,35.43L111,241.82l18.44,85.74,113.15,48,105-48,28.54-106.3Zm5.15,171-73.51,33.5-79-33.5L151,243.71l23.13-59.81,39.9-24.72,76.58,8.25,45.43,61.93Z" style="fill:#fff"/></g></svg>