<svg xmlns="http://www.w3.org/2000/svg" viewBox="0 0 500 500"><title>competences</title><g id="Calque_1" data-name="Calque 1"><rect width="500" height="500" style="fill:#343151"/></g><g id="COMPETENCE"><polygon points="110.29 327.88 70.43 367.64 80.7 413.49 131.29 434.04 164.94 401.08 122.7 375.53 110.29 327.88" style="fill:#fff"/><polygon points="433.3 108.78 449 51.5 390.81 73.66 404.72 99.95 433.3 108.78" style="fill:#fff"/><polygon points="379.38 78.04 349.4 89.43 119.33 318.88 132.69 365.82 174.76 391.65 422.11 149.52 430.04 120.7 390.81 106.86 379.38 78.04" style="fill:#03e8fc"/><polygon points="189.76 158.99 188.18 98.93 156.7 51.5 103.03 51.5 139.56 97.36 139.56 143.21 89.32 143.21 40 97.36 40 143.21 70.43 184.29 139.56 184.29 184.43 235.2 230.39 192.04 189.76 158.99" style="fill:#03e8fc"/><path d="M371.81,304.64,316.07,269.8l-59.35,55,26.61,38.56,107.17,70.85L430,407.29Zm15.53,105.62-19-20.54,19-15.81,17.53,25.31Z" style="fill:#03e8fc"/></g></svg>