<svg xmlns="http://www.w3.org/2000/svg" viewBox="0 0 500 500"><title>strategie</title><g id="Calque_1" data-name="Calque 1"><rect width="500" height="500" style="fill:#343151"/></g><g id="STRATEGIE"><polygon points="383 386.37 367.9 386.37 367.9 353.43 288.72 351.46 288.82 357.33 298.3 357.33 298.3 388.9 318.08 394.52 321.54 425.84 383 427.83 383 386.37" style="fill:#fff"/><polygon points="318.08 250.26 288.1 314.5 288.57 342.01 361.04 340.26 339.39 225.28 340.2 157.8 352.46 123.76 322.76 123.76 322.76 93.25 339.92 93.75 339.92 66.92 322.76 68.58 322.76 43.93 294.09 43.93 294.09 67.42 273.47 67.42 273.47 90.91 287.07 90.91 287.07 121.42 255.56 121.42 263.8 151.99 288.1 156.89 318.08 250.26" style="fill:#fff"/><polygon points="132.96 436.6 132.96 404.31 148.06 404.31 148.06 371.34 286.76 367.9 286.76 402.25 306.66 402.25 310.78 440 132.96 436.6" style="fill:#f5e873"/><path d="M279.9,164.85l-58-16.63L178.2,127.6l16.5,33.66L172,171.93,168,185.28,117.83,219.6v31l36.41,10.86,20.59-19.22,16.5,15.1,35-11.67-63.17,56.15V363l115.43-3.43L280,311.47l26.7-60.83ZM199.47,195l-12.79-6.46,16.28-7,15,4.37Z" style="fill:#f5e873"/></g></svg>