<svg id="Calque_1" data-name="Calque 1" xmlns="http://www.w3.org/2000/svg" xmlns:xlink="http://www.w3.org/1999/xlink" viewBox="0 0 60.22 53.15"><defs><clipPath id="clip-path"><rect width="60.22" height="53.15" style="fill:none"/></clipPath></defs><title>ico-euro</title><polygon points="4.78 0 1.15 4.01 0 49.52 4.78 53.15 55.44 53.15 60.22 49.52 59.27 4.01 55.44 0 4.78 0" style="fill:#343051"/><g style="clip-path:url(#clip-path)"><path d="M12,14.08c.16-.24,14.23-10.44,14.23-10.44l14.9,3.63L52,20.54,48.4,40.31,30.33,49.52,12,38.55,8.27,24.45Z" style="fill:#f5e873"/></g><polygon points="38.76 22.01 43.87 16.39 34.45 10.29 24.52 12.13 19.1 17.91 18.14 20.23 13.53 20.66 13.53 24.11 17.49 24.26 18.11 26.15 13.53 26.15 10.66 29.78 17.54 29.16 21.27 37.39 31.78 40.71 42.19 35.35 44.15 32.52 38.19 29.18 34.17 32.33 29.7 32.49 26.43 28.92 31.08 29.16 32.29 26.15 27.4 26.15 27.4 24.66 33.03 24.66 33.65 20.66 25.86 20.66 29.45 17.59 33.6 16.56 38.76 22.01" style="fill:#343051"/></svg>