<svg xmlns="http://www.w3.org/2000/svg" viewBox="0 0 500 500"><title>envies</title><g id="Calque_1" data-name="Calque 1"><rect width="500" height="500" style="fill:#343151"/></g><g id="FIRE"><path d="M190.25,449l-93.5-62V252.29l93.5-88.6,21-64.49L180.59,17s98.33,74.08,103.16,77.3,45.14,90.28,45.14,90.28l14.52,87,27.4-38.67V183l50,58,16.1,82.2-66.07,85.62-104,40.07L316,389.22l-6.44-85.35-75.11-108-20,82.2-64.49,38.7,16.78,74.15Z" style="fill:#f05"/><polygon points="225.73 457 182.2 406.21 166.72 341.58 225.73 289.38 241.21 224.89 287.62 301.88 302.14 386.07 225.73 457 225.73 457" style="fill:#f5e873"/></g></svg>