<svg xmlns="http://www.w3.org/2000/svg" viewBox="0 0 500 500"><title>idees</title><g id="Calque_1" data-name="Calque 1"><rect width="500" height="500" style="fill:#343151"/></g><g id="IDEA"><polygon points="152.34 363.5 167.29 382.16 329.05 382.16 345.19 363.5 329.05 348.55 169.78 348.55 152.34 363.5" style="fill:#fff"/><polygon points="152.34 402.04 163.54 419.48 329.05 420.7 345.19 402.04 330.27 389.62 164.81 389.62 152.34 402.04" style="fill:#fff"/><polygon points="176.01 431.91 219.53 449.35 231.99 461.21 274.29 461.21 284.23 446.58 327.78 431.91 176.01 431.91" style="fill:#fff"/><polygon points="296.69 179.37 255.63 199.26 246.91 166.98 228.25 201.74 195.9 166.98 228.25 257.73 232.76 339.86 258.6 339.86 263.08 260.21 296.69 179.37" style="fill:#fff"/><polygon points="315.36 50 210.85 38.76 117.54 115.89 103.85 226.64 154.86 297.53 163.54 339.86 212.07 339.86 212.07 260.21 172.26 149.5 222.05 166.98 254.37 139.56 270.54 166.98 321.55 139.56 284.23 261.47 283.11 339.86 327.78 339.86 345.19 296.31 390 237.84 390 131.58 315.36 50" style="fill:#f5e873"/></g></svg>