<svg xmlns="http://www.w3.org/2000/svg" viewBox="0 0 500 500"><title>reseau</title><g id="Calque_1" data-name="Calque 1"><rect width="500" height="500" style="fill:#343151"/></g><g id="NETWORK"><polygon points="124.44 224.14 209.99 265.95 227.39 250.5 141.78 207.95 124.44 224.14" style="fill:#fff"/><polygon points="244.8 231.17 244.8 135.51 270.87 145.53 270.87 231.17 244.8 231.17" style="fill:#fff"/><polygon points="288.28 231.17 379.73 135.51 403.24 155.8 306.42 252.17 288.28 231.17" style="fill:#fff"/><polygon points="307.58 297.83 367.5 378.24 345.15 387.27 285.36 312.32 307.58 297.83" style="fill:#fff"/><polygon points="234.17 315.24 160.73 389.23 141.78 373.2 220.62 293.98 234.17 315.24" style="fill:#fff"/><path d="M297.94,226.32l-56.07-6.74L201.32,265s18.34,48.17,17.37,52.18,59,9.63,59,9.63l40.56-38.63Zm-24.66,78.29H234.17L220.62,265l25.14-20.29L286.32,240l14.39,38.53Z" style="fill:#f05"/><path d="M300.7,74.2l-54-17.79L210,92l10.63,41.55,40.59,22.22,51.38-28.9Zm-12.43,42.93L259,135.51l-25.69-11.59V97.81l15.45-14.48c2.89,0,34.78,4.82,34.78,4.82Z" style="fill:#f05"/><path d="M463,138.17l-7.48-56.49-48.17-17.6L374.56,91.74l-2.38,46.21,48.36,33.53Zm-44.12,7.32L389.59,127l-.74-28.32,23.51-11.34L432.11,95c1.28,2.6,10.79,33.43,10.79,33.43Z" style="fill:#f05"/><path d="M144.54,451.33l24.18-51.57L137.8,359l-42.61,5.56L68.28,402.23l22.48,54.3Zm-41.1-17.6L88.76,402.33l14.58-24.24,25.91,3.21,12.52,17.08c-.35,2.89-9,34-9,34Z" style="fill:#f05"/><path d="M132.47,158.82,76.79,146.87,44,186l14.9,40.2,42.71,17.89,47.88-34.17Zm-8,44-27.3,21.32-26.78-8.86-2.7-25.95,13.87-16.06c2.86-.29,35.1,1.19,35.1,1.19Z" style="fill:#f05"/><path d="M430.92,418.74l-19.27-53.63L361,357.95l-26.27,33.88,7.35,45.7L396.4,460Zm-41.75,16.44-32.53-11.95L350,395.84l20.62-16.06L391.55,383c1.8,2.28,17.53,30.44,17.53,30.44Z" style="fill:#f05"/></g></svg>