<?xml version="1.0" encoding="utf-8"?>
<!-- Generator: Adobe Illustrator 21.1.0, SVG Export Plug-In . SVG Version: 6.00 Build 0)  -->
<svg version="1.1" id="Layer_1" xmlns="http://www.w3.org/2000/svg" xmlns:xlink="http://www.w3.org/1999/xlink" x="0px" y="0px"
	 viewBox="0 0 210 185.3" style="enable-background:new 0 0 210 185.3;" xml:space="preserve">
<style type="text/css">
	.st0{fill:#3B2B52;}
	.st1{fill:#FFFFFF;}
	.st2{fill:#F5E873;}
	.st3{fill:#03E8FC;}
</style>
<title>calendar</title>
<polygon class="st0" points="0,12.7 16.7,0 193.3,0 210,12.7 206,171.3 193.3,185.3 16.7,185.3 3.3,171.3 "/>
<polygon class="st1" points="21.1,168.3 189.3,164.8 184.6,71.5 26,66.3 "/>
<polygon class="st2" points="20.1,33 189.8,28.6 191.9,71.7 18.7,72 "/>
<polygon class="st1" points="43,21.7 57.3,17.8 60,40.3 43,40.3 "/>
<polygon class="st1" points="150.3,40.3 154.7,17.8 168,17.8 171.7,38.3 "/>
<polygon class="st1" points="96.8,17.8 114,17.8 114,40.3 95.9,40.3 "/>
<polygon class="st3" points="71.1,81.5 73.8,106.8 97.3,103 96.4,81.5 "/>
<polygon class="st3" points="136.7,81 111.4,83.7 115.2,107.2 136.7,106.3 "/>
<polygon class="st3" points="177.8,106.8 175,81.5 151.6,85.2 152.5,106.8 "/>
<polygon class="st3" points="152,143.4 177.3,140.7 173.5,117.2 152,118.1 "/>
<polygon class="st3" points="71.1,143.4 96.4,140.7 92.6,117.2 71.1,118.1 "/>
<polygon class="st3" points="111,117.7 113.7,143 137.2,139.2 136.3,117.7 "/>
<polygon class="st3" points="56.1,117.2 30.8,119.9 34.6,143.4 56.1,142.5 "/>
</svg>
