<?xml version="1.0" encoding="utf-8"?>
<!-- Generator: Adobe Illustrator 22.1.0, SVG Export Plug-In . SVG Version: 6.00 Build 0)  -->
<svg version="1.1" id="Calque_1" xmlns="http://www.w3.org/2000/svg" xmlns:xlink="http://www.w3.org/1999/xlink" x="0px" y="0px"
	 viewBox="0 0 449.2 689.6" style="enable-background:new 0 0 449.2 689.6;" xml:space="preserve">
<style type="text/css">
	.st0{fill:#FFFFFF;}
	.st1{fill:#FF0055;}
</style>
<polygon class="st0" points="57.7,383.1 63.4,689.6 89.8,689.6 90.5,408.9 240.4,348.8 228.6,689.6 318.4,689.6 323.7,351.4 
	251,313.1 "/>
<polygon class="st0" points="165.1,299.9 165.1,326.3 344.8,248.8 350.1,689.6 432,689.6 449.2,276.1 345.7,199.7 "/>
<polygon class="st0" points="107,433.3 206.1,395 206.1,447.9 107,473 "/>
<polygon class="st0" points="107,501.4 209,473 209,533.7 107,545.5 "/>
<polygon class="st0" points="107,570.7 107,615.6 203.4,615.6 203.4,560.1 "/>
<polygon class="st0" points="107,642.1 107,689.6 198.2,689.6 203.4,636.8 "/>
<path class="st1" d="M222.2,75.1l-37.2-24.2L221.8,34l38.7,19.3l-3.7,44.5l-33,10.6L222.2,75.1z M146.6,38.8l-25.1,57.8L88.1,46.6
	l-52.4,6.9L0,97.8v0l31.7,117.6l105.7,119.9V322l4-37L274.5,204l14.8-160.4L216.7,0L146.6,38.8z"/>
</svg>
