<svg id="Calque_1" data-name="Calque 1" xmlns="http://www.w3.org/2000/svg" viewBox="0 0 154 154"><title>number-3</title><circle cx="77" cy="77" r="77" style="fill:#02e8fd"/><path d="M112.92,92.11c0,14.38-11.73,23.58-29.9,23.58-11.73,0-20.82-3.91-26.68-11l8.74-10.93c3.91,5.06,9.2,7.94,17.37,7.94,9.32,0,14.49-3.68,14.49-11.27C96.94,82.44,91.3,78,79.8,78H76.58V66.46h3.56C89.46,66.46,95,61.74,95,55.19c0-6.21-4.71-9.32-11.5-9.32a18.49,18.49,0,0,0-16.33,9.2L57.49,44.26c4.6-7,15.76-11.73,27.72-11.73,15.53,0,26.22,8.17,26.22,20.36,0,9.09-5.87,17.14-14.61,18.75C106.48,73.24,112.92,81.41,112.92,92.11Z" style="fill:#343151"/><path d="M50.39,86.15H45L43.8,91.22h4.85v3.7H42.91l-1.7,6.92h-4L39,94.92H34.51l-1.67,6.92h-4l1.7-6.92H26.41v-3.7h5l1.22-5.07H28.15V82.67h5.37l1.74-7.1h4l-1.78,7.1h4.44l1.7-7.1h4l-1.74,7.1h4.51ZM39.84,91.22,41,86.15h-4.4L35.4,91.22Z" style="fill:#343151"/></svg>