<svg id="Calque_1" data-name="Calque 1" xmlns="http://www.w3.org/2000/svg" viewBox="0 0 154 154"><title>number-2</title><circle cx="77" cy="77" r="77" style="fill:#02e8fd"/><path d="M55.72,107.78c0-13.69,3.79-22,18.06-29.9C86.2,71,93.1,68.56,93.1,62.81c0-4.6-3.79-8.4-10.7-8.4-7.36,0-12.31,4.37-16.1,8.85L56.41,51.88C60.55,47.51,71.36,41,85.16,41c15.64,0,24.73,8.05,24.73,19.55,0,10.81-8.86,16.22-15.53,20-5.41,3-13.46,7.36-16.22,13.34h33v13.92Z" style="fill:#343151"/><path d="M50.39,86.15H45L43.8,91.22h4.85v3.7H42.91l-1.7,6.92h-4L39,94.92H34.51l-1.67,6.92h-4l1.7-6.92H26.41v-3.7h5l1.22-5.07H28.15V82.67h5.37l1.74-7.1h4l-1.78,7.1h4.44l1.7-7.1h4l-1.74,7.1h4.51ZM39.84,91.22,41,86.15h-4.4L35.4,91.22Z" style="fill:#343151"/></svg>