<svg id="Calque_1" data-name="Calque 1" xmlns="http://www.w3.org/2000/svg" viewBox="0 0 154 154"><title>number-1</title><circle cx="77" cy="77" r="77" style="fill:#02e8fd"/><path d="M108.94,94.86v13.92H62.25V94.86H78.58V60c-2.64,3.56-12.65,8.4-18.63,8.4V54c5.63,0,17.37-8.28,18.63-10.93H94.34V94.86Z" style="fill:#343151"/><path d="M50.39,86.15H45L43.8,91.22h4.85v3.7H42.91l-1.7,6.92h-4L39,94.92H34.51l-1.67,6.92h-4l1.7-6.92H26.41v-3.7h5l1.22-5.07H28.15V82.67h5.37l1.74-7.1h4l-1.78,7.1h4.44l1.7-7.1h4l-1.74,7.1h4.51ZM39.84,91.22,41,86.15h-4.4L35.4,91.22Z" style="fill:#343151"/></svg>