<svg class="prog-horiz-iki" id="Calque_1" data-name="Programme Ikigai de WAKE UP" xmlns="http://www.w3.org/2000/svg" viewBox="0 0 1482 210"><title>programme-horizontal-ikigai</title><rect x="342.5" y="0.5" width="760" height="209" style="fill:#343151"/><path d="M1102,1V209H343V1h759m1-1H342V210h761V0Z" style="fill:#343151"/><polygon points="470.5 104.5 430.17 0 0 0 0 210 430.02 210 470.5 104.5" style="fill:#f6e96a"/><polygon points="1001.53 0 1042 105 1001.41 210 1482 210 1482 0 1001.53 0" style="fill:#f6e96a"/><polygon points="983.02 210 1023.5 104.5 983.17 0 448.53 0 489 105 448.41 210 983.02 210" style="fill:#f6e96a"/><text transform="translate(42.83 93.73)" style="font-size:24.5px;fill:#ff0151;font-family:Raleway-Black, Raleway">SOIRÉE DE LANCEMEN<tspan x="265.33" y="0" style="letter-spacing:-0.028001434948979588em">T</tspan></text><text transform="translate(592.83 76.73)" style="font-size:24.5px;fill:#ff0151;font-family:Raleway-Black, Raleway">1 MOIS DE BILAN</text><text transform="translate(1117.83 93.73)" style="font-size:24.5px;fill:#ff0151;font-family:Raleway-Black, Raleway">SOIRÉE DE C<tspan x="147.54" y="0" style="letter-spacing:-0.008988360969387755em">L</tspan><tspan x="161.65" y="0" style="letter-spacing:-0.010981345663265306em">Ô</tspan><tspan x="180.12" y="0">TURE</tspan></text><text transform="translate(44.5 132.3)" style="font-size:23.200000762939453px;font-family:Raleway-Bold, Raleway;font-weight:700">Ren<tspan x="43.52" y="0" style="letter-spacing:-0.005998282399727315em">c</tspan><tspan x="56.47" y="0">o</tspan><tspan x="70.5" y="0" style="letter-spacing:-0.0019994274665757717em">n</tspan><tspan x="84.42" y="0">tr</tspan><tspan x="102.26" y="0" style="letter-spacing:-0.0069874728305595385em">e</tspan><tspan x="116.02" y="0">z les a</tspan><tspan x="184.95" y="0" style="letter-spacing:-0.0039988549331515435em">u</tspan><tspan x="199.29" y="0">tres élèves.</tspan></text><text transform="translate(1116.5 132.3)" style="font-size:23.200000762939453px;font-family:Raleway-Bold, Raleway;font-weight:700"><tspan style="letter-spacing:-0.004988045363983767em">O</tspan><tspan x="17.05" y="0">n clôture en fête.</tspan></text><text transform="translate(592.5 116.3)" style="font-size:23.200000762939453px;font-family:Raleway-Bold, Raleway;font-weight:700">4 <tspan x="18.65" y="0" style="letter-spacing:-0.00898690029713531em">a</tspan><tspan x="31.85" y="0">telie</tspan><tspan x="81.78" y="0" style="letter-spacing:-0.0019994274665757717em">r</tspan><tspan x="90.71" y="0">s </tspan><tspan x="0" y="35">&amp; </tspan><tspan x="22.16" y="35" style="letter-spacing:-0.019994274665757716em">e</tspan><tspan x="35.61" y="35">xercices hebdomadaires</tspan></text></svg>