<svg id="Calque_1" data-name="Calque 1" xmlns="http://www.w3.org/2000/svg" viewBox="0 0 470.99 632"><title>programme-vertical</title><rect width="470.99" height="632" style="fill:#343151"/><polygon points="236.44 205.41 470.99 158.45 470.99 0 0 0 0 158.07 236.44 205.41" style="fill:#f6e96a"/><polygon points="236.44 452.41 236.44 452.41 236.44 452.41 236.44 452.41 236.44 452.41 0 405.07 0 632 470.99 632 470.99 405.45 236.44 452.41" style="fill:#f6e96a"/><polygon points="236.44 437.11 470.99 390.15 470.99 173.74 236.44 220.71 236.44 220.71 236.44 220.71 236.44 220.71 236.44 220.71 0 173.36 0 389.77 236.44 437.11" style="fill:#f6e96a"/><text transform="translate(95.53 85.73)" style="font-size:24.5px;fill:#ff0151;font-family:Raleway-Black, Raleway">SOIRÉE DE LANCEMEN<tspan x="265.33" y="0" style="letter-spacing:-0.028001434948979588em">T</tspan></text><text transform="translate(136.26 288.73)" style="font-size:24.5px;fill:#ff0151;font-family:Raleway-Black, Raleway">1 MOIS DE BILAN</text><text transform="translate(113.11 524.23)" style="font-size:24.5px;fill:#ff0151;font-family:Raleway-Black, Raleway">SOIRÉE DE C<tspan x="147.54" y="0" style="letter-spacing:-0.008988360969387755em">L</tspan><tspan x="161.65" y="0" style="letter-spacing:-0.010981345663265306em">Ô</tspan><tspan x="180.12" y="0">TURE</tspan></text><text transform="translate(71.96 124.3)" style="font-size:23.200000762939453px;font-family:Raleway-Bold, Raleway;font-weight:700">Ren<tspan x="43.52" y="0" style="letter-spacing:-0.005998282399727315em">c</tspan><tspan x="56.47" y="0">o</tspan><tspan x="70.5" y="0" style="letter-spacing:-0.0019994274665757717em">n</tspan><tspan x="84.42" y="0">tr</tspan><tspan x="102.26" y="0" style="letter-spacing:-0.0069874728305595385em">e</tspan><tspan x="116.02" y="0">z les a</tspan><tspan x="184.95" y="0" style="letter-spacing:-0.0039988549331515435em">u</tspan><tspan x="199.29" y="0">tres élèves.</tspan></text><text transform="translate(132.02 562.8)" style="font-size:23.200000762939453px;font-family:Raleway-Bold, Raleway;font-weight:700"><tspan style="letter-spacing:-0.004988045363983767em">O</tspan><tspan x="17.05" y="0">n clôture en fête.</tspan></text><text transform="translate(184.25 328.3)" style="font-size:23.200000762939453px;font-family:Raleway-Bold, Raleway;font-weight:700">4 <tspan x="18.65" y="0" style="letter-spacing:-0.00898690029713531em">a</tspan><tspan x="31.85" y="0">telie</tspan><tspan x="81.78" y="0" style="letter-spacing:-0.0019994274665757717em">r</tspan><tspan x="90.71" y="0">s </tspan><tspan x="-103.6" y="35">&amp; </tspan><tspan x="-81.44" y="35" style="letter-spacing:-0.019994274665757716em">e</tspan><tspan x="-67.99" y="35">xercices hebdomadaires</tspan></text></svg>