<svg id="Calque_1" data-name="Calque 1" xmlns="http://www.w3.org/2000/svg" viewBox="0 0 904 442.33"><title>Fintech_360_circle</title><circle cx="446" cy="260.34" r="113.5" style="fill:none;stroke:#f5e873;stroke-miterlimit:10;stroke-width:7.04602196520985px"/><text transform="translate(184.62 369.78)" style="font-size:47.22792053222656px;fill:#1a1a1a;font-family:Raleway-Regular, Raleway"><tspan style="letter-spacing:-0.013988431499947175em">U</tspan><tspan x="35" y="0">se</tspan><tspan x="85.72" y="0" style="letter-spacing:-0.021990682779296115em">r</tspan><tspan x="-70.68" y="56.67" style="letter-spacing:-0.019984950546487724em">e</tspan><tspan x="-43.9" y="56.67">xperience</tspan></text><text transform="translate(620.01 369.78)" style="font-size:47.22792053222656px;fill:#1a1a1a;font-family:Raleway-Regular, Raleway"><tspan style="letter-spacing:-0.0020057322328083903em">C</tspan><tspan x="32.45" y="0">ode</tspan><tspan x="-110.39" y="56.67">&amp;</tspan><tspan x="-78.66" y="56.67" style="letter-spacing:-0.026984335709432466em"> </tspan><tspan x="-67.84" y="56.67">Techno</tspan><tspan x="97.64" y="56.67" style="letter-spacing:-0.000992527290461884em">l</tspan><tspan x="110.06" y="56.67">ogies</tspan></text><text transform="translate(653.07 146.59)" style="font-size:47.22792053222656px;fill:#1a1a1a;font-family:Raleway-Regular, Raleway">G<tspan x="34.1" y="0" style="letter-spacing:-0.023986076186162192em">r</tspan><tspan x="49.54" y="0" style="letter-spacing:-0.019995289372430034em">o</tspan><tspan x="76.7" y="0">wth</tspan><tspan x="-68.46" y="56.67">&amp;</tspan><tspan x="-36.72" y="56.67" style="letter-spacing:-0.030995800175049246em"> </tspan><tspan x="-26.09" y="56.67" style="letter-spacing:-0.01298556538354298em">A</tspan><tspan x="5.36" y="56.67" style="letter-spacing:-0.000992527290461884em">u</tspan><tspan x="33.37" y="56.67" style="letter-spacing:-0.01097983315073459em">t</tspan><tspan x="48.53" y="56.67">om</tspan><tspan x="119.89" y="56.67" style="letter-spacing:-0.006989046337002432em">a</tspan><tspan x="145.44" y="56.67">tion</tspan></text><text transform="translate(348.15 40.38)" style="font-size:47.22792053222656px;fill:#1a1a1a;font-family:Raleway-Regular, Raleway"><tspan style="letter-spacing:-0.000992527290461884em">B</tspan><tspan x="31.5" y="0">usiness </tspan><tspan x="14.88" y="56.67">models</tspan></text><text transform="translate(50.09 146.59)" style="font-size:47.22792053222656px;fill:#1a1a1a;font-family:Raleway-Regular, Raleway">N<tspan x="36.51" y="0" style="letter-spacing:-0.007991912453406627em">o</tspan><tspan x="64.23" y="0" style="letter-spacing:-0.0109901719766769em">t</tspan><tspan x="79.39" y="0">oriété </tspan><tspan x="-20.92" y="56.67">&amp; Influence</tspan></text><line x1="446.48" y1="150.18" x2="446.48" y2="119.84" style="fill:none;stroke:#f5e873;stroke-miterlimit:10;stroke-width:7.04602196520985px"/><line x1="342.48" y1="213.18" x2="314.5" y2="195.84" style="fill:none;stroke:#f5e873;stroke-miterlimit:10;stroke-width:7.04602196520985px"/><line x1="545.5" y1="213.18" x2="573.48" y2="195.84" style="fill:none;stroke:#f5e873;stroke-miterlimit:10;stroke-width:7.04602196520985px"/><line x1="344.48" y1="316.84" x2="316.5" y2="334.18" style="fill:none;stroke:#f5e873;stroke-miterlimit:10;stroke-width:7.04602196520985px"/><line x1="547.5" y1="316.84" x2="575.48" y2="334.18" style="fill:none;stroke:#f5e873;stroke-miterlimit:10;stroke-width:7.04602196520985px"/></svg>