<?xml version="1.0" encoding="utf-8"?>
<!-- Generator: Adobe Illustrator 22.1.0, SVG Export Plug-In . SVG Version: 6.00 Build 0)  -->
<svg version="1.1" id="Layer_1" xmlns="http://www.w3.org/2000/svg" xmlns:xlink="http://www.w3.org/1999/xlink" x="0px" y="0px"
	 viewBox="0 0 2134 460" style="enable-background:new 0 0 2134 460;" xml:space="preserve">
<style type="text/css">
	.st0{fill:none;stroke:#F5E873;stroke-width:7.046;stroke-miterlimit:10;}
	.st1{fill:none;}
	.st2{fill:#B3B3B3;}
	.st3{font-family:'Raleway-Black';}
	.st4{font-size:47.2279px;}
</style>
<path class="st0" d="M1894.6,409.4c-256-107.4-537.1-166.8-832-166.8c-295.2,0-576.5,59.5-832.7,167.1"/>
<rect x="18.5" y="231" class="st1" width="325.5" height="107"/>
<text transform="matrix(1 0 0 1 127.6641 265.4434)"><tspan x="0" y="0" class="st2 st3 st4">User</tspan><tspan x="-77.2" y="56.7" class="st2 st3 st4">experience</tspan></text>
<rect x="1746.7" y="235" class="st1" width="356.3" height="107"/>
<text transform="matrix(1 0 0 1 1863.9541 269.4434)"><tspan x="0" y="0" class="st2 st3 st4">Code</tspan><tspan x="-81.3" y="56.7" class="st2 st3 st4">&amp; Technolo</tspan><tspan x="183.6" y="56.7" class="st2 st3 st4">-</tspan></text>
<rect x="1216" y="108.8" class="st1" width="602.4" height="107"/>
<text transform="matrix(1 0 0 1 1430.3984 143.2559)"><tspan x="0" y="0" class="st2 st3 st4">Growth</tspan><tspan x="-73.8" y="56.7" class="st2 st3 st4">&amp; Automation</tspan></text>
<rect x="760.8" y="47.6" class="st1" width="602.4" height="183.5"/>
<text transform="matrix(1 0 0 1 959.3608 82.041)"><tspan x="0" y="0" class="st2 st3 st4">Business </tspan><tspan x="15.7" y="56.7" class="st2 st3 st4">models</tspan></text>
<rect x="317.5" y="113.8" class="st1" width="584.5" height="107"/>
<text transform="matrix(1 0 0 1 497.6245 148.2539)"><tspan x="0" y="0" class="st2 st3 st4">Notoriété </tspan><tspan x="-22.1" y="56.7" class="st2 st3 st4">&amp; Influence</tspan></text>
<line class="st0" x1="1062.5" y1="242.8" x2="1062.5" y2="183.2"/>
<line class="st0" x1="631.9" y1="284" x2="615.6" y2="226.6"/>
<line class="st0" x1="1500.5" y1="284" x2="1516.8" y2="226.6"/>
<line class="st0" x1="235.1" y1="411.9" x2="202.1" y2="362.1"/>
<line class="st0" x1="1892.4" y1="411.9" x2="1925.3" y2="362.1"/>
</svg>
