<svg id="Layer_1" data-name="Layer 1" xmlns="http://www.w3.org/2000/svg" viewBox="0 0 210 185.33"><title>calendar</title><polygon points="0 12.67 16.67 0 193.33 0 210 12.67 206 171.33 193.33 185.33 16.67 185.33 3.33 171.33 0 12.67" style="fill:#f5e873"/><polygon points="21.1 168.33 189.33 164.77 184.62 71.52 26 66.33 21.1 168.33" style="fill:#fff"/><polygon points="20.1 33 189.8 28.57 191.9 71.67 18.67 71.97 20.1 33" style="fill:#3b2b52"/><polygon points="42.95 21.67 57.3 17.77 60 40.33 42.95 40.33 42.95 21.67" style="fill:#fff"/><polygon points="150.3 40.33 154.67 17.77 168 17.77 171.7 38.33 150.3 40.33" style="fill:#fff"/><polygon points="96.8 17.77 114 17.77 114 40.33 95.9 40.33 96.8 17.77" style="fill:#fff"/><polygon points="71.11 81.47 73.84 106.77 97.31 103 96.41 81.47 71.11 81.47" style="fill:#03e8fc"/><polygon points="136.71 81.02 111.41 83.75 115.17 107.22 136.71 106.32 136.71 81.02" style="fill:#03e8fc"/><polygon points="177.76 106.77 175.03 81.47 151.56 85.23 152.46 106.77 177.76 106.77" style="fill:#03e8fc"/><polygon points="152.01 143.42 177.31 140.68 173.54 117.22 152.01 118.12 152.01 143.42" style="fill:#03e8fc"/><polygon points="71.11 143.42 96.41 140.68 92.64 117.22 71.11 118.12 71.11 143.42" style="fill:#03e8fc"/><polygon points="110.96 117.67 113.69 142.97 137.16 139.2 136.26 117.67 110.96 117.67" style="fill:#03e8fc"/><polygon points="56.11 117.22 30.81 119.95 34.58 143.42 56.11 142.52 56.11 117.22" style="fill:#03e8fc"/></svg>