<svg id="Layer_1" data-name="Layer 1" xmlns="http://www.w3.org/2000/svg" xmlns:xlink="http://www.w3.org/1999/xlink" viewBox="0 0 182.5 151.85"><defs><linearGradient id="Dégradé_sans_nom" x1="-256.92" y1="157.41" x2="-212.4" y2="186.5" gradientTransform="translate(-117.49 369.93) rotate(180)" gradientUnits="userSpaceOnUse"><stop offset="0" stop-color="#d9cd58"/><stop offset="1" stop-color="#f5e873"/></linearGradient></defs><title>diver-sm</title><path d="M0,34.4l2.3-8.6,26.5,4.9,15.5,10,12.2-3.2,24.4,5,40.7,34.8,23,68.8s-12,74.1-13,74.2-59.2,48.2-59.2,48.2l-23.8,2.2-10.8,7.2L31,272.3l4.3-9.8,4.3-21.2L69,209.4l1.9-81.5L64,86.8,54,69,32.4,57.5l.3-8.4L20.5,40.8Z" style="fill:url(#Dégradé_sans_nom)"/><polyline points="32.4 57.5 32.6 49.1 20.4 40.9 0 34.4 2.4 25.8 28.9 30.7 44.4 40.7 56.6 37.5" style="fill:#edda6b"/><polygon points="56.8 45.3 75.5 56.1 95 75.2 99.9 72.6 77.3 52.8 56.8 45.3" style="fill:#fff59c"/><polygon points="114.9 122.3 127.5 145.2 119.7 208.4 88.7 234.2 122.8 208.1 130.5 143.8 117.9 120 114.9 122.3" style="fill:#fff59c"/><polygon points="104.3 82.3 67.1 82.3 56.6 89.2 56.6 102.9 63.8 111.7 104.3 111.7 113.3 101.8 113.3 89.2 104.3 82.3" style="fill:#b3b3b3"/><polygon points="101.4 84.8 69.7 84.8 60.8 90.5 60.8 102 66.9 109.3 101.4 109.3 109.1 101 109.1 90.5 101.4 84.8" style="fill:#d2feff"/><path d="M70.5,91.4a5.26,5.26,0,0,1,1.7.4,3,3,0,0,0-1.9,2.5A3.07,3.07,0,0,0,73,97.5,2.92,2.92,0,0,0,75.8,96a4.88,4.88,0,0,1,.1,1.7,5.87,5.87,0,1,1-11.7-.9A5.91,5.91,0,0,1,70.5,91.4Z"/><path d="M95.8,91.4a5.26,5.26,0,0,1,1.7.4,3,3,0,0,0-1.9,2.5,3.07,3.07,0,0,0,2.7,3.2,2.92,2.92,0,0,0,2.8-1.5,4.88,4.88,0,0,1,.1,1.7,6,6,0,0,1-6.3,5.4,5.91,5.91,0,0,1-5.4-6.3A5.84,5.84,0,0,1,95.8,91.4Z"/><polygon points="113.3 93.2 126 90.1 128.2 96.7 113.3 97.8 113.3 93.2" style="fill:#b3b3b3"/><polygon points="94.8 117.9 95.2 121.7 91.6 125.4 80.1 125.4 77.1 121.7 77.1 118.1 80.2 114.9 90.8 114.9 94.8 117.9" style="fill:#b3b3b3"/><path d="M33.5,100.3l-3.8-5.7-7.4,1.2-3.1-4.7-5.7,2.1,9.6,11.2,5.2,39.8,41.9-.4,4.8-4-43.3.7L26,103.4Zm-5.2-3.7,2,2.2-3.5,1.5-2-3.1Z" style="fill:#f5e873"/><path d="M95.2,10.9a10.4,10.4,0,0,0,20.8,0,10.4,10.4,0,0,0-20.8,0Zm10.9-7.4,3.5.3,1.9,1.7L113,8v3.5l-2-1V9l-.8-1.8-1.5-1.5-2.2-.1Z" style="fill:#25e8fd"/><path d="M111.6,32.3a7.2,7.2,0,1,0,7.2-7.2A7.17,7.17,0,0,0,111.6,32.3Zm7.5-5.1,2.4.2,1.3,1.2,1.1,1.7v2.4l-1.4-.7V31l-.5-1.3-1-1.1-1.5-.1Z" style="fill:#25e8fd"/><path d="M100.4,46.6a5.2,5.2,0,1,0,5.2-5.2A5.23,5.23,0,0,0,100.4,46.6Zm5.5-3.7,1.8.1.9.8.8,1.3v1.7l-1-.5v-.7l-.4-.9-.7-.8-1.1-.1Z" style="fill:#25e8fd"/><polygon points="182.5 237.3 158.5 239.3 134.4 237.3 132 89.8 141 73.5 150.6 68.7 151.8 63.9 160.9 63.9 162.1 68.7 172.9 74.7 180.8 88.6 182.5 237.3" style="fill:#f05"/><polygon points="166.3 85.6 172.3 92.8 172.3 179 165.7 201.9 163.3 94 160.9 87.4 166.3 85.6" style="fill:#fff"/><polygon points="160.9 63.9 166.3 53.1 157.3 46.4 148.8 53.1 151.8 63.9 160.9 63.9"/><polygon points="130.8 130.8 119.9 142.8 99.4 142.2 83.8 135 83.8 125.4 88.7 125.4 88.6 132.6 100.6 138 118.7 138 128.3 127.2 141 109.1 142.8 80.8 138 65.7 150.1 57.5 151.8 63.9 143.4 67.5 147.6 79.6 147 100 144.6 113.3 130.8 130.8" style="fill:#b3b3b3"/></svg>