<?xml version="1.0" encoding="utf-8"?>
<!-- Generator: Adobe Illustrator 21.1.0, SVG Export Plug-In . SVG Version: 6.00 Build 0)  -->
<!DOCTYPE svg PUBLIC "-//W3C//DTD SVG 1.1//EN" "http://www.w3.org/Graphics/SVG/1.1/DTD/svg11.dtd">
<svg version="1.1" id="Layer_1" xmlns="http://www.w3.org/2000/svg" xmlns:xlink="http://www.w3.org/1999/xlink" x="0px" y="0px"
	 viewBox="0 0 200 380" style="enable-background:new 0 0 200 380;" xml:space="preserve">
<style type="text/css">
	.st0{fill:#F5E873;}
	.st1{fill:url(#SVGID_1_);}
	.st2{fill:#EDDA6B;}
	.st3{fill:#FFF59C;}
	.st4{fill:#B3B3B3;}
	.st5{fill:#D2FEFF;}
	.st6{fill:#03E8FC;}
	.st7{fill:#FFFFFF;}
	.st8{fill:#FF0055;}
</style>
<g>
	<g>
		<polygon class="st0" points="116.4,244 137.6,289.2 172.7,312.2 160.5,328.1 184.5,313.5 177.2,307.5 142.6,286.5 119.7,236.8 		
			"/>
		<polygon class="st0" points="83.7,242.5 66.7,289.5 75.3,330.6 55.4,333.2 82.6,339.8 81.7,330.4 72.1,291.1 91.1,239.8 		"/>
		
			<linearGradient id="SVGID_1_" gradientUnits="userSpaceOnUse" x1="49.359" y1="217.6846" x2="93.8755" y2="188.6005" gradientTransform="matrix(-1 0 0 1 199.1095 0)">
			<stop  offset="0" style="stop-color:#D9CD58"/>
			<stop  offset="1" style="stop-color:#F5E873"/>
		</linearGradient>
		<path class="st1" d="M10.3,39.6l2.3-8.6l26.5,4.9l15.5,10l12.2-3.2l24.4,5l40.7,34.8l23,68.8c0,0-12,74.1-13,74.2
			c-1,0.1-59.2,48.2-59.2,48.2l-23.8,2.2l-10.8,7.2l-6.8-5.6l4.3-9.8l4.3-21.2l29.4-31.9l1.9-81.5l-6.9-41.1l-10-17.8L42.7,62.7
			l0.3-8.4l-12.2-8.3L10.3,39.6z"/>
		<polyline class="st2" points="59.1,275.9 48.3,283.2 41.6,277.5 45.9,267.7 		"/>
		<polyline class="st2" points="42.7,62.7 42.9,54.3 30.7,46.1 10.3,39.6 12.7,31 39.2,35.9 54.7,45.9 66.9,42.7 		"/>
		<polygon class="st0" points="99.8,161.8 64.5,198 29.6,173.5 32.2,165.8 26.1,165.9 26.2,172 18,170.8 15.7,176.4 28.4,176.4 
			64.5,202.6 100.4,168 		"/>
		<polygon class="st3" points="67.1,50.5 85.8,61.3 105.3,80.4 110.2,77.8 87.6,58 		"/>
		<polygon class="st3" points="125.2,127.5 137.8,150.4 130,213.6 99,239.4 133.1,213.3 140.8,149 128.2,125.2 		"/>
	</g>
	<g>
		<polygon class="st4" points="114.6,87.5 77.4,87.5 66.9,94.4 66.9,108.1 74.1,116.9 114.6,116.9 123.6,107 123.6,94.4 		"/>
		<polygon class="st5" points="111.7,90 80,90 71.1,95.7 71.1,107.2 77.2,114.5 111.7,114.5 119.4,106.2 119.4,95.7 		"/>
	</g>
	<g>
		<path d="M80.8,96.6c0.6,0,1.1,0.2,1.7,0.4c-1,0.4-1.8,1.3-1.9,2.5c-0.1,1.6,1.1,3,2.7,3.2c1.2,0.1,2.2-0.5,2.8-1.5
			c0.1,0.6,0.2,1.1,0.1,1.7c-0.3,3.2-3.1,5.6-6.3,5.4c-3.2-0.3-5.6-3.1-5.4-6.3C74.7,98.8,77.6,96.4,80.8,96.6z"/>
	</g>
	<g>
		<path d="M106.1,96.6c0.6,0,1.1,0.2,1.7,0.4c-1,0.4-1.8,1.3-1.9,2.5c-0.1,1.6,1.1,3,2.7,3.2c1.2,0.1,2.2-0.5,2.8-1.5
			c0.1,0.6,0.2,1.1,0.1,1.7c-0.3,3.2-3.1,5.6-6.3,5.4s-5.6-3.1-5.4-6.3S102.9,96.3,106.1,96.6z"/>
	</g>
	<polygon class="st4" points="123.6,98.4 136.3,95.3 138.5,101.9 123.6,103 	"/>
	<polygon class="st4" points="105.1,123.1 105.5,126.9 101.9,130.6 90.4,130.6 87.4,126.9 87.4,123.3 90.5,120.1 101.1,120.1 	"/>
	<polygon class="st6" points="173,311.9 177.8,307.1 185,313.1 170,332.4 156.7,375.8 150.1,367.9 141.1,367.9 133.8,360.7 
		126,360.7 154.9,323.3 168.2,308.9 	"/>
	<polygon class="st6" points="77.8,328.7 83.6,329.9 82.6,339.3 59,337.5 15.6,352 18.5,342.2 13.5,334.7 15.6,324.6 11.3,318.1 
		58.2,320 73.6,322.1 	"/>
	<path class="st0" d="M43.8,105.5L40,99.8l-7.4,1.2l-3.1-4.7l-5.7,2.1l9.6,11.2l5.2,39.8l41.9-0.4l4.8-4l-43.3,0.7l-5.7-37.1
		L43.8,105.5z M38.6,101.8l2,2.2l-3.5,1.5l-2-3.1L38.6,101.8z"/>
	<path class="st7" d="M105.5,15.6c0,5.7,4.7,10.4,10.4,10.4c5.7,0,10.4-4.7,10.4-10.4s-4.7-10.4-10.4-10.4
		C110.2,5.2,105.5,9.9,105.5,15.6z M116.4,8.2l3.5,0.3l1.9,1.7l1.5,2.5v3.5l-2-1v-1.5l-0.8-1.8l-1.5-1.5l-2.2-0.1L116.4,8.2z"/>
	<path class="st7" d="M121.9,37.5c0,4,3.2,7.2,7.2,7.2c4,0,7.2-3.2,7.2-7.2s-3.2-7.2-7.2-7.2C125.1,30.3,121.9,33.6,121.9,37.5z
		 M129.4,32.4l2.4,0.2l1.3,1.2l1.1,1.7v2.4l-1.4-0.7v-1l-0.5-1.3l-1-1.1l-1.5-0.1L129.4,32.4z"/>
	<path class="st7" d="M110.7,51.8c0,2.9,2.3,5.2,5.2,5.2c2.9,0,5.2-2.3,5.2-5.2c0-2.9-2.3-5.2-5.2-5.2
		C113.1,46.6,110.7,48.9,110.7,51.8z M116.2,48.1l1.8,0.1l0.9,0.8l0.8,1.3v1.7l-1-0.5v-0.7l-0.4-0.9l-0.7-0.8l-1.1-0.1L116.2,48.1z"
		/>
	<polygon class="st8" points="192.8,242.5 168.8,244.5 144.7,242.5 142.3,95 151.3,78.7 160.9,73.9 162.1,69.1 171.2,69.1 
		172.4,73.9 183.2,79.9 191.1,93.8 	"/>
	<polygon class="st7" points="176.6,90.8 182.6,98 182.6,184.2 176,207.1 173.6,99.2 171.2,92.6 	"/>
	<g>
		<polygon points="171.2,69.1 176.6,58.3 167.6,51.6 159.1,58.3 162.1,69.1 		"/>
	</g>
	<polygon class="st4" points="141.1,136 130.2,148 109.7,147.4 94.1,140.2 94.1,130.6 99,130.6 98.9,137.8 110.9,143.2 129,143.2 
		138.6,132.4 151.3,114.3 153.1,86 148.3,70.9 160.4,62.7 162.1,69.1 153.7,72.7 157.9,84.8 157.3,105.2 154.9,118.5 	"/>
</g>
</svg>
