<?xml version="1.0" encoding="utf-8"?>
<!-- Generator: Adobe Illustrator 21.1.0, SVG Export Plug-In . SVG Version: 6.00 Build 0)  -->
<!DOCTYPE svg PUBLIC "-//W3C//DTD SVG 1.1//EN" "http://www.w3.org/Graphics/SVG/1.1/DTD/svg11.dtd">
<svg version="1.1" id="Layer_1" xmlns="http://www.w3.org/2000/svg" xmlns:xlink="http://www.w3.org/1999/xlink" x="0px" y="0px"
	 viewBox="0 0 27 27.8" style="enable-background:new 0 0 27 27.8;" xml:space="preserve">
<style type="text/css">
	.st0{fill:#FF0055;}
</style>
<g>
	<path class="st0" d="M14.3,3.7c-3.6,0-6.8,1.8-8.6,4.8L2.5,5.4v8.5H11l-3.8-3.8c1.4-2.6,4.1-4.2,7.1-4.2c4.4,0,8,3.6,8,8
		c0,4.4-3.6,8-8,8c-3.2,0-6.1-1.9-7.4-4.9l-2,0.9c1.6,3.8,5.3,6.2,9.4,6.2c5.6,0,10.2-4.6,10.2-10.2C24.5,8.3,19.9,3.7,14.3,3.7z"/>
	<polygon class="st0" points="12.7,9 12.7,14.5 19.1,18.1 20.2,16.2 14.9,13.2 14.9,9 	"/>
</g>
</svg>
