<svg id="Calque_1" data-name="Calque 1" xmlns="http://www.w3.org/2000/svg" viewBox="0 0 96 15249"><title>vertical-dots-solo-centered</title><circle cx="48" cy="4351" r="15.5" style="fill:#8c97a1"/><circle cx="48" cy="4404.63" r="15.5" style="fill:#8c97a1"/><circle cx="48" cy="4458.25" r="15.5" style="fill:#8c97a1"/><circle cx="48" cy="4511.88" r="15.5" style="fill:#8c97a1"/><circle cx="48" cy="4565.5" r="15.5" style="fill:#8c97a1"/><circle cx="48" cy="4619" r="15.5" style="fill:#8c97a1"/><circle cx="48" cy="4672.63" r="15.5" style="fill:#8c97a1"/><circle cx="48" cy="4726.25" r="15.5" style="fill:#8c97a1"/><circle cx="48" cy="4779.88" r="15.5" style="fill:#8c97a1"/><circle cx="48" cy="4833.5" r="15.5" style="fill:#8c97a1"/><circle cx="48" cy="4887" r="15.5" style="fill:#8c97a1"/><circle cx="48" cy="4940.63" r="15.5" style="fill:#8c97a1"/><circle cx="48" cy="4994.25" r="15.5" style="fill:#8c97a1"/><circle cx="48" cy="5047.88" r="15.5" style="fill:#8c97a1"/><circle cx="48" cy="5101.5" r="15.5" style="fill:#8c97a1"/><circle cx="48" cy="5155" r="15.5" style="fill:#8c97a1"/><circle cx="48" cy="5208.63" r="15.5" style="fill:#8c97a1"/><circle cx="48" cy="5262.25" r="15.5" style="fill:#8c97a1"/><circle cx="48" cy="5315.88" r="15.5" style="fill:#8c97a1"/><circle cx="48" cy="5369.5" r="15.5" style="fill:#8c97a1"/><circle cx="48" cy="5423" r="15.5" style="fill:#8c97a1"/><circle cx="48" cy="5476.63" r="15.5" style="fill:#8c97a1"/><circle cx="48" cy="5530.25" r="15.5" style="fill:#8c97a1"/><circle cx="48" cy="5583.88" r="15.5" style="fill:#8c97a1"/><circle cx="48" cy="5637.5" r="15.5" style="fill:#8c97a1"/><circle cx="48" cy="5691" r="15.5" style="fill:#8c97a1"/><circle cx="48" cy="5744.63" r="15.5" style="fill:#8c97a1"/><circle cx="48" cy="5798.25" r="15.5" style="fill:#8c97a1"/><circle cx="48" cy="5851.88" r="15.5" style="fill:#8c97a1"/><circle cx="48" cy="5905.5" r="15.5" style="fill:#8c97a1"/><circle cx="48" cy="5959" r="15.5" style="fill:#8c97a1"/><circle cx="48" cy="6012.63" r="15.5" style="fill:#8c97a1"/><circle cx="48" cy="6066.25" r="15.5" style="fill:#8c97a1"/><circle cx="48" cy="6119.88" r="15.5" style="fill:#8c97a1"/><circle cx="48" cy="6173.5" r="15.5" style="fill:#8c97a1"/><circle cx="48" cy="6227" r="15.5" style="fill:#8c97a1"/><circle cx="48" cy="6280.63" r="15.5" style="fill:#8c97a1"/><circle cx="48" cy="6334.25" r="15.5" style="fill:#8c97a1"/><circle cx="48" cy="6387.88" r="15.5" style="fill:#8c97a1"/><circle cx="48" cy="6441.5" r="15.5" style="fill:#8c97a1"/><circle cx="48" cy="6495" r="15.5" style="fill:#8c97a1"/><circle cx="48" cy="6548.63" r="15.5" style="fill:#8c97a1"/><circle cx="48" cy="6602.25" r="15.5" style="fill:#8c97a1"/><circle cx="48" cy="6655.88" r="15.5" style="fill:#8c97a1"/><circle cx="48" cy="6709.5" r="15.5" style="fill:#8c97a1"/><circle cx="48" cy="6763" r="15.5" style="fill:#8c97a1"/><circle cx="48" cy="6816.63" r="15.5" style="fill:#8c97a1"/><circle cx="48" cy="6870.25" r="15.5" style="fill:#8c97a1"/><circle cx="48" cy="6923.88" r="15.5" style="fill:#8c97a1"/><circle cx="48" cy="6977.5" r="15.5" style="fill:#8c97a1"/><circle cx="48" cy="7031" r="15.5" style="fill:#8c97a1"/><circle cx="48" cy="7084.63" r="15.5" style="fill:#8c97a1"/><circle cx="48" cy="7138.25" r="15.5" style="fill:#8c97a1"/><circle cx="48" cy="7191.88" r="15.5" style="fill:#8c97a1"/><circle cx="48" cy="7245.5" r="15.5" style="fill:#8c97a1"/><circle cx="48" cy="7299" r="15.5" style="fill:#8c97a1"/><circle cx="48" cy="7352.63" r="15.5" style="fill:#8c97a1"/><circle cx="48" cy="7406.25" r="15.5" style="fill:#8c97a1"/><circle cx="48" cy="7459.88" r="15.5" style="fill:#8c97a1"/><circle cx="48" cy="7513.5" r="15.5" style="fill:#8c97a1"/><circle cx="48" cy="7567" r="15.5" style="fill:#8c97a1"/><circle cx="48" cy="7620.63" r="15.5" style="fill:#8c97a1"/><circle cx="48" cy="7674.25" r="15.5" style="fill:#8c97a1"/><circle cx="48" cy="7727.88" r="15.5" style="fill:#8c97a1"/><circle cx="48" cy="7781.5" r="15.5" style="fill:#8c97a1"/><circle cx="48" cy="7835" r="15.5" style="fill:#8c97a1"/><circle cx="48" cy="7888.63" r="15.5" style="fill:#8c97a1"/><circle cx="48" cy="7942.25" r="15.5" style="fill:#8c97a1"/><circle cx="48" cy="7995.88" r="15.5" style="fill:#8c97a1"/><circle cx="48" cy="8049.5" r="15.5" style="fill:#8c97a1"/><circle cx="48" cy="8103" r="15.5" style="fill:#8c97a1"/><circle cx="48" cy="8156.63" r="15.5" style="fill:#8c97a1"/><circle cx="48" cy="8210.25" r="15.5" style="fill:#8c97a1"/><circle cx="48" cy="8263.88" r="15.5" style="fill:#8c97a1"/><circle cx="48" cy="8317.5" r="15.5" style="fill:#8c97a1"/><circle cx="48" cy="8371" r="15.5" style="fill:#8c97a1"/><circle cx="48" cy="8424.63" r="15.5" style="fill:#8c97a1"/><circle cx="48" cy="8478.25" r="15.5" style="fill:#8c97a1"/><circle cx="48" cy="8531.88" r="15.5" style="fill:#8c97a1"/><circle cx="48" cy="8585.5" r="15.5" style="fill:#8c97a1"/><circle cx="48" cy="8639.5" r="15.5" style="fill:#8c97a1"/><circle cx="48" cy="8693" r="15.5" style="fill:#8c97a1"/><circle cx="48" cy="8746.63" r="15.5" style="fill:#8c97a1"/><circle cx="48" cy="8800.25" r="15.5" style="fill:#8c97a1"/><circle cx="48" cy="8853.88" r="15.5" style="fill:#8c97a1"/><circle cx="48" cy="8907.5" r="15.5" style="fill:#8c97a1"/><circle cx="48" cy="8961" r="15.5" style="fill:#8c97a1"/><circle cx="48" cy="9014.63" r="15.5" style="fill:#8c97a1"/><circle cx="48" cy="9068.25" r="15.5" style="fill:#8c97a1"/><circle cx="48" cy="9121.88" r="15.5" style="fill:#8c97a1"/><circle cx="48" cy="9175.5" r="15.5" style="fill:#8c97a1"/><circle cx="48" cy="9229" r="15.5" style="fill:#8c97a1"/><circle cx="48" cy="9282.63" r="15.5" style="fill:#8c97a1"/><circle cx="48" cy="9336.25" r="15.5" style="fill:#8c97a1"/><circle cx="48" cy="9389.88" r="15.5" style="fill:#8c97a1"/><circle cx="48" cy="9443.5" r="15.5" style="fill:#8c97a1"/><circle cx="48" cy="9497" r="15.5" style="fill:#8c97a1"/><circle cx="48" cy="9550.63" r="15.5" style="fill:#8c97a1"/><circle cx="48" cy="9604.25" r="15.5" style="fill:#8c97a1"/><circle cx="48" cy="9657.88" r="15.5" style="fill:#8c97a1"/><circle cx="48" cy="9711.5" r="15.5" style="fill:#8c97a1"/><circle cx="48" cy="9765" r="15.5" style="fill:#8c97a1"/><circle cx="48" cy="9818.63" r="15.5" style="fill:#8c97a1"/><circle cx="48" cy="9872.25" r="15.5" style="fill:#8c97a1"/><circle cx="48" cy="9925.88" r="15.5" style="fill:#8c97a1"/><circle cx="48" cy="9979.5" r="15.5" style="fill:#8c97a1"/><circle cx="48" cy="10033" r="15.5" style="fill:#8c97a1"/><circle cx="48" cy="10086.63" r="15.5" style="fill:#8c97a1"/><circle cx="48" cy="10140.25" r="15.5" style="fill:#8c97a1"/><circle cx="48" cy="10193.88" r="15.5" style="fill:#8c97a1"/><circle cx="48" cy="10247.5" r="15.5" style="fill:#8c97a1"/><circle cx="48" cy="10301" r="15.5" style="fill:#8c97a1"/><circle cx="48" cy="10354.63" r="15.5" style="fill:#8c97a1"/><circle cx="48" cy="10408.25" r="15.5" style="fill:#8c97a1"/><circle cx="48" cy="10461.88" r="15.5" style="fill:#8c97a1"/><circle cx="48" cy="10515.5" r="15.5" style="fill:#8c97a1"/><circle cx="48" cy="10569" r="15.5" style="fill:#8c97a1"/><circle cx="48" cy="10622.63" r="15.5" style="fill:#8c97a1"/><circle cx="48" cy="10676.25" r="15.5" style="fill:#8c97a1"/><circle cx="48" cy="10729.88" r="15.5" style="fill:#8c97a1"/><circle cx="48" cy="10783.5" r="15.5" style="fill:#8c97a1"/><circle cx="48" cy="10837.25" r="15.5" style="fill:#8c97a1"/><circle cx="48" cy="10890.88" r="15.5" style="fill:#8c97a1"/><circle cx="48" cy="10944.5" r="15.5" style="fill:#8c97a1"/><circle cx="48" cy="10998" r="15.5" style="fill:#8c97a1"/><circle cx="48" cy="11051.63" r="15.5" style="fill:#8c97a1"/><circle cx="48" cy="11105.25" r="15.5" style="fill:#8c97a1"/><circle cx="48" cy="11158.88" r="15.5" style="fill:#8c97a1"/><circle cx="48" cy="11212.5" r="15.5" style="fill:#8c97a1"/><circle cx="48" cy="11266" r="15.5" style="fill:#8c97a1"/><circle cx="48" cy="11319.63" r="15.5" style="fill:#8c97a1"/><circle cx="48" cy="11373.25" r="15.5" style="fill:#8c97a1"/><circle cx="48" cy="11426.88" r="15.5" style="fill:#8c97a1"/><circle cx="48" cy="11480.5" r="15.5" style="fill:#8c97a1"/><circle cx="48" cy="11534" r="15.5" style="fill:#8c97a1"/><circle cx="48" cy="11587.63" r="15.5" style="fill:#8c97a1"/><circle cx="48" cy="11641.25" r="15.5" style="fill:#8c97a1"/><circle cx="48" cy="11694.88" r="15.5" style="fill:#8c97a1"/><circle cx="48" cy="11748.5" r="15.5" style="fill:#8c97a1"/><circle cx="48" cy="11802" r="15.5" style="fill:#8c97a1"/><circle cx="48" cy="11855.63" r="15.5" style="fill:#8c97a1"/><circle cx="48" cy="11909.25" r="15.5" style="fill:#8c97a1"/><circle cx="48" cy="11962.88" r="15.5" style="fill:#8c97a1"/><circle cx="48" cy="12016.5" r="15.5" style="fill:#8c97a1"/><circle cx="48" cy="12070" r="15.5" style="fill:#8c97a1"/><circle cx="48" cy="12123.63" r="15.5" style="fill:#8c97a1"/><circle cx="48" cy="12177.25" r="15.5" style="fill:#8c97a1"/><circle cx="48" cy="12230.88" r="15.5" style="fill:#8c97a1"/><circle cx="48" cy="12284.5" r="15.5" style="fill:#8c97a1"/><circle cx="48" cy="12338.25" r="15.5" style="fill:#8c97a1"/><circle cx="48" cy="12391.88" r="15.5" style="fill:#8c97a1"/><circle cx="48" cy="12445.5" r="15.5" style="fill:#8c97a1"/><circle cx="48" cy="12499" r="15.5" style="fill:#8c97a1"/><circle cx="48" cy="12552.63" r="15.5" style="fill:#8c97a1"/><circle cx="48" cy="12606.25" r="15.5" style="fill:#8c97a1"/><circle cx="48" cy="12659.88" r="15.5" style="fill:#8c97a1"/><circle cx="48" cy="12713.5" r="15.5" style="fill:#8c97a1"/><circle cx="48" cy="12767" r="15.5" style="fill:#8c97a1"/><circle cx="48" cy="12820.63" r="15.5" style="fill:#8c97a1"/><circle cx="48" cy="12874.25" r="15.5" style="fill:#8c97a1"/><circle cx="48" cy="12927.88" r="15.5" style="fill:#8c97a1"/><circle cx="48" cy="12981.5" r="15.5" style="fill:#8c97a1"/><circle cx="48" cy="13035" r="15.5" style="fill:#8c97a1"/><circle cx="48" cy="13088.63" r="15.5" style="fill:#8c97a1"/><circle cx="48" cy="13142.25" r="15.5" style="fill:#8c97a1"/><circle cx="48" cy="13195.88" r="15.5" style="fill:#8c97a1"/><circle cx="48" cy="13249.5" r="15.5" style="fill:#8c97a1"/><circle cx="48" cy="13303" r="15.5" style="fill:#8c97a1"/><circle cx="48" cy="13356.63" r="15.5" style="fill:#8c97a1"/><circle cx="48" cy="13410.25" r="15.5" style="fill:#8c97a1"/><circle cx="48" cy="13463.88" r="15.5" style="fill:#8c97a1"/><circle cx="48" cy="13517.5" r="15.5" style="fill:#8c97a1"/><circle cx="48" cy="13571" r="15.5" style="fill:#8c97a1"/><circle cx="48" cy="13624.63" r="15.5" style="fill:#8c97a1"/><circle cx="48" cy="13678.25" r="15.5" style="fill:#8c97a1"/><circle cx="48" cy="13731.88" r="15.5" style="fill:#8c97a1"/><circle cx="48" cy="13785.5" r="15.5" style="fill:#8c97a1"/><circle cx="48" cy="13839.5" r="15.5" style="fill:#8c97a1"/><circle cx="48" cy="13893" r="15.5" style="fill:#8c97a1"/><circle cx="48" cy="13946.63" r="15.5" style="fill:#8c97a1"/><circle cx="48" cy="14000.25" r="15.5" style="fill:#8c97a1"/><circle cx="48" cy="14053.88" r="15.5" style="fill:#8c97a1"/><circle cx="48" cy="14107.5" r="15.5" style="fill:#8c97a1"/><circle cx="48" cy="14161" r="15.5" style="fill:#8c97a1"/><circle cx="48" cy="14214.63" r="15.5" style="fill:#8c97a1"/><circle cx="48" cy="14268.25" r="15.5" style="fill:#8c97a1"/><circle cx="48" cy="14321.88" r="15.5" style="fill:#8c97a1"/><circle cx="48" cy="14375.5" r="15.5" style="fill:#8c97a1"/><circle cx="48" cy="14429" r="15.5" style="fill:#8c97a1"/><circle cx="48" cy="14482.63" r="15.5" style="fill:#8c97a1"/><circle cx="48" cy="14536.25" r="15.5" style="fill:#8c97a1"/><circle cx="48" cy="14589.88" r="15.5" style="fill:#8c97a1"/><circle cx="48" cy="14643.5" r="15.5" style="fill:#8c97a1"/><circle cx="48" cy="14697" r="15.5" style="fill:#8c97a1"/><circle cx="48" cy="14750.63" r="15.5" style="fill:#8c97a1"/><circle cx="48" cy="14804.25" r="15.5" style="fill:#8c97a1"/><circle cx="48" cy="14857.88" r="15.5" style="fill:#8c97a1"/><circle cx="48" cy="14911.5" r="15.5" style="fill:#8c97a1"/><circle cx="48" cy="14965.5" r="15.5" style="fill:#8c97a1"/><circle cx="48" cy="15019" r="15.5" style="fill:#8c97a1"/><circle cx="48" cy="15072.63" r="15.5" style="fill:#8c97a1"/><circle cx="48" cy="15126.25" r="15.5" style="fill:#8c97a1"/><circle cx="48" cy="15179.88" r="15.5" style="fill:#8c97a1"/><circle cx="48" cy="15233.5" r="15.5" style="fill:#8c97a1"/><circle cx="48" cy="61" r="15.5" style="fill:#8c97a1"/><circle cx="48" cy="114.63" r="15.5" style="fill:#8c97a1"/><circle cx="48" cy="168.25" r="15.5" style="fill:#8c97a1"/><circle cx="48" cy="221.88" r="15.5" style="fill:#8c97a1"/><circle cx="48" cy="275.5" r="15.5" style="fill:#8c97a1"/><circle cx="48" cy="329" r="15.5" style="fill:#8c97a1"/><circle cx="48" cy="382.63" r="15.5" style="fill:#8c97a1"/><circle cx="48" cy="436.25" r="15.5" style="fill:#8c97a1"/><circle cx="48" cy="489.88" r="15.5" style="fill:#8c97a1"/><circle cx="48" cy="543.5" r="15.5" style="fill:#8c97a1"/><circle cx="48" cy="597" r="15.5" style="fill:#8c97a1"/><circle cx="48" cy="650.63" r="15.5" style="fill:#8c97a1"/><circle cx="48" cy="704.25" r="15.5" style="fill:#8c97a1"/><circle cx="48" cy="757.88" r="15.5" style="fill:#8c97a1"/><circle cx="48" cy="811.5" r="15.5" style="fill:#8c97a1"/><circle cx="48" cy="865" r="15.5" style="fill:#8c97a1"/><circle cx="48" cy="918.63" r="15.5" style="fill:#8c97a1"/><circle cx="48" cy="972.25" r="15.5" style="fill:#8c97a1"/><circle cx="48" cy="1025.88" r="15.5" style="fill:#8c97a1"/><circle cx="48" cy="1079.5" r="15.5" style="fill:#8c97a1"/><circle cx="48" cy="1133" r="15.5" style="fill:#8c97a1"/><circle cx="48" cy="1186.63" r="15.5" style="fill:#8c97a1"/><circle cx="48" cy="1240.25" r="15.5" style="fill:#8c97a1"/><circle cx="48" cy="1293.88" r="15.5" style="fill:#8c97a1"/><circle cx="48" cy="1347.5" r="15.5" style="fill:#8c97a1"/><circle cx="48" cy="1401" r="15.5" style="fill:#8c97a1"/><circle cx="48" cy="1454.63" r="15.5" style="fill:#8c97a1"/><circle cx="48" cy="1508.25" r="15.5" style="fill:#8c97a1"/><circle cx="48" cy="1561.88" r="15.5" style="fill:#8c97a1"/><circle cx="48" cy="1615.5" r="15.5" style="fill:#8c97a1"/><circle cx="48" cy="1669" r="15.5" style="fill:#8c97a1"/><circle cx="48" cy="1722.63" r="15.5" style="fill:#8c97a1"/><circle cx="48" cy="1776.25" r="15.5" style="fill:#8c97a1"/><circle cx="48" cy="1829.88" r="15.5" style="fill:#8c97a1"/><circle cx="48" cy="1883.5" r="15.5" style="fill:#8c97a1"/><circle cx="48" cy="1937" r="15.5" style="fill:#8c97a1"/><circle cx="48" cy="1990.63" r="15.5" style="fill:#8c97a1"/><circle cx="48" cy="2044.25" r="15.5" style="fill:#8c97a1"/><circle cx="48" cy="2097.88" r="15.5" style="fill:#8c97a1"/><circle cx="48" cy="2151.5" r="15.5" style="fill:#8c97a1"/><circle cx="48" cy="2205" r="15.5" style="fill:#8c97a1"/><circle cx="48" cy="2258.63" r="15.5" style="fill:#8c97a1"/><circle cx="48" cy="2312.25" r="15.5" style="fill:#8c97a1"/><circle cx="48" cy="2365.88" r="15.5" style="fill:#8c97a1"/><circle cx="48" cy="2419.5" r="15.5" style="fill:#8c97a1"/><circle cx="48" cy="2473" r="15.5" style="fill:#8c97a1"/><circle cx="48" cy="2526.63" r="15.5" style="fill:#8c97a1"/><circle cx="48" cy="2580.25" r="15.5" style="fill:#8c97a1"/><circle cx="48" cy="2633.88" r="15.5" style="fill:#8c97a1"/><circle cx="48" cy="2687.5" r="15.5" style="fill:#8c97a1"/><circle cx="48" cy="2741" r="15.5" style="fill:#8c97a1"/><circle cx="48" cy="2794.63" r="15.5" style="fill:#8c97a1"/><circle cx="48" cy="2848.25" r="15.5" style="fill:#8c97a1"/><circle cx="48" cy="2901.88" r="15.5" style="fill:#8c97a1"/><circle cx="48" cy="2955.5" r="15.5" style="fill:#8c97a1"/><circle cx="48" cy="3009" r="15.5" style="fill:#8c97a1"/><circle cx="48" cy="3062.63" r="15.5" style="fill:#8c97a1"/><circle cx="48" cy="3116.25" r="15.5" style="fill:#8c97a1"/><circle cx="48" cy="3169.88" r="15.5" style="fill:#8c97a1"/><circle cx="48" cy="3223.5" r="15.5" style="fill:#8c97a1"/><circle cx="48" cy="3277" r="15.5" style="fill:#8c97a1"/><circle cx="48" cy="3330.63" r="15.5" style="fill:#8c97a1"/><circle cx="48" cy="3384.25" r="15.5" style="fill:#8c97a1"/><circle cx="48" cy="3437.88" r="15.5" style="fill:#8c97a1"/><circle cx="48" cy="3491.5" r="15.5" style="fill:#8c97a1"/><circle cx="48" cy="3545" r="15.5" style="fill:#8c97a1"/><circle cx="48" cy="3598.63" r="15.5" style="fill:#8c97a1"/><circle cx="48" cy="3652.25" r="15.5" style="fill:#8c97a1"/><circle cx="48" cy="3705.88" r="15.5" style="fill:#8c97a1"/><circle cx="48" cy="3759.5" r="15.5" style="fill:#8c97a1"/><circle cx="48" cy="3813" r="15.5" style="fill:#8c97a1"/><circle cx="48" cy="3866.63" r="15.5" style="fill:#8c97a1"/><circle cx="48" cy="3920.25" r="15.5" style="fill:#8c97a1"/><circle cx="48" cy="3973.88" r="15.5" style="fill:#8c97a1"/><circle cx="48" cy="4027.5" r="15.5" style="fill:#8c97a1"/><circle cx="48" cy="4081" r="15.5" style="fill:#8c97a1"/><circle cx="48" cy="4134.63" r="15.5" style="fill:#8c97a1"/><circle cx="48" cy="4188.25" r="15.5" style="fill:#8c97a1"/><circle cx="48" cy="4241.88" r="15.5" style="fill:#8c97a1"/><circle cx="48" cy="4295.5" r="15.5" style="fill:#8c97a1"/><rect width="96" height="25" style="fill:#fff"/></svg>