<svg id="Calque_1" data-name="Calque 1" xmlns="http://www.w3.org/2000/svg" viewBox="0 0 96 15203.5"><title>vertical-dots-solo</title><circle cx="80.5" cy="4305.5" r="15.5" style="fill:#8c97a1"/><circle cx="80" cy="4359.13" r="15.5" style="fill:#8c97a1"/><circle cx="80" cy="4412.75" r="15.5" style="fill:#8c97a1"/><circle cx="80" cy="4466.38" r="15.5" style="fill:#8c97a1"/><circle cx="80" cy="4520" r="15.5" style="fill:#8c97a1"/><circle cx="80.5" cy="4573.5" r="15.5" style="fill:#8c97a1"/><circle cx="80" cy="4627.13" r="15.5" style="fill:#8c97a1"/><circle cx="80" cy="4680.75" r="15.5" style="fill:#8c97a1"/><circle cx="80" cy="4734.38" r="15.5" style="fill:#8c97a1"/><circle cx="80" cy="4788" r="15.5" style="fill:#8c97a1"/><circle cx="80.5" cy="4841.5" r="15.5" style="fill:#8c97a1"/><circle cx="80" cy="4895.13" r="15.5" style="fill:#8c97a1"/><circle cx="80" cy="4948.75" r="15.5" style="fill:#8c97a1"/><circle cx="80" cy="5002.38" r="15.5" style="fill:#8c97a1"/><circle cx="80" cy="5056" r="15.5" style="fill:#8c97a1"/><circle cx="80.5" cy="5109.5" r="15.5" style="fill:#8c97a1"/><circle cx="80" cy="5163.13" r="15.5" style="fill:#8c97a1"/><circle cx="80" cy="5216.75" r="15.5" style="fill:#8c97a1"/><circle cx="80" cy="5270.38" r="15.5" style="fill:#8c97a1"/><circle cx="80" cy="5324" r="15.5" style="fill:#8c97a1"/><circle cx="80.5" cy="5377.5" r="15.5" style="fill:#8c97a1"/><circle cx="80" cy="5431.13" r="15.5" style="fill:#8c97a1"/><circle cx="80" cy="5484.75" r="15.5" style="fill:#8c97a1"/><circle cx="80" cy="5538.38" r="15.5" style="fill:#8c97a1"/><circle cx="80" cy="5592" r="15.5" style="fill:#8c97a1"/><circle cx="80.5" cy="5645.5" r="15.5" style="fill:#8c97a1"/><circle cx="80" cy="5699.13" r="15.5" style="fill:#8c97a1"/><circle cx="80" cy="5752.75" r="15.5" style="fill:#8c97a1"/><circle cx="80" cy="5806.38" r="15.5" style="fill:#8c97a1"/><circle cx="80" cy="5860" r="15.5" style="fill:#8c97a1"/><circle cx="80.5" cy="5913.5" r="15.5" style="fill:#8c97a1"/><circle cx="80" cy="5967.13" r="15.5" style="fill:#8c97a1"/><circle cx="80" cy="6020.75" r="15.5" style="fill:#8c97a1"/><circle cx="80" cy="6074.38" r="15.5" style="fill:#8c97a1"/><circle cx="80" cy="6128" r="15.5" style="fill:#8c97a1"/><circle cx="80.5" cy="6181.5" r="15.5" style="fill:#8c97a1"/><circle cx="80" cy="6235.13" r="15.5" style="fill:#8c97a1"/><circle cx="80" cy="6288.75" r="15.5" style="fill:#8c97a1"/><circle cx="80" cy="6342.38" r="15.5" style="fill:#8c97a1"/><circle cx="80" cy="6396" r="15.5" style="fill:#8c97a1"/><circle cx="80.5" cy="6449.5" r="15.5" style="fill:#8c97a1"/><circle cx="80" cy="6503.13" r="15.5" style="fill:#8c97a1"/><circle cx="80" cy="6556.75" r="15.5" style="fill:#8c97a1"/><circle cx="80" cy="6610.38" r="15.5" style="fill:#8c97a1"/><circle cx="80" cy="6664" r="15.5" style="fill:#8c97a1"/><circle cx="80.5" cy="6717.5" r="15.5" style="fill:#8c97a1"/><circle cx="80" cy="6771.13" r="15.5" style="fill:#8c97a1"/><circle cx="80" cy="6824.75" r="15.5" style="fill:#8c97a1"/><circle cx="80" cy="6878.38" r="15.5" style="fill:#8c97a1"/><circle cx="80" cy="6932" r="15.5" style="fill:#8c97a1"/><circle cx="80.5" cy="6985.5" r="15.5" style="fill:#8c97a1"/><circle cx="80" cy="7039.13" r="15.5" style="fill:#8c97a1"/><circle cx="80" cy="7092.75" r="15.5" style="fill:#8c97a1"/><circle cx="80" cy="7146.38" r="15.5" style="fill:#8c97a1"/><circle cx="80" cy="7200" r="15.5" style="fill:#8c97a1"/><circle cx="80.5" cy="7253.5" r="15.5" style="fill:#8c97a1"/><circle cx="80" cy="7307.13" r="15.5" style="fill:#8c97a1"/><circle cx="80" cy="7360.75" r="15.5" style="fill:#8c97a1"/><circle cx="80" cy="7414.38" r="15.5" style="fill:#8c97a1"/><circle cx="80" cy="7468" r="15.5" style="fill:#8c97a1"/><circle cx="80.5" cy="7521.5" r="15.5" style="fill:#8c97a1"/><circle cx="80" cy="7575.13" r="15.5" style="fill:#8c97a1"/><circle cx="80" cy="7628.75" r="15.5" style="fill:#8c97a1"/><circle cx="80" cy="7682.38" r="15.5" style="fill:#8c97a1"/><circle cx="80" cy="7736" r="15.5" style="fill:#8c97a1"/><circle cx="80.5" cy="7789.5" r="15.5" style="fill:#8c97a1"/><circle cx="80" cy="7843.13" r="15.5" style="fill:#8c97a1"/><circle cx="80" cy="7896.75" r="15.5" style="fill:#8c97a1"/><circle cx="80" cy="7950.38" r="15.5" style="fill:#8c97a1"/><circle cx="80" cy="8004" r="15.5" style="fill:#8c97a1"/><circle cx="80.5" cy="8057.5" r="15.5" style="fill:#8c97a1"/><circle cx="80" cy="8111.13" r="15.5" style="fill:#8c97a1"/><circle cx="80" cy="8164.75" r="15.5" style="fill:#8c97a1"/><circle cx="80" cy="8218.38" r="15.5" style="fill:#8c97a1"/><circle cx="80" cy="8272" r="15.5" style="fill:#8c97a1"/><circle cx="80.5" cy="8325.5" r="15.5" style="fill:#8c97a1"/><circle cx="80" cy="8379.13" r="15.5" style="fill:#8c97a1"/><circle cx="80" cy="8432.75" r="15.5" style="fill:#8c97a1"/><circle cx="80" cy="8486.38" r="15.5" style="fill:#8c97a1"/><circle cx="80" cy="8540" r="15.5" style="fill:#8c97a1"/><circle cx="80" cy="8594" r="15.5" style="fill:#8c97a1"/><circle cx="80.5" cy="8647.5" r="15.5" style="fill:#8c97a1"/><circle cx="80" cy="8701.13" r="15.5" style="fill:#8c97a1"/><circle cx="80" cy="8754.75" r="15.5" style="fill:#8c97a1"/><circle cx="80" cy="8808.38" r="15.5" style="fill:#8c97a1"/><circle cx="80" cy="8862" r="15.5" style="fill:#8c97a1"/><circle cx="80.5" cy="8915.5" r="15.5" style="fill:#8c97a1"/><circle cx="80" cy="8969.13" r="15.5" style="fill:#8c97a1"/><circle cx="80" cy="9022.75" r="15.5" style="fill:#8c97a1"/><circle cx="80" cy="9076.38" r="15.5" style="fill:#8c97a1"/><circle cx="80" cy="9130" r="15.5" style="fill:#8c97a1"/><circle cx="80.5" cy="9183.5" r="15.5" style="fill:#8c97a1"/><circle cx="80" cy="9237.13" r="15.5" style="fill:#8c97a1"/><circle cx="80" cy="9290.75" r="15.5" style="fill:#8c97a1"/><circle cx="80" cy="9344.38" r="15.5" style="fill:#8c97a1"/><circle cx="80" cy="9398" r="15.5" style="fill:#8c97a1"/><circle cx="80.5" cy="9451.5" r="15.5" style="fill:#8c97a1"/><circle cx="80" cy="9505.13" r="15.5" style="fill:#8c97a1"/><circle cx="80" cy="9558.75" r="15.5" style="fill:#8c97a1"/><circle cx="80" cy="9612.38" r="15.5" style="fill:#8c97a1"/><circle cx="80" cy="9666" r="15.5" style="fill:#8c97a1"/><circle cx="80.5" cy="9719.5" r="15.5" style="fill:#8c97a1"/><circle cx="80" cy="9773.13" r="15.5" style="fill:#8c97a1"/><circle cx="80" cy="9826.75" r="15.5" style="fill:#8c97a1"/><circle cx="80" cy="9880.38" r="15.5" style="fill:#8c97a1"/><circle cx="80" cy="9934" r="15.5" style="fill:#8c97a1"/><circle cx="80.5" cy="9987.5" r="15.5" style="fill:#8c97a1"/><circle cx="80" cy="10041.13" r="15.5" style="fill:#8c97a1"/><circle cx="80" cy="10094.75" r="15.5" style="fill:#8c97a1"/><circle cx="80" cy="10148.38" r="15.5" style="fill:#8c97a1"/><circle cx="80" cy="10202" r="15.5" style="fill:#8c97a1"/><circle cx="80.5" cy="10255.5" r="15.5" style="fill:#8c97a1"/><circle cx="80" cy="10309.13" r="15.5" style="fill:#8c97a1"/><circle cx="80" cy="10362.75" r="15.5" style="fill:#8c97a1"/><circle cx="80" cy="10416.38" r="15.5" style="fill:#8c97a1"/><circle cx="80" cy="10470" r="15.5" style="fill:#8c97a1"/><circle cx="80.5" cy="10523.5" r="15.5" style="fill:#8c97a1"/><circle cx="80" cy="10577.13" r="15.5" style="fill:#8c97a1"/><circle cx="80" cy="10630.75" r="15.5" style="fill:#8c97a1"/><circle cx="80" cy="10684.38" r="15.5" style="fill:#8c97a1"/><circle cx="80" cy="10738" r="15.5" style="fill:#8c97a1"/><circle cx="80" cy="10791.75" r="15.5" style="fill:#8c97a1"/><circle cx="80" cy="10845.38" r="15.5" style="fill:#8c97a1"/><circle cx="80" cy="10899" r="15.5" style="fill:#8c97a1"/><circle cx="80.5" cy="10952.5" r="15.5" style="fill:#8c97a1"/><circle cx="80" cy="11006.13" r="15.5" style="fill:#8c97a1"/><circle cx="80" cy="11059.75" r="15.5" style="fill:#8c97a1"/><circle cx="80" cy="11113.38" r="15.5" style="fill:#8c97a1"/><circle cx="80" cy="11167" r="15.5" style="fill:#8c97a1"/><circle cx="80.5" cy="11220.5" r="15.5" style="fill:#8c97a1"/><circle cx="80" cy="11274.13" r="15.5" style="fill:#8c97a1"/><circle cx="80" cy="11327.75" r="15.5" style="fill:#8c97a1"/><circle cx="80" cy="11381.38" r="15.5" style="fill:#8c97a1"/><circle cx="80" cy="11435" r="15.5" style="fill:#8c97a1"/><circle cx="80.5" cy="11488.5" r="15.5" style="fill:#8c97a1"/><circle cx="80" cy="11542.13" r="15.5" style="fill:#8c97a1"/><circle cx="80" cy="11595.75" r="15.5" style="fill:#8c97a1"/><circle cx="80" cy="11649.38" r="15.5" style="fill:#8c97a1"/><circle cx="80" cy="11703" r="15.5" style="fill:#8c97a1"/><circle cx="80.5" cy="11756.5" r="15.5" style="fill:#8c97a1"/><circle cx="80" cy="11810.13" r="15.5" style="fill:#8c97a1"/><circle cx="80" cy="11863.75" r="15.5" style="fill:#8c97a1"/><circle cx="80" cy="11917.38" r="15.5" style="fill:#8c97a1"/><circle cx="80" cy="11971" r="15.5" style="fill:#8c97a1"/><circle cx="80.5" cy="12024.5" r="15.5" style="fill:#8c97a1"/><circle cx="80" cy="12078.13" r="15.5" style="fill:#8c97a1"/><circle cx="80" cy="12131.75" r="15.5" style="fill:#8c97a1"/><circle cx="80" cy="12185.38" r="15.5" style="fill:#8c97a1"/><circle cx="80" cy="12239" r="15.5" style="fill:#8c97a1"/><circle cx="80" cy="12292.75" r="15.5" style="fill:#8c97a1"/><circle cx="80" cy="12346.38" r="15.5" style="fill:#8c97a1"/><circle cx="80" cy="12400" r="15.5" style="fill:#8c97a1"/><circle cx="80.5" cy="12453.5" r="15.5" style="fill:#8c97a1"/><circle cx="80" cy="12507.13" r="15.5" style="fill:#8c97a1"/><circle cx="80" cy="12560.75" r="15.5" style="fill:#8c97a1"/><circle cx="80" cy="12614.38" r="15.5" style="fill:#8c97a1"/><circle cx="80" cy="12668" r="15.5" style="fill:#8c97a1"/><circle cx="80.5" cy="12721.5" r="15.5" style="fill:#8c97a1"/><circle cx="80" cy="12775.13" r="15.5" style="fill:#8c97a1"/><circle cx="80" cy="12828.75" r="15.5" style="fill:#8c97a1"/><circle cx="80" cy="12882.38" r="15.5" style="fill:#8c97a1"/><circle cx="80" cy="12936" r="15.5" style="fill:#8c97a1"/><circle cx="80.5" cy="12989.5" r="15.5" style="fill:#8c97a1"/><circle cx="80" cy="13043.13" r="15.5" style="fill:#8c97a1"/><circle cx="80" cy="13096.75" r="15.5" style="fill:#8c97a1"/><circle cx="80" cy="13150.38" r="15.5" style="fill:#8c97a1"/><circle cx="80" cy="13204" r="15.5" style="fill:#8c97a1"/><circle cx="80.5" cy="13257.5" r="15.5" style="fill:#8c97a1"/><circle cx="80" cy="13311.13" r="15.5" style="fill:#8c97a1"/><circle cx="80" cy="13364.75" r="15.5" style="fill:#8c97a1"/><circle cx="80" cy="13418.38" r="15.5" style="fill:#8c97a1"/><circle cx="80" cy="13472" r="15.5" style="fill:#8c97a1"/><circle cx="80.5" cy="13525.5" r="15.5" style="fill:#8c97a1"/><circle cx="80" cy="13579.13" r="15.5" style="fill:#8c97a1"/><circle cx="80" cy="13632.75" r="15.5" style="fill:#8c97a1"/><circle cx="80" cy="13686.38" r="15.5" style="fill:#8c97a1"/><circle cx="80" cy="13740" r="15.5" style="fill:#8c97a1"/><circle cx="80" cy="13794" r="15.5" style="fill:#8c97a1"/><circle cx="80.5" cy="13847.5" r="15.5" style="fill:#8c97a1"/><circle cx="80" cy="13901.13" r="15.5" style="fill:#8c97a1"/><circle cx="80" cy="13954.75" r="15.5" style="fill:#8c97a1"/><circle cx="80" cy="14008.38" r="15.5" style="fill:#8c97a1"/><circle cx="80" cy="14062" r="15.5" style="fill:#8c97a1"/><circle cx="80.5" cy="14115.5" r="15.5" style="fill:#8c97a1"/><circle cx="80" cy="14169.13" r="15.5" style="fill:#8c97a1"/><circle cx="80" cy="14222.75" r="15.5" style="fill:#8c97a1"/><circle cx="80" cy="14276.38" r="15.5" style="fill:#8c97a1"/><circle cx="80" cy="14330" r="15.5" style="fill:#8c97a1"/><circle cx="80.5" cy="14383.5" r="15.5" style="fill:#8c97a1"/><circle cx="80" cy="14437.13" r="15.5" style="fill:#8c97a1"/><circle cx="80" cy="14490.75" r="15.5" style="fill:#8c97a1"/><circle cx="80" cy="14544.38" r="15.5" style="fill:#8c97a1"/><circle cx="80" cy="14598" r="15.5" style="fill:#8c97a1"/><circle cx="80.5" cy="14651.5" r="15.5" style="fill:#8c97a1"/><circle cx="80" cy="14705.13" r="15.5" style="fill:#8c97a1"/><circle cx="80" cy="14758.75" r="15.5" style="fill:#8c97a1"/><circle cx="80" cy="14812.38" r="15.5" style="fill:#8c97a1"/><circle cx="80" cy="14866" r="15.5" style="fill:#8c97a1"/><circle cx="80" cy="14920" r="15.5" style="fill:#8c97a1"/><circle cx="80.5" cy="14973.5" r="15.5" style="fill:#8c97a1"/><circle cx="80" cy="15027.13" r="15.5" style="fill:#8c97a1"/><circle cx="80" cy="15080.75" r="15.5" style="fill:#8c97a1"/><circle cx="80" cy="15134.38" r="15.5" style="fill:#8c97a1"/><circle cx="80" cy="15188" r="15.5" style="fill:#8c97a1"/><circle cx="80.5" cy="15.5" r="15.5" style="fill:#8c97a1"/><circle cx="15.5" cy="16" r="15.5" style="fill:#fff"/><circle cx="80" cy="69.13" r="15.5" style="fill:#8c97a1"/><circle cx="80" cy="122.75" r="15.5" style="fill:#8c97a1"/><circle cx="80" cy="176.38" r="15.5" style="fill:#8c97a1"/><circle cx="80" cy="230" r="15.5" style="fill:#8c97a1"/><circle cx="80.5" cy="283.5" r="15.5" style="fill:#8c97a1"/><circle cx="80" cy="337.13" r="15.5" style="fill:#8c97a1"/><circle cx="80" cy="390.75" r="15.5" style="fill:#8c97a1"/><circle cx="80" cy="444.38" r="15.5" style="fill:#8c97a1"/><circle cx="80" cy="498" r="15.5" style="fill:#8c97a1"/><circle cx="80.5" cy="551.5" r="15.5" style="fill:#8c97a1"/><circle cx="80" cy="605.13" r="15.5" style="fill:#8c97a1"/><circle cx="80" cy="658.75" r="15.5" style="fill:#8c97a1"/><circle cx="80" cy="712.38" r="15.5" style="fill:#8c97a1"/><circle cx="80" cy="766" r="15.5" style="fill:#8c97a1"/><circle cx="80.5" cy="819.5" r="15.5" style="fill:#8c97a1"/><circle cx="80" cy="873.13" r="15.5" style="fill:#8c97a1"/><circle cx="80" cy="926.75" r="15.5" style="fill:#8c97a1"/><circle cx="80" cy="980.38" r="15.5" style="fill:#8c97a1"/><circle cx="80" cy="1034" r="15.5" style="fill:#8c97a1"/><circle cx="80.5" cy="1087.5" r="15.5" style="fill:#8c97a1"/><circle cx="80" cy="1141.13" r="15.5" style="fill:#8c97a1"/><circle cx="80" cy="1194.75" r="15.5" style="fill:#8c97a1"/><circle cx="80" cy="1248.38" r="15.5" style="fill:#8c97a1"/><circle cx="80" cy="1302" r="15.5" style="fill:#8c97a1"/><circle cx="80.5" cy="1355.5" r="15.5" style="fill:#8c97a1"/><circle cx="80" cy="1409.13" r="15.5" style="fill:#8c97a1"/><circle cx="80" cy="1462.75" r="15.5" style="fill:#8c97a1"/><circle cx="80" cy="1516.38" r="15.5" style="fill:#8c97a1"/><circle cx="80" cy="1570" r="15.5" style="fill:#8c97a1"/><circle cx="80.5" cy="1623.5" r="15.5" style="fill:#8c97a1"/><circle cx="80" cy="1677.13" r="15.5" style="fill:#8c97a1"/><circle cx="80" cy="1730.75" r="15.5" style="fill:#8c97a1"/><circle cx="80" cy="1784.38" r="15.5" style="fill:#8c97a1"/><circle cx="80" cy="1838" r="15.5" style="fill:#8c97a1"/><circle cx="80.5" cy="1891.5" r="15.5" style="fill:#8c97a1"/><circle cx="80" cy="1945.13" r="15.5" style="fill:#8c97a1"/><circle cx="80" cy="1998.75" r="15.5" style="fill:#8c97a1"/><circle cx="80" cy="2052.38" r="15.5" style="fill:#8c97a1"/><circle cx="80" cy="2106" r="15.5" style="fill:#8c97a1"/><circle cx="80.5" cy="2159.5" r="15.5" style="fill:#8c97a1"/><circle cx="80" cy="2213.13" r="15.5" style="fill:#8c97a1"/><circle cx="80" cy="2266.75" r="15.5" style="fill:#8c97a1"/><circle cx="80" cy="2320.38" r="15.5" style="fill:#8c97a1"/><circle cx="80" cy="2374" r="15.5" style="fill:#8c97a1"/><circle cx="80.5" cy="2427.5" r="15.5" style="fill:#8c97a1"/><circle cx="80" cy="2481.13" r="15.5" style="fill:#8c97a1"/><circle cx="80" cy="2534.75" r="15.5" style="fill:#8c97a1"/><circle cx="80" cy="2588.38" r="15.5" style="fill:#8c97a1"/><circle cx="80" cy="2642" r="15.5" style="fill:#8c97a1"/><circle cx="80.5" cy="2695.5" r="15.5" style="fill:#8c97a1"/><circle cx="80" cy="2749.13" r="15.5" style="fill:#8c97a1"/><circle cx="80" cy="2802.75" r="15.5" style="fill:#8c97a1"/><circle cx="80" cy="2856.38" r="15.5" style="fill:#8c97a1"/><circle cx="80" cy="2910" r="15.5" style="fill:#8c97a1"/><circle cx="80.5" cy="2963.5" r="15.5" style="fill:#8c97a1"/><circle cx="80" cy="3017.13" r="15.5" style="fill:#8c97a1"/><circle cx="80" cy="3070.75" r="15.5" style="fill:#8c97a1"/><circle cx="80" cy="3124.38" r="15.5" style="fill:#8c97a1"/><circle cx="80" cy="3178" r="15.5" style="fill:#8c97a1"/><circle cx="80.5" cy="3231.5" r="15.5" style="fill:#8c97a1"/><circle cx="80" cy="3285.13" r="15.5" style="fill:#8c97a1"/><circle cx="80" cy="3338.75" r="15.5" style="fill:#8c97a1"/><circle cx="80" cy="3392.38" r="15.5" style="fill:#8c97a1"/><circle cx="80" cy="3446" r="15.5" style="fill:#8c97a1"/><circle cx="80.5" cy="3499.5" r="15.5" style="fill:#8c97a1"/><circle cx="80" cy="3553.13" r="15.5" style="fill:#8c97a1"/><circle cx="80" cy="3606.75" r="15.5" style="fill:#8c97a1"/><circle cx="80" cy="3660.38" r="15.5" style="fill:#8c97a1"/><circle cx="80" cy="3714" r="15.5" style="fill:#8c97a1"/><circle cx="80.5" cy="3767.5" r="15.5" style="fill:#8c97a1"/><circle cx="80" cy="3821.13" r="15.5" style="fill:#8c97a1"/><circle cx="80" cy="3874.75" r="15.5" style="fill:#8c97a1"/><circle cx="80" cy="3928.38" r="15.5" style="fill:#8c97a1"/><circle cx="80" cy="3982" r="15.5" style="fill:#8c97a1"/><circle cx="80.5" cy="4035.5" r="15.5" style="fill:#8c97a1"/><circle cx="80" cy="4089.13" r="15.5" style="fill:#8c97a1"/><circle cx="80" cy="4142.75" r="15.5" style="fill:#8c97a1"/><circle cx="80" cy="4196.38" r="15.5" style="fill:#8c97a1"/><circle cx="80" cy="4250" r="15.5" style="fill:#8c97a1"/></svg>