<svg id="Calque_1" data-name="Calque 1" xmlns="http://www.w3.org/2000/svg" viewBox="0 0 96 1339"><title>vertical-dots-solo</title><circle cx="80.5" cy="15" r="15.5" style="fill:#8c97a1"/><circle cx="15.5" cy="15.5" r="15.5" style="fill:#fff"/><circle cx="80" cy="68.63" r="15.5" style="fill:#8c97a1"/><circle cx="80" cy="122.25" r="15.5" style="fill:#8c97a1"/><circle cx="80" cy="175.88" r="15.5" style="fill:#8c97a1"/><circle cx="80" cy="229.5" r="15.5" style="fill:#8c97a1"/><circle cx="80.5" cy="283" r="15.5" style="fill:#8c97a1"/><circle cx="80" cy="336.63" r="15.5" style="fill:#8c97a1"/><circle cx="80" cy="390.25" r="15.5" style="fill:#8c97a1"/><circle cx="80" cy="443.88" r="15.5" style="fill:#8c97a1"/><circle cx="80" cy="497.5" r="15.5" style="fill:#8c97a1"/><circle cx="80.5" cy="551" r="15.5" style="fill:#8c97a1"/><circle cx="80" cy="604.63" r="15.5" style="fill:#8c97a1"/><circle cx="80" cy="658.25" r="15.5" style="fill:#8c97a1"/><circle cx="80" cy="711.88" r="15.5" style="fill:#8c97a1"/><circle cx="80" cy="765.5" r="15.5" style="fill:#8c97a1"/><circle cx="80.5" cy="819" r="15.5" style="fill:#8c97a1"/><circle cx="80" cy="872.63" r="15.5" style="fill:#8c97a1"/><circle cx="80" cy="926.25" r="15.5" style="fill:#8c97a1"/><circle cx="80" cy="979.88" r="15.5" style="fill:#8c97a1"/><circle cx="80" cy="1033.5" r="15.5" style="fill:#8c97a1"/><circle cx="80.5" cy="1087" r="15.5" style="fill:#8c97a1"/><circle cx="80" cy="1140.63" r="15.5" style="fill:#8c97a1"/><circle cx="80" cy="1194.25" r="15.5" style="fill:#8c97a1"/><circle cx="80" cy="1247.88" r="15.5" style="fill:#8c97a1"/><circle cx="80" cy="1301.5" r="15.5" style="fill:#8c97a1"/><rect x="75" y="1317" width="10" height="22" style="fill:#fff"/></svg>