<svg id="Calque_1" data-name="Calque 1" xmlns="http://www.w3.org/2000/svg" viewBox="0 0 455.5 9036"><title>vertical-dots</title><circle cx="228.59" cy="4786" r="15.5" style="fill:#8c97a1"/><circle cx="228.09" cy="4839.63" r="15.5" style="fill:#8c97a1"/><circle cx="228.09" cy="4893.25" r="15.5" style="fill:#8c97a1"/><circle cx="228.09" cy="4946.88" r="15.5" style="fill:#8c97a1"/><circle cx="228.09" cy="5000.5" r="15.5" style="fill:#8c97a1"/><circle cx="228.59" cy="5054" r="15.5" style="fill:#8c97a1"/><circle cx="228.09" cy="5107.63" r="15.5" style="fill:#8c97a1"/><circle cx="228.09" cy="5161.25" r="15.5" style="fill:#8c97a1"/><circle cx="228.09" cy="5214.88" r="15.5" style="fill:#8c97a1"/><circle cx="228.09" cy="5268.5" r="15.5" style="fill:#8c97a1"/><circle cx="228.59" cy="5322" r="15.5" style="fill:#8c97a1"/><circle cx="228.09" cy="5375.63" r="15.5" style="fill:#8c97a1"/><circle cx="228.09" cy="5429.25" r="15.5" style="fill:#8c97a1"/><circle cx="228.09" cy="5482.88" r="15.5" style="fill:#8c97a1"/><circle cx="228.09" cy="5536.5" r="15.5" style="fill:#8c97a1"/><circle cx="228.59" cy="5590" r="15.5" style="fill:#8c97a1"/><circle cx="228.09" cy="5643.63" r="15.5" style="fill:#8c97a1"/><circle cx="228.09" cy="5697.25" r="15.5" style="fill:#8c97a1"/><circle cx="228.09" cy="5750.88" r="15.5" style="fill:#8c97a1"/><circle cx="228.09" cy="5804.5" r="15.5" style="fill:#8c97a1"/><circle cx="228.59" cy="5858" r="15.5" style="fill:#8c97a1"/><circle cx="228.09" cy="5911.63" r="15.5" style="fill:#8c97a1"/><circle cx="228.09" cy="5965.25" r="15.5" style="fill:#8c97a1"/><circle cx="228.09" cy="6018.88" r="15.5" style="fill:#8c97a1"/><circle cx="228.09" cy="6072.5" r="15.5" style="fill:#8c97a1"/><circle cx="228.59" cy="6126" r="15.5" style="fill:#8c97a1"/><circle cx="228.09" cy="6179.63" r="15.5" style="fill:#8c97a1"/><circle cx="228.09" cy="6233.25" r="15.5" style="fill:#8c97a1"/><circle cx="228.09" cy="6286.88" r="15.5" style="fill:#8c97a1"/><circle cx="228.09" cy="6340.5" r="15.5" style="fill:#8c97a1"/><circle cx="228.59" cy="6394" r="15.5" style="fill:#8c97a1"/><circle cx="228.09" cy="6447.63" r="15.5" style="fill:#8c97a1"/><circle cx="228.09" cy="6501.25" r="15.5" style="fill:#8c97a1"/><circle cx="228.09" cy="6554.88" r="15.5" style="fill:#8c97a1"/><circle cx="228.09" cy="6608.5" r="15.5" style="fill:#8c97a1"/><circle cx="228.59" cy="6662" r="15.5" style="fill:#8c97a1"/><circle cx="228.09" cy="6715.63" r="15.5" style="fill:#8c97a1"/><circle cx="228.09" cy="6769.25" r="15.5" style="fill:#8c97a1"/><circle cx="228.09" cy="6822.88" r="15.5" style="fill:#8c97a1"/><circle cx="228.09" cy="6876.5" r="15.5" style="fill:#8c97a1"/><circle cx="228.59" cy="6930" r="15.5" style="fill:#8c97a1"/><circle cx="228.09" cy="6983.63" r="15.5" style="fill:#8c97a1"/><circle cx="228.09" cy="7037.25" r="15.5" style="fill:#8c97a1"/><circle cx="228.09" cy="7090.88" r="15.5" style="fill:#8c97a1"/><circle cx="228.09" cy="7144.5" r="15.5" style="fill:#8c97a1"/><circle cx="228.59" cy="7198" r="15.5" style="fill:#8c97a1"/><circle cx="228.09" cy="7251.63" r="15.5" style="fill:#8c97a1"/><circle cx="228.09" cy="7305.25" r="15.5" style="fill:#8c97a1"/><circle cx="228.09" cy="7358.88" r="15.5" style="fill:#8c97a1"/><circle cx="228.09" cy="7412.5" r="15.5" style="fill:#8c97a1"/><circle cx="228.59" cy="7466" r="15.5" style="fill:#8c97a1"/><circle cx="228.09" cy="7519.63" r="15.5" style="fill:#8c97a1"/><circle cx="228.09" cy="7573.25" r="15.5" style="fill:#8c97a1"/><circle cx="228.09" cy="7626.88" r="15.5" style="fill:#8c97a1"/><circle cx="228.09" cy="7680.5" r="15.5" style="fill:#8c97a1"/><circle cx="228.59" cy="7734" r="15.5" style="fill:#8c97a1"/><circle cx="228.09" cy="7787.63" r="15.5" style="fill:#8c97a1"/><circle cx="228.09" cy="7841.25" r="15.5" style="fill:#8c97a1"/><circle cx="228.09" cy="7894.88" r="15.5" style="fill:#8c97a1"/><circle cx="228.09" cy="7948.5" r="15.5" style="fill:#8c97a1"/><circle cx="228.59" cy="8002" r="15.5" style="fill:#8c97a1"/><circle cx="228.09" cy="8055.63" r="15.5" style="fill:#8c97a1"/><circle cx="228.09" cy="8109.25" r="15.5" style="fill:#8c97a1"/><circle cx="228.09" cy="8162.88" r="15.5" style="fill:#8c97a1"/><circle cx="228.09" cy="8216.5" r="15.5" style="fill:#8c97a1"/><circle cx="228.59" cy="8270" r="15.5" style="fill:#8c97a1"/><circle cx="228.09" cy="8323.63" r="15.5" style="fill:#8c97a1"/><circle cx="228.09" cy="8377.25" r="15.5" style="fill:#8c97a1"/><circle cx="228.09" cy="8430.88" r="15.5" style="fill:#8c97a1"/><circle cx="228.09" cy="8484.5" r="15.5" style="fill:#8c97a1"/><circle cx="228.59" cy="8538" r="15.5" style="fill:#8c97a1"/><circle cx="228.09" cy="8591.63" r="15.5" style="fill:#8c97a1"/><circle cx="228.09" cy="8645.25" r="15.5" style="fill:#8c97a1"/><circle cx="228.09" cy="8698.88" r="15.5" style="fill:#8c97a1"/><circle cx="228.09" cy="8752.5" r="15.5" style="fill:#8c97a1"/><circle cx="228.59" cy="8806" r="15.5" style="fill:#8c97a1"/><circle cx="228.09" cy="8859.63" r="15.5" style="fill:#8c97a1"/><circle cx="228.09" cy="8913.25" r="15.5" style="fill:#8c97a1"/><circle cx="228.09" cy="8966.88" r="15.5" style="fill:#8c97a1"/><circle cx="228.09" cy="9020.5" r="15.5" style="fill:#8c97a1"/><circle cx="228.59" cy="496" r="15.5" style="fill:#8c97a1"/><circle cx="228.09" cy="549.63" r="15.5" style="fill:#8c97a1"/><circle cx="228.09" cy="603.25" r="15.5" style="fill:#8c97a1"/><circle cx="228.09" cy="656.88" r="15.5" style="fill:#8c97a1"/><circle cx="228.09" cy="710.5" r="15.5" style="fill:#8c97a1"/><circle cx="228.59" cy="764" r="15.5" style="fill:#8c97a1"/><circle cx="228.09" cy="817.63" r="15.5" style="fill:#8c97a1"/><circle cx="228.09" cy="871.25" r="15.5" style="fill:#8c97a1"/><circle cx="228.09" cy="924.88" r="15.5" style="fill:#8c97a1"/><circle cx="228.09" cy="978.5" r="15.5" style="fill:#8c97a1"/><circle cx="228.59" cy="1032" r="15.5" style="fill:#8c97a1"/><circle cx="228.09" cy="1085.63" r="15.5" style="fill:#8c97a1"/><circle cx="228.09" cy="1139.25" r="15.5" style="fill:#8c97a1"/><circle cx="228.09" cy="1192.88" r="15.5" style="fill:#8c97a1"/><circle cx="228.09" cy="1246.5" r="15.5" style="fill:#8c97a1"/><circle cx="228.59" cy="1300" r="15.5" style="fill:#8c97a1"/><circle cx="228.09" cy="1353.63" r="15.5" style="fill:#8c97a1"/><circle cx="228.09" cy="1407.25" r="15.5" style="fill:#8c97a1"/><circle cx="228.09" cy="1460.88" r="15.5" style="fill:#8c97a1"/><circle cx="228.09" cy="1514.5" r="15.5" style="fill:#8c97a1"/><circle cx="228.59" cy="1568" r="15.5" style="fill:#8c97a1"/><circle cx="228.09" cy="1621.63" r="15.5" style="fill:#8c97a1"/><circle cx="228.09" cy="1675.25" r="15.5" style="fill:#8c97a1"/><circle cx="228.09" cy="1728.88" r="15.5" style="fill:#8c97a1"/><circle cx="228.09" cy="1782.5" r="15.5" style="fill:#8c97a1"/><circle cx="228.59" cy="1836" r="15.5" style="fill:#8c97a1"/><circle cx="228.09" cy="1889.63" r="15.5" style="fill:#8c97a1"/><circle cx="228.09" cy="1943.25" r="15.5" style="fill:#8c97a1"/><circle cx="228.09" cy="1996.88" r="15.5" style="fill:#8c97a1"/><circle cx="228.09" cy="2050.5" r="15.5" style="fill:#8c97a1"/><circle cx="228.59" cy="2104" r="15.5" style="fill:#8c97a1"/><circle cx="228.09" cy="2157.63" r="15.5" style="fill:#8c97a1"/><circle cx="228.09" cy="2211.25" r="15.5" style="fill:#8c97a1"/><circle cx="228.09" cy="2264.88" r="15.5" style="fill:#8c97a1"/><circle cx="228.09" cy="2318.5" r="15.5" style="fill:#8c97a1"/><circle cx="228.59" cy="2372" r="15.5" style="fill:#8c97a1"/><circle cx="228.09" cy="2425.63" r="15.5" style="fill:#8c97a1"/><circle cx="228.09" cy="2479.25" r="15.5" style="fill:#8c97a1"/><circle cx="228.09" cy="2532.88" r="15.5" style="fill:#8c97a1"/><circle cx="228.09" cy="2586.5" r="15.5" style="fill:#8c97a1"/><circle cx="228.59" cy="2640" r="15.5" style="fill:#8c97a1"/><circle cx="228.09" cy="2693.63" r="15.5" style="fill:#8c97a1"/><circle cx="228.09" cy="2747.25" r="15.5" style="fill:#8c97a1"/><circle cx="228.09" cy="2800.88" r="15.5" style="fill:#8c97a1"/><circle cx="228.09" cy="2854.5" r="15.5" style="fill:#8c97a1"/><circle cx="228.59" cy="2908" r="15.5" style="fill:#8c97a1"/><circle cx="228.09" cy="2961.63" r="15.5" style="fill:#8c97a1"/><circle cx="228.09" cy="3015.25" r="15.5" style="fill:#8c97a1"/><circle cx="228.09" cy="3068.88" r="15.5" style="fill:#8c97a1"/><circle cx="228.09" cy="3122.5" r="15.5" style="fill:#8c97a1"/><circle cx="228.59" cy="3176" r="15.5" style="fill:#8c97a1"/><circle cx="228.09" cy="3229.63" r="15.5" style="fill:#8c97a1"/><circle cx="228.09" cy="3283.25" r="15.5" style="fill:#8c97a1"/><circle cx="228.09" cy="3336.88" r="15.5" style="fill:#8c97a1"/><circle cx="228.09" cy="3390.5" r="15.5" style="fill:#8c97a1"/><circle cx="228.59" cy="3444" r="15.5" style="fill:#8c97a1"/><circle cx="228.09" cy="3497.63" r="15.5" style="fill:#8c97a1"/><circle cx="228.09" cy="3551.25" r="15.5" style="fill:#8c97a1"/><circle cx="228.09" cy="3604.88" r="15.5" style="fill:#8c97a1"/><circle cx="228.09" cy="3658.5" r="15.5" style="fill:#8c97a1"/><circle cx="228.59" cy="3712" r="15.5" style="fill:#8c97a1"/><circle cx="228.09" cy="3765.63" r="15.5" style="fill:#8c97a1"/><circle cx="228.09" cy="3819.25" r="15.5" style="fill:#8c97a1"/><circle cx="228.09" cy="3872.88" r="15.5" style="fill:#8c97a1"/><circle cx="228.09" cy="3926.5" r="15.5" style="fill:#8c97a1"/><circle cx="228.59" cy="3980" r="15.5" style="fill:#8c97a1"/><circle cx="228.09" cy="4033.63" r="15.5" style="fill:#8c97a1"/><circle cx="228.09" cy="4087.25" r="15.5" style="fill:#8c97a1"/><circle cx="228.09" cy="4140.88" r="15.5" style="fill:#8c97a1"/><circle cx="228.09" cy="4194.5" r="15.5" style="fill:#8c97a1"/><circle cx="228.59" cy="4248" r="15.5" style="fill:#8c97a1"/><circle cx="228.09" cy="4301.63" r="15.5" style="fill:#8c97a1"/><circle cx="228.09" cy="4355.25" r="15.5" style="fill:#8c97a1"/><circle cx="228.09" cy="4408.88" r="15.5" style="fill:#8c97a1"/><circle cx="228.09" cy="4462.5" r="15.5" style="fill:#8c97a1"/><circle cx="228.59" cy="4516" r="15.5" style="fill:#8c97a1"/><circle cx="228.09" cy="4569.63" r="15.5" style="fill:#8c97a1"/><circle cx="228.09" cy="4623.25" r="15.5" style="fill:#8c97a1"/><circle cx="228.09" cy="4676.88" r="15.5" style="fill:#8c97a1"/><circle cx="228.09" cy="4730.5" r="15.5" style="fill:#8c97a1"/><polygon points="0 27.48 36.15 0 419.35 0 455.5 27.48 446.83 371.63 419.35 402 36.15 402 7.23 371.63 0 27.48" style="fill:#f5e873"/><polygon points="45.77 365.13 410.68 357.39 400.44 155.14 56.4 143.88 45.77 365.13" style="fill:#fff"/><polygon points="43.6 71.58 411.69 61.96 416.24 155.45 40.49 156.1 43.6 71.58" style="fill:#3b2b52"/><polygon points="93.16 47 124.29 38.54 130.14 87.49 93.16 87.49 93.16 47" style="fill:#fff"/><polygon points="326.01 87.49 335.48 38.54 364.4 38.54 372.43 83.15 326.01 87.49" style="fill:#fff"/><polygon points="209.97 38.54 247.27 38.54 247.27 87.49 208.01 87.49 209.97 38.54" style="fill:#fff"/><polygon points="154.24 176.71 160.17 231.58 211.07 223.41 209.12 176.71 154.24 176.71" style="fill:#03e8fc"/><polygon points="296.53 175.73 241.65 181.66 249.82 232.56 296.53 230.61 296.53 175.73" style="fill:#03e8fc"/><polygon points="385.57 231.58 379.64 176.71 328.74 184.88 330.69 231.58 385.57 231.58" style="fill:#03e8fc"/><polygon points="329.72 311.08 384.59 305.15 376.42 254.25 329.72 256.2 329.72 311.08" style="fill:#03e8fc"/><polygon points="154.24 311.08 209.12 305.15 200.95 254.25 154.24 256.2 154.24 311.08" style="fill:#03e8fc"/><polygon points="240.68 255.23 246.6 310.1 297.5 301.93 295.55 255.23 240.68 255.23" style="fill:#03e8fc"/><polygon points="121.7 254.25 66.83 260.18 75 311.08 121.7 309.13 121.7 254.25" style="fill:#03e8fc"/></svg>