<svg id="Layer_1" data-name="Layer 1" xmlns="http://www.w3.org/2000/svg" viewBox="0 0 140 140"><defs><style>.cls-1{fill:#f05;}.cls-2{fill:#f5e873;}</style></defs><title>sliced_booster</title><rect class="cls-1" x="64.36" y="51.66" width="10.35" height="7.53"/><path class="cls-1" d="M59.65,91.17H46.48l-2.82,13.17,6.58,26.34,14.12-28.22Zm-7.52,24.46L48.36,103.4l2.82-7.53H55l3.76,6.59Z"/><path class="cls-1" d="M90.7,91.17H77.53L74.7,104.34l6.59,26.34L95.4,102.46Zm-7.53,24.46L79.41,103.4l2.82-7.53H86l3.77,6.59Z"/><polygon class="cls-2" points="40.84 87.4 67.18 87.4 67.29 79.35 41.2 79 40.84 87.4"/><polygon class="cls-2" points="68.05 26.68 43.45 26.35 41.4 74.3 67.36 74.64 68.05 26.68"/><polygon class="cls-2" points="68.12 21.55 60.59 9.32 51.19 9.32 43.66 21.55 43.65 21.65 68.11 21.97 68.12 21.55"/><polygon class="cls-2" points="72.43 74.71 98.4 75.05 99.08 27.08 74.48 26.76 72.43 74.71"/><polygon class="cls-2" points="99.16 21.55 91.64 9.32 82.23 9.32 74.7 21.55 74.68 22.06 99.15 22.38 99.16 21.55"/><polygon class="cls-2" points="71.88 87.4 98.22 87.4 98.33 79.76 72.22 79.41 71.88 87.4"/></svg>