<svg id="Layer_1" data-name="Layer 1" xmlns="http://www.w3.org/2000/svg" viewBox="0 0 140 140"><defs><style>.cls-1{fill:#fff;}.cls-2{fill:#f5e873;}</style></defs><title>sliced_insights</title><path class="cls-1" d="M56.82,58.42l.7-14.59,4.16-.69V37.58H39.46v5.56l4.16.69.7,14.59-24,43.75,2.33,8.34H78.46l2.33-8.34ZM54,64.67l2.78,2.08-1.39,2.78L52,67.45Zm-9,4.86,2.09,2.08L45,73.7l-2.08-1.39Zm29.17,36.11H27l-1.39-5.55L40.85,75.78,61.68,73.7,76.27,99.39Z"/><path class="cls-2" d="M104.68,83.45l-6.1,2.67L93.1,81.6l3.44-48.87,3.06-2.8,5.91,3.32,3.17,5.29L114.52,42l5.13,12.37-8,6.18-5.43-.84-4.83,2.64,5.18,2.12L117.22,62l1.08-.63-4.68,11-4.23,7-5.6-2.1-1.58-5.62-2.72-1-1.29,2,4.08,8.59,2.4,2.07Zm-1.16-39.68-2.17,3.88,7.47,7,3-1.27,1.49-.83Z"/><path class="cls-2" d="M69.15,54l2.91-13.5,5.76-2.63L81,32.21l11.37-2.72L94.15,32,90.47,83.34l-2.36,2.31-9.28-4.26-1.75-1.15-5.75-9.89-1-2-2.91-5.08,7.44-5.81L79,58.2l6.71,1.34,1.76-3.86L69.15,54ZM84.59,70.77l-6.53-8.13-3.28,1.73L75.85,66l5,7.6,2.47.56,1.12-1.25ZM81.91,49.19l8.6-6.25-1.85-3.67L87,40.47,81.3,44.71l-2.07,1.56,1.34,1.58Z"/><polyline class="cls-2" points="99.65 51.58 99.29 56.62 100.29 56.69 102.17 51.76"/><polygon class="cls-2" points="87.55 52.11 86.58 48.49 88.73 46.88 89.57 52.25 87.55 52.11"/></svg>