<svg id="Layer_1" data-name="Layer 1" xmlns="http://www.w3.org/2000/svg" viewBox="0 0 140 140"><defs><style>.cls-1{fill:#fff;}.cls-2{fill:#03e8fc;}</style></defs><title>sliced_techniques</title><path class="cls-1" d="M60.32,47l-4.63-1L52.87,42.5l.46-4.69-2.58-1.48L46,38.52l-4.29-.15L38,35.27,35.28,36l-1.1,4.39-3.66,2.85-4.5,0-1.36,2.42L27.13,49l-.45,4.13L23.47,57l.3,2.63L28.28,61l2.67,4,.22,4.64,3,2,3.67-2.35,4.14.47,2.09,2.24ZM50.09,58l-6.31,4.36-6.52-1.11L33.45,56l1.44-7.1,4.57-3.59,6.75,1.5L50.73,51Z"/><path class="cls-1" d="M111.6,78l-.75-5.7,2.8-6.48L111,62l-7,.75-5.64-3.5-1.6-6.85-4.36-.84-5.68,5.38-4.56,1.39L65.76,83.46l.76,3.36-2.65,7.06,1.69,3.57,7-.29,5.68,4.28,2.55,6.44L86,109.27,90,104.18l6.06-1.33L102,106l3.82-2.65-.46-6.16,3.09-5.68,6.54-2.59,1.59-4.76ZM93,91.53l-9.06-.28-6.47-3.57L76.71,77l5.56-7,9.39-1.57,6.7,5.59,1.81,9.36Z"/><polygon class="cls-1" points="72.88 37.9 85.47 30.73 83.61 43.26 72.88 37.9"/><polygon class="cls-2" points="82.67 46.49 71.1 40.85 40.56 86.75 51.7 93.83 82.67 46.49"/><polygon class="cls-1" points="34.89 95.27 45.86 102.74 49.49 97.19 38.34 90.09 34.89 95.27"/></svg>