<svg id="Layer_1" data-name="Layer 1" xmlns="http://www.w3.org/2000/svg" viewBox="0 0 140 140"><defs><style>.cls-1{fill:#03e8fc;}.cls-2{fill:#fff;}</style></defs><title>sliced_keys</title><path class="cls-1" d="M67.7,62.32l-5.49,5.75L66.89,68,68,105l-.21.51-.19,22.94,6.56-.15-.73-60.46,4.69-.1-5.75-5.5L73,56.44l-6,.78Z"/><polygon class="cls-2" points="70.2 59.64 59.93 68.06 79.84 68.33 70.2 59.64"/><polygon class="cls-1" points="68.02 104.97 63.34 105.07 63.21 99.45 51.07 101.6 52.09 105.33 57.72 105.2 57.8 108.95 51.24 109.1 52.28 113.77 57.91 113.64 57.99 117.39 51.43 117.54 51.52 121.28 59.95 121.09 63.77 123.82 64.53 116.3 68.28 116.21 68.02 104.97"/><path class="cls-2" d="M95.07,28.88,84.63,23.49,79.82,18l-7.65-6.39L61.88,12.75l-6.34,9.52-4.63,2.92-8.32,4.88L40,38.57l2.11,10.27,8.6,7.3,10.37,2.58,5.54-3.88L67,57.22l6-.78.17-1.75,9.42,1.66,11.14-4.94L100,41ZM52.47,52.35l-7.69-8.26,1.7-7.54L52,29.86l6.6,1.72,3,7.44L58.8,41.89l-2.94-5.56-6.5,3,2,6.52,9.38-.21,3.64-4.77,1.94,2.77-1.81,2.85,2,3.71Zm7.84-26.43-.13-5.63,8.33-4.88,7.6,4.52.15,6.56L69,38.85ZM87.15,51.56,73.05,50l1.79-3.79L72.9,43.45l1.81-2.86,3.85,4.6L87.94,45l1.72-6.6L83,35.71,80.35,41.4l-2.87-2.75,2.64-7.56,6.52-2,5.77,6.43,2,7.45Z"/></svg>