<svg id="Layer_1" data-name="Layer 1" xmlns="http://www.w3.org/2000/svg" viewBox="0 0 140 140"><defs><style>.cls-1{fill:#f5e873;}.cls-2{fill:#343151;}.cls-3{fill:#f05;}</style></defs><title>sliced_understanding</title><polygon class="cls-1" points="94.81 47.95 69.33 41.84 47.88 44.9 13.01 69.33 47.88 93.76 69.33 96.82 94.81 90.71 126.99 69.33 94.81 47.95"/><polygon class="cls-2" points="85.42 68.66 75.92 53.13 58.7 53.9 50.56 68.66 59.41 83.84 75.91 84.19 85.42 68.66 85.42 68.66"/><rect class="cls-3" x="89.44" y="67.32" width="24.14" height="5.36"/><rect class="cls-3" x="27.76" y="56.59" width="5.36" height="26.82" transform="translate(100.44 39.56) rotate(90)"/><rect class="cls-3" x="62.63" y="21.73" width="5.36" height="24.14"/><rect class="cls-3" x="62.63" y="91.45" width="5.36" height="26.82"/><rect class="cls-3" x="30.44" y="33.8" width="24.14" height="5.36"/><rect class="cls-3" x="21.06" y="43.18" width="24.14" height="5.36" transform="translate(78.99 12.74) rotate(90)"/><rect class="cls-3" x="74.69" y="33.8" width="24.14" height="5.36" transform="translate(173.52 72.95) rotate(180)"/><rect class="cls-3" x="84.08" y="43.18" width="24.14" height="5.36" transform="translate(142.01 -50.28) rotate(90)"/><rect class="cls-3" x="74.69" y="100.84" width="24.14" height="5.36" transform="translate(173.52 207.05) rotate(180)"/><rect class="cls-3" x="84.08" y="91.45" width="24.14" height="5.36" transform="translate(2.01 190.28) rotate(-90)"/><rect class="cls-3" x="30.44" y="100.84" width="24.14" height="5.36"/><rect class="cls-3" x="21.06" y="91.45" width="24.14" height="5.36" transform="translate(-61.01 127.26) rotate(-90)"/></svg>