<svg id="Layer_1" data-name="Layer 1" xmlns="http://www.w3.org/2000/svg" viewBox="0 0 140 140"><defs><style>.cls-1{fill:#03e8fc;}.cls-2{fill:#fff;}</style></defs><title>sliced_inspiration</title><path class="cls-1" d="M110.24,81a46.58,46.58,0,0,1,6.52,23h4.93a51.42,51.42,0,0,0-7.78-26.41Z"/><path class="cls-1" d="M70,53.14A51.77,51.77,0,0,0,18.31,104h4.93A46.75,46.75,0,0,1,77.13,58.61l4.49-4.14A51.74,51.74,0,0,0,70,53.14Z"/><path class="cls-1" d="M107.87,104h4a41.83,41.83,0,0,0-5.3-19.54l-3,2.81A37.86,37.86,0,0,1,107.87,104Z"/><path class="cls-1" d="M70,63a41.93,41.93,0,0,0-41.86,41h4A37.89,37.89,0,0,1,68,67l4.32-4C71.55,63,70.78,63,70,63Z"/><path class="cls-1" d="M99.32,104h3.09a32.24,32.24,0,0,0-3-12.83L97,93.39A29.21,29.21,0,0,1,99.32,104Z"/><path class="cls-1" d="M37.59,104h3.09a29.3,29.3,0,0,1,11.84-22.7l8.13-7.5A32.51,32.51,0,0,0,37.59,104Z"/><path class="cls-1" d="M92.13,104h2.33a24.31,24.31,0,0,0-1.29-7l-1.89,1.76A21.74,21.74,0,0,1,92.13,104Z"/><path class="cls-2" d="M99.47,49.55l-10-8.68L121.67,36l-3,30.18-8.71-7.54L96.79,69.72l9.53,4.59L73.22,104,57.1,104,84.64,78.87l-11.71-4Z"/></svg>